<svg width="73" height="72" viewBox="0 0 73 72" fill="none" xmlns="http://www.w3.org/2000/svg">
<rect x="0.54541" width="72" height="72" rx="36" fill="white"/>
<g clip-path="url(#clip0_1_2312)">
<path opacity="0.2" d="M27.353 45.1924C26.2025 44.0419 26.9656 41.6265 26.38 40.2111C25.773 38.744 23.5454 37.5631 23.5454 36C23.5454 34.4368 25.773 33.256 26.38 31.7888C26.9656 30.3735 26.2025 27.9581 27.353 26.8076C28.5035 25.6571 30.919 26.4202 32.3343 25.8346C33.8014 25.2275 34.9823 23 36.5455 23C38.1086 23 39.2894 25.2276 40.7566 25.8346C42.1719 26.4202 44.5873 25.6571 45.7378 26.8076C46.8883 27.9581 46.1252 30.3735 46.7108 31.7889C47.3179 33.256 49.5454 34.4369 49.5454 36C49.5454 37.5632 47.3179 38.744 46.7108 40.2112C46.1252 41.6265 46.8883 44.0419 45.7378 45.1924C44.5873 46.3429 42.1719 45.5798 40.7565 46.1654C39.2894 46.7725 38.1085 49 36.5454 49C34.9822 49 33.8014 46.7724 32.3343 46.1654C30.9189 45.5798 28.5035 46.3429 27.353 45.1924Z" fill="#4640DE"/>
<path d="M27.353 45.1924C26.2025 44.0419 26.9656 41.6265 26.38 40.2111C25.773 38.744 23.5454 37.5631 23.5454 36C23.5454 34.4368 25.773 33.256 26.38 31.7888C26.9656 30.3735 26.2025 27.9581 27.353 26.8076C28.5035 25.6571 30.919 26.4202 32.3343 25.8346C33.8015 25.2275 34.9823 23 36.5455 23C38.1086 23 39.2894 25.2276 40.7566 25.8346C42.1719 26.4202 44.5873 25.6571 45.7378 26.8076C46.8883 27.9581 46.1252 30.3735 46.7108 31.7889C47.3179 33.256 49.5454 34.4369 49.5454 36C49.5454 37.5632 47.3179 38.744 46.7108 40.2112C46.1252 41.6265 46.8883 44.0419 45.7378 45.1924C44.5873 46.3429 42.1719 45.5798 40.7565 46.1654C39.2894 46.7725 38.1085 49 36.5454 49C34.9822 49 33.8014 46.7724 32.3343 46.1654C30.9189 45.5798 28.5035 46.3429 27.353 45.1924Z" stroke="#4640DE" stroke-width="2" stroke-linecap="round" stroke-linejoin="round"/>
<path d="M42.0454 33L34.712 40L31.0454 36.5" stroke="#4640DE" stroke-width="2" stroke-linecap="round" stroke-linejoin="round"/>
</g>
<defs>
<clipPath id="clip0_1_2312">
<rect width="32" height="32" fill="white" transform="translate(20.5454 20)"/>
</clipPath>
</defs>
</svg>
