<svg width="41" height="40" viewBox="0 0 41 40" fill="none" xmlns="http://www.w3.org/2000/svg">
<g clip-path="url(#clip0_1_2196)">
<path opacity="0.2" d="M20.6668 23.75C15.4008 23.7583 10.2263 22.3739 5.66797 19.7373V32.5C5.66797 32.6642 5.7003 32.8267 5.76312 32.9784C5.82593 33.1301 5.91801 33.2679 6.03408 33.3839C6.15016 33.5 6.28796 33.5921 6.43961 33.6549C6.59127 33.7177 6.75382 33.75 6.91797 33.75H34.418C34.5821 33.75 34.7447 33.7177 34.8963 33.6549C35.048 33.5921 35.1858 33.5 35.3019 33.3839C35.4179 33.2679 35.51 33.1301 35.5728 32.9784C35.6356 32.8267 35.668 32.6642 35.668 32.5V19.7358C31.1091 22.3734 25.9337 23.7583 20.6668 23.75Z" fill="#4640DE"/>
<path d="M34.418 11.25H6.91797C6.22761 11.25 5.66797 11.8096 5.66797 12.5V32.5C5.66797 33.1904 6.22761 33.75 6.91797 33.75H34.418C35.1083 33.75 35.668 33.1904 35.668 32.5V12.5C35.668 11.8096 35.1083 11.25 34.418 11.25Z" stroke="#4640DE" stroke-width="2" stroke-linecap="round" stroke-linejoin="round"/>
<path d="M26.9165 11.25V8.75C26.9165 8.08696 26.6531 7.45107 26.1843 6.98223C25.7154 6.51339 25.0795 6.25 24.4165 6.25H16.9165C16.2535 6.25 15.6176 6.51339 15.1487 6.98223C14.6799 7.45107 14.4165 8.08696 14.4165 8.75V11.25" stroke="#4640DE" stroke-width="2" stroke-linecap="round" stroke-linejoin="round"/>
<path d="M35.6677 19.7358C31.1088 22.3734 25.9334 23.7583 20.6665 23.75C15.4004 23.7583 10.2259 22.3739 5.66748 19.7372" stroke="#4640DE" stroke-width="2" stroke-linecap="round" stroke-linejoin="round"/>
<path d="M18.7915 18.75H22.5415" stroke="#4640DE" stroke-width="2" stroke-linecap="round" stroke-linejoin="round"/>
</g>
<defs>
<clipPath id="clip0_1_2196">
<rect width="40" height="40" fill="white" transform="translate(0.666504)"/>
</clipPath>
</defs>
</svg>
