<svg width="407" height="495" viewBox="0 0 407 495" fill="none" xmlns="http://www.w3.org/2000/svg">
<path d="M307.906 477.102L406.799 475.808L307.906 475.929V477.102Z" fill="#2E2F2D"/>
<path d="M241.007 474.294C224.947 473.368 209.817 467.048 193.869 468.809C196.365 469.397 198.671 470.808 200.49 472.759C186.964 470.809 173.892 469.115 160.26 468.708C162.73 470.747 165.579 473.02 168.005 474.927C151.114 472.559 125.627 471.056 108.511 474.037" stroke="#2E2F2D" stroke-width="1.17393" stroke-miterlimit="10"/>
<path d="M80.4751 477.225C73.8999 475.807 67.1838 475.072 60.4631 474.706C53.7376 474.337 47.0004 474.419 40.2785 474.583C33.5577 474.843 26.8475 475.192 20.1432 475.586C16.7916 475.791 13.44 475.971 10.0861 476.139L5.0558 476.39L0.0207977 476.59C3.37943 476.711 6.74155 476.713 10.1037 476.714C13.4647 476.664 16.8245 476.585 20.1843 476.489C26.9015 476.281 33.6082 475.923 40.3161 475.756C47.0204 475.494 53.727 475.431 60.4267 475.605C67.1263 475.781 73.8201 476.284 80.4751 477.225Z" fill="#2E2F2D"/>
<path d="M230.737 211.52C230.397 226.083 236.014 241.993 241.096 255.422C246.122 268.704 249.881 283.141 251.915 297.194C254.309 313.728 258.137 329.882 259.245 346.59C260.518 365.778 260.575 384.894 261.381 404.103C261.88 415.996 262.918 428.354 262.297 440.226C256.105 441.51 249.443 441.881 243.286 443.261C237.266 417.696 236.998 391.594 235.115 365.516C233.746 346.556 223.898 330.679 217.444 313.025C214.811 305.824 212.2 297.272 210.067 290.693C207.652 300.62 205.834 310.484 202.911 320.316C199.633 331.339 196.83 342.481 193.944 353.626C189.755 369.802 181.28 381.421 170.14 393.502C158.545 406.078 144.052 414.978 131.064 425.956C126.539 429.78 122.253 433.95 117.917 437.94C115.609 440.063 110.595 446.167 107.455 445.672C106.641 445.544 104.838 443.406 104.203 442.871C101.006 440.179 96.6743 437.611 94.3828 434.021C91.8941 430.122 93.959 427.899 96.8129 424.38C103.111 416.616 111.164 409.97 118.053 402.704C120.832 399.772 123.5 396.852 126.331 394.025C133.96 386.409 143.592 380.06 150.295 371.688C152.103 369.43 151.849 369.427 152.72 366.841C154.179 362.509 157.02 359.576 158.828 355.59C162.986 346.422 161.235 331.915 161.924 321.99C163.454 299.933 161.309 277.875 162.404 255.828C163.038 243.056 166.642 231.705 172.917 220.539C174.048 218.525 174.805 214.587 176.086 213.09C178.547 210.214 183.77 213.515 188.118 213.391C192.734 213.259 197.645 211.233 201.92 211.127C206.877 211.004 211.841 210.284 216.687 210.348L230.737 211.52Z" fill="#A9A9A9"/>
<path d="M224.927 25.9107C225.399 28.4194 226.078 30.8976 226.951 33.3065C227.817 35.7189 228.86 38.0727 230.069 40.3407C230.667 41.4783 231.318 42.59 232.015 43.6712C232.713 44.7465 233.434 45.7713 234.036 46.8208C234.616 47.8363 235.151 49.0736 234.631 49.7873C234.535 49.9881 234.287 50.1043 234.085 50.2593C233.818 50.3414 233.583 50.4952 233.281 50.5363C232.707 50.6842 232.087 50.7136 231.471 50.7406L231.455 51.398C231.237 51.3534 231.296 51.2759 231.302 51.3381C231.317 51.3698 231.334 51.4273 231.347 51.486C231.372 51.6069 231.39 51.7408 231.403 51.8769C231.429 52.1505 231.44 52.4334 231.438 52.7175C231.437 53.2845 231.413 53.8574 231.383 54.4291C231.309 55.5725 231.202 56.7182 231.064 57.8593C230.794 60.1438 230.409 62.4142 230.033 64.6869L229.746 66.3961C229.648 67.023 229.617 67.5689 229.554 68.1371C229.438 69.2512 229.23 70.2948 228.635 70.9557C228.069 71.6342 227.107 72.051 226.08 72.3057C225.054 72.5581 223.96 72.6509 222.853 72.6649C220.61 72.672 218.39 72.51 216.269 71.9735C214.143 71.4476 212.128 70.526 210.286 69.2817C206.604 66.7636 203.601 63.2007 200.391 59.889L200.255 60.0006C201.574 61.8965 202.903 63.7841 204.382 65.5814C205.841 67.3928 207.476 69.1032 209.375 70.5507C210.318 71.2821 211.343 71.9171 212.407 72.4865C213.498 73.0019 214.625 73.4562 215.792 73.7708C218.129 74.4035 220.551 74.5773 222.907 74.4716C224.1 74.4153 225.315 74.2791 226.517 73.941C227.686 73.5982 228.972 73.0747 229.865 71.9336C230.748 70.7702 230.856 69.3944 230.919 68.2451L230.983 66.5405L231.116 64.8207L231.654 57.918L231.918 54.4631C231.961 53.8855 231.996 53.308 232.009 52.7233C232.012 52.431 232.02 52.1387 232.01 51.837C232.004 51.6856 231.993 51.533 231.969 51.3698C231.955 51.2865 231.939 51.2031 231.902 51.101C231.861 51.0341 231.84 50.804 231.471 50.7406L231.455 51.398C232.107 51.3992 232.76 51.4344 233.437 51.3322C233.773 51.317 234.116 51.1667 234.459 51.081C234.786 50.8979 235.15 50.7535 235.407 50.4072C235.977 49.7674 236.015 48.8588 235.896 48.165C235.749 47.4677 235.52 46.8149 235.239 46.2139C234.698 44.993 233.993 43.9083 233.338 42.8365C232.682 41.7682 232.042 40.6917 231.419 39.6023C230.201 37.4094 229.059 35.1684 228.016 32.8733C226.967 30.5818 226.005 28.2433 225.097 25.8638L224.927 25.9107Z" fill="#2E2F2D"/>
<path d="M224.161 19.4118C221.946 14.4966 217.897 10.6285 213.284 7.91669C208.709 5.07812 203.195 3.73749 197.749 3.98753C196.384 4.07558 195.018 4.2728 193.676 4.62146C192.335 4.99946 191.025 5.51247 189.824 6.18866C187.39 7.50346 185.257 9.26671 183.385 11.2436C179.671 15.1857 176.654 20.0035 175.796 25.5045L176.202 25.0373C174.6 25.6137 173.053 26.4237 171.858 27.654C170.689 28.8831 169.767 30.3235 169.166 31.8743C167.981 34.9817 167.562 38.2852 167.551 41.5428C167.539 44.8087 167.808 48.057 168.243 51.2841C168.694 54.5077 169.429 57.7255 170.743 60.7519C172.033 63.7818 174.115 66.5276 176.812 68.5116C179.492 70.519 182.827 71.6788 186.204 71.7704C189.569 71.8726 193.072 70.951 195.783 68.7616C197.107 67.6922 198.274 66.4631 199.262 65.052C199.743 64.3371 200.178 63.5717 200.492 62.7182C200.8 61.8718 200.999 60.901 200.81 59.8832L200.707 59.3244L200.137 59.2035C197.39 58.6212 194.618 58.3664 192.614 56.8967C191.628 56.1806 190.758 55.1839 190.211 54.1203C189.655 53.018 189.313 51.7525 189.224 50.4999C189.143 49.2509 189.297 47.9748 189.847 46.9629C190.112 46.4557 190.467 46.0132 190.92 45.695C191.352 45.3487 191.897 45.1151 192.386 45.047C193.377 44.8744 194.416 45.4567 195.257 46.3736C196.109 47.2728 196.784 48.4244 197.344 49.6089L197.736 50.4377L198.51 50.0433C200.436 49.0607 201.635 47.517 202.762 46.0237C203.865 44.5046 204.809 42.9081 205.755 41.3597C206.847 39.6986 207.172 37.6442 207.259 35.8281C207.366 33.9933 207.421 32.2077 208.166 30.637C208.882 29.0663 210.274 27.8689 211.847 27.0377C213.427 26.2007 215.171 25.6349 216.923 25.1477C218.666 24.6734 220.511 24.5126 222.266 23.8904C223.108 23.5711 224.053 23.0862 224.402 22.1506C224.738 21.2314 224.478 20.2629 224.161 19.4118ZM223.997 19.4764C224.295 20.3158 224.51 21.249 224.188 22.0696C223.868 22.8984 222.993 23.3375 222.169 23.631C220.459 24.2038 218.617 24.3306 216.824 24.7802C215.049 25.2322 213.257 25.683 211.564 26.4895C209.886 27.276 208.279 28.5016 207.377 30.2496C206.448 31.9776 206.299 33.9486 206.099 35.7295C205.916 37.5374 205.528 39.1985 204.548 40.5978C203.542 42.138 202.574 43.6629 201.483 45.0693C200.402 46.4487 199.167 47.8046 197.777 48.4432L198.942 48.8775C198.325 47.5627 197.6 46.2808 196.553 45.1562C196.027 44.6009 195.429 44.068 194.671 43.6958C193.923 43.319 193.005 43.1347 192.136 43.265C191.261 43.3918 190.492 43.7404 189.835 44.244C189.156 44.7242 188.616 45.391 188.238 46.1035C187.461 47.544 187.296 49.1299 187.381 50.6279C187.484 52.134 187.866 53.6003 188.546 54.9726C189.26 56.379 190.304 57.4883 191.556 58.3958C192.823 59.2809 194.28 59.794 195.68 60.1144C197.088 60.4384 198.459 60.6333 199.793 60.8951L199.119 60.2154C199.359 61.4163 198.703 62.8814 197.887 64.1269C197.032 65.3842 195.962 66.5476 194.775 67.5278C192.451 69.4859 189.322 70.4216 186.229 70.3957C183.128 70.3629 180.005 69.4425 177.432 67.6405C174.831 65.8691 172.776 63.331 171.436 60.4361C170.051 57.5541 169.306 54.3845 168.826 51.2008C168.347 48.0112 168.046 44.7758 168.139 41.5557C168.17 39.9463 168.301 38.3392 168.573 36.7614C168.802 35.1742 169.273 33.6364 169.886 32.1807C170.512 30.725 171.427 29.4278 172.527 28.3502C173.65 27.2748 175.067 26.6151 176.523 26.1396L176.865 26.0281L176.929 25.6712C177.385 23.1473 178.442 20.7325 179.767 18.5044C181.079 16.2622 182.673 14.1714 184.492 12.3107C186.316 10.4618 188.336 8.79831 190.551 7.50464C192.755 6.17927 195.248 5.53008 197.845 5.31408C203.022 4.83277 208.378 5.82592 213.006 8.41444C217.692 10.8116 221.786 14.6351 223.997 19.4764Z" fill="#2E2F2D"/>
<path d="M182.923 12.7629C183.295 12.001 183.4 11.1217 183.322 10.273C183.246 9.42068 183.012 8.57428 182.58 7.79479C182.137 7.04229 181.457 6.30037 180.468 6.03271C179.472 5.75567 178.436 6.12311 177.689 6.63612L178.625 6.92608C178.332 5.98106 177.903 5.09122 177.363 4.25655C176.817 3.42893 176.171 2.62948 175.284 2.02021C174.424 1.40977 173.191 1.02942 172.029 1.3229C170.869 1.60112 170.022 2.35596 169.351 3.11197L170.72 3.52754C170.618 2.7504 170.259 1.90164 169.6 1.35342C168.962 0.793451 168.176 0.517577 167.438 0.433054C165.943 0.268703 164.55 0.633798 163.288 1.22076C162.029 1.82769 160.968 2.73162 160.08 3.73298C159.183 4.73669 158.437 5.83432 157.802 7.0153C156.549 9.37608 156.19 12.2323 156.98 14.8313C157.735 17.4445 159.558 19.6773 161.802 21.2258L161.747 20.181C160.698 20.9147 159.102 20.91 157.708 20.566C157.001 20.3852 156.31 20.1293 155.689 19.783C155.072 19.4402 154.514 18.9929 154.189 18.4999L152.391 15.7787L152.637 19.0469C152.731 20.2925 153.049 21.5674 153.702 22.7073C154.35 23.8413 155.323 24.8274 156.483 25.4331C158.809 26.6834 161.493 26.7068 163.862 26.1034L162.886 24.7252C161.694 26.5554 159.473 27.8303 157.185 28.3727L155.955 28.6638L156.754 29.5595C157.68 30.5984 158.78 31.1913 159.905 31.6738C161.039 32.1363 162.213 32.4521 163.41 32.6282C164.605 32.796 165.838 32.8266 167.032 32.553C168.209 32.2971 169.398 31.6749 170.018 30.6207L169.874 30.5198C169.135 31.4073 168.029 31.8252 166.927 31.9367C165.815 32.0424 164.684 31.9191 163.587 31.6702C162.492 31.4108 161.426 31.0199 160.438 30.5127C159.463 30.0115 158.492 29.3905 157.909 28.6356L157.478 29.8225C158.806 29.5818 160.09 29.1404 161.29 28.4842C162.487 27.8326 163.6 26.924 164.408 25.716L165.662 23.8425L163.432 24.3379C161.364 24.7969 159.144 24.7241 157.376 23.7861C156.499 23.3189 155.762 22.6403 155.25 21.7928C154.733 20.9487 154.442 19.9509 154.333 18.9096L152.781 19.4566C153.373 20.2796 154.137 20.8067 154.917 21.2199C155.702 21.6261 156.528 21.909 157.379 22.0722C158.229 22.2342 159.105 22.2929 159.989 22.1884C160.864 22.0804 161.788 21.8127 162.54 21.187L163.26 20.5883L162.484 20.141C160.337 18.9025 158.509 16.9926 157.649 14.613C156.781 12.2487 157.03 9.49112 158.299 7.27826C159.547 5.07713 161.451 3.11314 163.727 2.22213C164.854 1.79834 166.118 1.60582 167.215 1.83004C167.757 1.94156 168.25 2.14817 168.576 2.4757C168.911 2.79266 169.086 3.22467 169.163 3.72946L169.417 5.3847L170.533 4.14386C171.091 3.52402 171.733 3.01454 172.405 2.83845C173.07 2.66001 173.784 2.83375 174.45 3.2681C175.791 4.15207 176.803 5.74041 177.474 7.33461L177.799 8.1094L178.41 7.62457C178.969 7.182 179.609 6.91669 180.235 7.03525C180.866 7.13973 181.453 7.63278 181.879 8.24323C182.323 8.84898 182.635 9.58269 182.8 10.3493C182.955 11.1147 182.982 11.927 182.761 12.6983L182.923 12.7629Z" fill="#2E2F2D"/>
<path d="M214.17 72.1509C213.145 73.6054 212.491 75.2172 212.027 76.836C211.566 78.4608 211.296 80.109 211.123 81.7548C210.788 85.0501 210.85 88.3359 210.995 91.6041C211.142 88.3371 211.377 85.0641 211.994 81.884C212.305 80.2968 212.713 78.7331 213.281 77.2528C213.849 75.776 214.585 74.3767 215.56 73.2321L214.17 72.1509Z" fill="#2E2F2D"/>
<path d="M189.913 70.3288C190.066 71.6096 190.31 72.8035 190.455 74.0126C190.593 75.2147 190.688 76.4368 190.364 77.6354C190.967 76.5424 191.184 75.2523 191.336 74.0114C191.482 72.7635 191.531 71.5039 191.674 70.3276L189.913 70.3288Z" fill="#2E2F2D"/>
<path d="M191.249 77.4583C189.821 76.6436 188.388 75.8383 186.978 74.9837L186.888 74.9297L186.798 75.0083C185.096 76.5168 183.801 78.4339 182.845 80.5106C182.38 81.5577 181.993 82.6542 181.797 83.8293C181.611 84.9985 181.641 86.2816 182.109 87.4638C182.545 88.6565 183.367 89.6144 184.156 90.442C184.964 91.272 185.801 91.994 186.557 92.7688C188.127 94.3606 189.812 95.8738 191.533 97.3072C194.976 100.187 198.573 102.831 202.005 105.686C205.477 108.49 209.023 111.272 213.048 113.389L213.413 113.581L213.737 113.263C215.502 111.531 216.898 109.518 218.196 107.465C219.461 105.387 220.574 103.223 221.469 100.925L221.71 100.308L221.148 99.9004C218.647 98.0879 216.223 96.1626 213.826 94.1881L206.607 88.2491C201.712 84.3552 196.567 80.7289 191.249 77.4583ZM191.157 77.6074C196.489 80.8792 200.987 85.2556 205.572 89.463C207.879 91.5608 210.23 93.6187 212.626 95.6426C215.041 97.6418 217.526 99.5776 220.143 101.341L219.821 100.317C219.04 102.499 218.004 104.627 216.852 106.672C215.706 108.721 214.394 110.688 212.876 112.437L213.565 112.311C209.533 110.555 205.833 108.019 202.351 105.255C198.858 102.488 195.512 99.5201 192.325 96.4279C190.73 94.876 189.199 93.2947 187.673 91.6758C186.101 90.0147 184.256 88.6941 183.464 86.9073C182.658 85.1288 182.989 82.8796 183.68 80.8416C184.411 78.806 185.452 76.7939 187.013 75.2443L186.835 75.269C188.288 76.0191 189.72 76.8186 191.157 77.6074Z" fill="#2E2F2D"/>
<path d="M210.721 88.8758C212.376 90.4853 214.372 91.6803 216.315 92.8684C218.259 94.0599 220.212 95.2432 221.869 96.7235C222.688 97.4666 223.423 98.2931 223.989 99.2088C224.52 100.054 224.463 101.049 224.241 102.152C224.008 103.248 223.827 104.442 223.667 105.55C223.494 106.681 223.348 107.827 223.258 108.992C223.059 111.313 223.275 113.775 223.988 116.011C224.643 118.251 225.519 120.405 226.477 122.502C228.381 126.701 230.72 130.634 232.497 134.779C234.333 138.888 235.595 143.252 235.505 147.773C235.508 152.283 234.669 156.831 234.511 161.405C234.32 165.957 233.773 170.537 234.156 175.129C234.499 179.698 234.977 184.237 235.109 188.781C235.222 193.303 234.993 197.894 233.908 202.201C233.329 204.326 232.413 206.369 230.942 207.872C229.468 209.361 227.453 210.174 225.31 210.403C223.16 210.641 220.93 210.41 218.698 210.101C217.595 209.955 216.445 209.726 215.232 209.664C214.039 209.592 212.848 209.63 211.679 209.727C209.34 209.92 207.09 210.371 204.883 210.589C202.737 210.799 200.465 210.536 198.089 210.629C195.65 210.729 193.428 211.328 191.193 211.756C188.969 212.215 186.765 212.613 184.577 212.696C182.397 212.76 180.23 212.418 178.35 211.407C177.43 210.911 176.624 210.27 176.034 209.435C175.435 208.61 175.089 207.604 174.902 206.56C174.547 204.452 174.798 202.2 175.231 200C175.454 198.901 175.693 197.775 176.002 196.714C176.32 195.637 176.701 194.552 177.006 193.431C177.305 192.312 177.567 191.142 177.497 189.929C177.423 188.725 177.087 187.594 176.677 186.512C175.832 184.353 174.665 182.349 173.256 180.538L173.115 180.643C174.409 182.51 175.452 184.56 176.154 186.696C176.493 187.763 176.749 188.87 176.752 189.951C176.748 191.028 176.486 192.115 176.15 193.182C175.816 194.253 175.398 195.31 175.028 196.409C174.657 197.529 174.38 198.629 174.105 199.758C173.58 202.004 173.184 204.365 173.544 206.787C173.728 207.984 174.111 209.209 174.832 210.259C175.537 211.316 176.542 212.152 177.614 212.757C179.752 213.975 182.235 214.413 184.607 214.395C189.373 214.38 193.84 212.678 198.159 212.445C200.346 212.362 202.646 212.647 205.057 212.433C207.397 212.214 209.638 211.781 211.848 211.558C212.953 211.451 214.049 211.404 215.136 211.454C216.207 211.492 217.308 211.695 218.468 211.834C220.754 212.116 223.111 212.344 225.509 212.05C227.886 211.769 230.349 210.786 232.062 208.952C233.762 207.126 234.694 204.824 235.26 202.554C236.328 197.967 236.324 193.323 236.071 188.741C235.827 184.155 235.121 179.626 234.774 175.088C234.6 172.82 234.54 170.549 234.659 168.281C234.783 166.002 234.968 163.727 235.12 161.451C235.253 159.169 235.489 156.916 235.793 154.65C236.098 152.387 236.399 150.108 236.487 147.794C236.752 143.146 235.61 138.463 233.841 134.211C232.035 129.948 229.825 125.936 227.879 121.853C225.995 117.758 224.177 113.538 224.607 109.086C224.671 107.973 224.817 106.853 224.939 105.721C225.066 104.563 225.188 103.494 225.388 102.348C225.472 101.77 225.556 101.161 225.5 100.511C225.46 99.8626 225.223 99.2017 224.874 98.6594C224.203 97.651 223.373 96.7881 222.476 96.0297C218.84 93.021 214.36 91.6533 210.841 88.749L210.721 88.8758Z" fill="#2E2F2D"/>
<path d="M182.77 87.8643C178.754 90.1229 174.896 92.7326 171.46 95.8658C169.754 97.4424 168.12 99.1023 166.691 100.977C165.275 102.847 164.048 104.858 163.041 106.968C161.013 111.184 159.64 115.662 158.58 120.178C157.53 124.7 156.808 129.245 156.015 133.787C155.241 138.329 154.584 142.883 153.779 147.411C152.986 151.941 152.149 156.458 150.822 160.858C150.179 163.063 149.46 165.241 148.681 167.406C147.926 169.619 147.594 171.934 146.537 173.91C145.39 175.815 143.578 177.324 142.27 179.311C141.602 180.301 141.183 181.514 141.161 182.733C141.119 183.952 141.37 185.134 141.701 186.267L141.894 185.757C140.743 186.424 139.884 187.49 139.329 188.655C138.784 189.83 138.502 191.108 138.472 192.398C138.453 193.688 138.685 195.003 139.263 196.199C139.821 197.403 140.715 198.429 141.738 199.218C143.797 200.814 146.222 201.62 148.494 202.445C150.811 203.242 153.256 204.016 155.915 203.883C157.232 203.814 158.594 203.434 159.751 202.7C160.92 201.972 161.813 200.939 162.545 199.842C163.266 198.721 163.718 197.413 163.935 196.135C164.173 194.864 164.153 193.556 164.32 192.502C164.408 191.958 164.541 191.505 164.787 191.088C165.023 190.668 165.408 190.211 165.784 189.73C166.166 189.249 166.551 188.749 166.907 188.234C167.283 187.69 167.627 187.089 167.884 186.459C168.415 185.188 168.549 183.863 168.766 182.744C168.976 181.607 169.343 180.633 169.947 179.655C170.534 178.68 171.283 177.736 171.992 176.695C172.72 175.685 173.325 174.411 173.767 173.33C174.735 171.096 175.73 168.874 176.618 166.605L182.077 153.063C183.894 148.584 185.852 144.019 186.678 139.131C187.079 136.744 187.53 134.338 187.773 131.901C187.98 129.484 188.174 126.95 187.322 124.606L187.158 124.668C187.862 126.981 187.545 129.457 187.213 131.828C186.843 134.218 186.267 136.572 185.788 138.967C184.835 143.681 182.7 148.049 180.79 152.527L175.036 165.925C174.085 168.159 173.122 170.388 172.133 172.607C171.642 173.771 171.197 174.704 170.503 175.676C169.842 176.643 169.069 177.602 168.391 178.708C167.7 179.794 167.19 181.129 166.963 182.386C166.718 183.647 166.589 184.771 166.167 185.753C165.961 186.248 165.697 186.707 165.381 187.161C165.04 187.642 164.691 188.111 164.324 188.588C163.961 189.069 163.552 189.544 163.193 190.188C162.825 190.825 162.627 191.564 162.533 192.22C162.349 193.572 162.398 194.716 162.196 195.841C162.018 196.959 161.671 197.998 161.087 198.936C160.48 199.859 159.761 200.711 158.86 201.285C157.967 201.867 156.915 202.185 155.807 202.259C153.575 202.4 151.25 201.757 148.978 201.027C146.682 200.255 144.393 199.525 142.553 198.155C140.687 196.845 139.581 194.71 139.578 192.402C139.549 190.148 140.421 187.704 142.341 186.509L142.639 186.323L142.533 185.999C142.188 184.936 141.927 183.843 141.934 182.754C141.926 181.664 142.251 180.608 142.842 179.669C144.026 177.775 145.837 176.261 147.056 174.194C148.169 172.069 148.429 169.717 149.193 167.592C150.003 165.438 150.761 163.251 151.439 161.044C152.79 156.627 153.87 152.124 154.81 147.612C155.752 143.097 156.65 138.573 157.468 134.044C159.228 125.03 160.393 115.814 164.251 107.543C165.219 105.494 166.295 103.494 167.611 101.657C168.913 99.8219 170.464 98.1303 172.086 96.5291C175.336 93.3195 179.018 90.5467 182.86 88.0169L182.77 87.8643Z" fill="#2E2F2D"/>
<path d="M175.965 209.974C175.155 212.534 173.583 214.758 172.274 217.113C171.592 218.281 171.043 219.537 170.535 220.777L168.962 224.498C167.929 226.987 166.82 229.438 165.878 231.981C164.932 234.518 164.153 237.117 163.522 239.752C162.892 242.389 162.419 245.065 162.134 247.767C161.872 250.464 161.682 253.15 161.532 255.848C161.243 261.24 161.157 266.639 161.22 272.031C161.322 282.815 161.836 293.577 161.959 304.325C162.118 315.058 161.675 325.812 160.624 336.494C160.082 341.829 159.419 347.162 158.268 352.38C157.68 354.981 156.996 357.572 155.979 360.005C155.474 361.221 154.86 362.387 154.094 363.404C153.696 363.951 153.347 364.305 152.768 364.575C152.217 364.856 151.525 365.093 150.91 365.562C150.756 365.678 150.613 365.808 150.477 365.945L150.283 366.16C150.197 366.275 150.117 366.405 150.079 366.535C149.925 367.056 150.035 367.435 150.091 367.779C150.159 368.119 150.237 368.443 150.24 368.683C150.236 368.808 150.226 368.848 150.197 368.893C150.124 369 150.031 369.096 149.93 369.19C149.517 369.564 148.873 369.805 148.264 370.256C147.686 370.738 147.242 371.177 146.736 371.649C144.779 373.517 142.898 375.449 141.035 377.397C137.299 381.279 133.646 385.238 129.849 389.039C125.926 392.759 122.567 397.014 119.082 401.101C115.624 405.218 111.822 409.019 107.993 412.804C104.176 416.598 100.323 420.379 96.8047 424.488C96.3633 425 95.9289 425.519 95.5075 426.048C95.0884 426.56 94.6306 427.102 94.2948 427.757C93.9321 428.391 93.7806 429.136 93.729 429.865C93.7102 430.603 93.8651 431.322 94.0917 432C94.6 433.336 95.3948 434.499 96.2529 435.561C97.1181 436.629 98.0162 437.616 98.933 438.626C99.864 439.618 100.841 440.589 101.968 441.421C103.082 442.251 104.416 442.939 105.891 443.071C107.359 443.228 108.818 442.844 110.082 442.243C111.354 441.644 112.506 440.828 113.588 440.057C117.986 436.946 122.369 433.793 126.578 430.394C128.683 428.695 130.743 426.938 132.74 425.108C134.745 423.287 136.644 421.336 138.588 419.498L144.383 413.9C146.329 412.054 148.199 410.11 150.222 408.364C158.228 401.264 167.164 395.135 174.948 387.519C176.899 385.619 178.762 383.657 180.515 381.531C182.266 379.396 183.734 377.046 185.016 374.622C187.559 369.745 189.23 364.558 191.02 359.503C192.807 354.452 194.825 349.475 196.871 344.499C198.889 339.525 201.084 334.564 202.691 329.368C204.344 324.204 205.639 318.949 206.842 313.693C208.022 308.432 209.38 303.249 210.641 298.02L211.605 294.106L212.673 290.205L214.763 282.406C216.174 277.218 217.674 272.056 219.559 267.035C221.486 262.036 223.67 257.084 225.33 251.942C226.999 246.818 228.155 241.441 227.947 236.03L227.771 236.034C227.851 241.421 226.579 246.716 224.806 251.765C223.039 256.838 220.733 261.694 218.748 266.724C216.783 271.763 215.21 276.936 213.731 282.118L211.543 289.893L210.43 293.768L209.413 297.683C208.084 302.906 206.647 308.124 205.405 313.355C204.14 318.579 202.79 323.774 201.095 328.847C199.435 333.92 197.26 338.823 195.225 343.819C193.166 348.796 191.125 353.796 189.309 358.895C187.5 363.975 185.836 369.078 183.379 373.761C182.14 376.09 180.736 378.327 179.067 380.354C177.388 382.374 175.564 384.348 173.663 386.208C166.076 393.725 157.194 399.895 149.123 407.126C147.078 408.912 145.222 410.863 143.274 412.733L137.498 418.405C135.554 420.291 133.718 422.221 131.759 424.045C129.807 425.876 127.791 427.639 125.726 429.347C121.596 432.764 117.271 435.956 112.917 439.115C111.819 439.918 110.769 440.675 109.61 441.239C108.462 441.801 107.219 442.13 105.997 442.015C104.77 441.923 103.605 441.357 102.562 440.599C101.512 439.844 100.557 438.922 99.635 437.964C97.8507 435.995 95.8562 434.076 94.8994 431.703C94.694 431.109 94.5554 430.497 94.5625 429.886C94.6035 429.281 94.7092 428.67 95.0156 428.124C95.2845 427.574 95.6918 427.07 96.1179 426.538C96.5288 426.008 96.9514 425.489 97.3823 424.976C100.807 420.848 104.621 417.046 108.429 413.243C112.237 409.442 116.044 405.602 119.494 401.453C122.963 397.328 126.361 393.16 130.276 389.473C134.117 385.684 137.782 381.738 141.554 377.902C143.444 375.988 145.349 374.091 147.317 372.273C147.799 371.834 148.329 371.341 148.789 370.967C149.261 370.613 149.919 370.392 150.531 369.88C150.68 369.749 150.823 369.602 150.944 369.435C151.118 369.205 151.171 368.9 151.17 368.691C151.166 368.255 151.074 367.922 151.019 367.602C150.958 367.293 150.932 366.978 150.986 366.85C150.995 366.814 151.011 366.807 151.02 366.783L151.167 366.626C151.27 366.526 151.377 366.431 151.495 366.347C151.958 365.998 152.562 365.794 153.215 365.483C153.539 365.325 153.874 365.13 154.174 364.872C154.491 364.605 154.677 364.324 154.911 364.05C155.782 362.933 156.446 361.704 156.993 360.444C158.091 357.921 158.826 355.293 159.465 352.657C160.705 347.374 161.483 342.013 162.071 336.645C162.64 331.273 163.02 325.887 163.274 320.495C163.543 315.109 163.625 309.693 163.5 304.303C163.311 293.518 162.733 282.764 162.567 272.014C162.494 266.64 162.479 261.267 162.69 255.901C162.801 253.221 162.951 250.533 163.169 247.869C163.41 245.211 163.836 242.568 164.42 239.96C164.997 237.349 165.751 234.778 166.611 232.242C167.478 229.714 168.527 227.226 169.496 224.718L170.974 220.962C171.456 219.699 171.956 218.471 172.604 217.294C173.843 214.925 175.374 212.646 176.133 210.023L175.965 209.974Z" fill="#2E2F2D"/>
<path d="M230.614 207.786C230.544 212.731 230.439 217.682 230.78 222.64C231.108 227.593 232.036 232.546 233.753 237.241C234.602 239.603 235.654 241.851 236.594 244.117C237.526 246.398 238.415 248.697 239.26 251.012C240.939 255.645 242.477 260.331 243.862 265.066C246.663 274.529 248.873 284.159 251.184 293.772C253.54 303.365 255.393 313.051 256.833 322.822C258.218 332.59 259.249 342.436 259.266 352.314C259.303 357.277 259.671 362.22 260.123 367.147L261.499 381.921C261.936 386.844 262.31 391.772 262.354 396.705L262.517 411.539C262.595 421.424 262.53 431.31 261.946 441.159L262.525 440.497C259.195 441.085 255.753 441.182 252.297 441.366C248.843 441.568 245.325 441.793 241.865 442.753L242.919 443.5C242.562 437.025 242.07 430.533 241.11 424.086C240.636 420.862 240.045 417.652 239.32 414.471C238.589 411.327 238.007 408.206 237.611 405.009C236.799 398.636 236.493 392.182 236.248 385.721L235.887 376.01C235.701 372.761 235.688 369.6 235.64 366.328C235.608 364.701 235.554 363.065 235.418 361.423C235.341 360.603 235.262 359.781 235.13 358.959C235.032 358.099 234.72 357.223 234.488 356.499C234.371 356.125 234.27 355.767 234.203 355.412C234.159 355.171 234.167 355.237 234.183 355.106C234.203 355.006 234.258 354.863 234.333 354.704C234.474 354.368 234.74 354.037 234.862 353.369C234.888 353.215 234.879 352.962 234.847 352.835C234.824 352.695 234.784 352.558 234.734 352.421C234.634 352.149 234.482 351.902 234.325 351.702C234.004 351.301 233.706 351.054 233.572 350.831C233.5 350.718 233.46 350.626 233.423 350.496L233.279 349.908L232.681 347.537C232.273 345.947 231.638 344.307 230.707 342.902C230.252 342.194 229.756 341.526 229.238 340.885C228.732 340.257 228.319 339.65 227.912 338.965C226.355 336.219 225.217 333.177 224.112 330.155C223.003 327.12 222.04 324.037 220.84 320.992C219.612 317.98 218.277 315.026 216.958 312.074C214.343 306.19 211.811 300.136 211.269 293.665L211.093 293.676C211.446 300.202 213.826 306.396 216.273 312.367C217.505 315.366 218.823 318.322 219.983 321.33C221.111 324.328 222.034 327.446 223.098 330.511C224.169 333.578 225.254 336.653 226.847 339.574C227.253 340.29 227.743 341.028 228.245 341.668C228.736 342.294 229.195 342.936 229.606 343.597C230.443 344.913 230.971 346.34 231.349 347.888L231.901 350.236L232.037 350.829C232.098 351.093 232.216 351.378 232.363 351.605C232.664 352.07 233.002 352.348 233.173 352.588C233.264 352.708 233.321 352.814 233.36 352.922C233.377 352.977 233.394 353.032 233.402 353.093C233.415 353.164 233.404 353.115 233.403 353.161C233.392 353.3 233.19 353.66 232.989 354.052C232.889 354.258 232.782 354.489 232.714 354.784C232.631 355.048 232.672 355.526 232.714 355.681C232.79 356.122 232.904 356.545 233.023 356.946C233.269 357.764 233.501 358.429 233.576 359.184C233.689 359.963 233.753 360.755 233.814 361.547C233.921 363.134 233.949 364.736 233.955 366.347L233.949 371.206C233.961 372.838 234.045 374.483 234.112 376.085L234.446 385.787C234.675 392.265 234.965 398.764 235.771 405.244C236.171 408.473 236.74 411.733 237.509 414.889C238.245 418.016 238.848 421.175 239.339 424.356C240.331 430.715 240.865 437.148 241.265 443.599L241.328 444.629L242.319 444.345C245.529 443.426 248.958 443.171 252.387 442.945C255.822 442.708 259.311 442.564 262.784 441.899L263.34 441.792L263.364 441.236C263.801 431.326 263.718 421.417 263.491 411.526L263.092 396.692C262.948 391.734 262.564 386.792 262.095 381.867C261.162 372.023 259.933 362.184 259.926 352.315C259.979 342.403 259.236 332.498 258.005 322.666C257.386 317.75 256.655 312.845 255.775 307.965C254.887 303.092 253.824 298.227 252.686 293.421C250.47 283.781 248.06 274.165 245.21 264.666C243.769 259.922 242.225 255.204 240.447 250.57C239.552 248.255 238.616 245.958 237.634 243.678C236.636 241.395 235.549 239.176 234.684 236.897C232.925 232.325 231.918 227.485 231.415 222.587C230.923 217.684 230.871 212.732 230.788 207.788H230.614V207.786Z" fill="#2E2F2D"/>
<path d="M141.087 197.759C140.81 199.501 140.045 201.101 139.211 202.645C138.375 204.195 137.454 205.707 136.633 207.322C135.097 210.58 133.754 213.839 132.5 217.21L125.474 237.276C123.107 243.851 118.997 249.693 115.512 255.917C113.759 259.022 112.298 262.307 111.241 265.73C110.714 267.457 110.269 269.234 110.587 271.212C110.837 272.16 111.133 273.081 112.058 273.865C112.3 274.05 112.642 274.223 113.053 274.225C113.462 274.23 113.838 274.05 114.087 273.849C114.589 273.433 114.843 272.972 115.06 272.522L113.663 272.276C113.691 272.776 113.878 273.344 114.284 273.766C114.684 274.193 115.24 274.407 115.759 274.457C116.806 274.553 117.818 274.053 118.414 273.215L116.999 272.933C117.085 273.28 117.19 273.649 117.451 274.03C117.699 274.417 118.212 274.742 118.671 274.809C119.13 274.888 119.497 274.826 119.826 274.768C120.154 274.706 120.445 274.627 120.72 274.561L119.778 273.735C119.728 274.358 119.371 275.08 119.071 275.933C118.925 276.361 118.797 276.852 118.804 277.401C118.806 277.949 118.997 278.521 119.297 278.958C119.597 279.4 119.931 279.736 120.407 280.031C120.875 280.313 121.485 280.453 122.03 280.37C123.124 280.185 123.855 279.557 124.495 278.966C125.769 277.736 126.657 276.328 127.746 275.093C128.803 273.786 129.809 272.428 130.619 270.958L130.473 270.861C129.451 272.176 128.363 273.424 127.183 274.583C125.946 275.735 124.961 277.125 123.741 278.124C123.15 278.623 122.468 279.04 121.886 279.078C121.601 279.092 121.359 279.028 121.118 278.876C120.887 278.729 120.627 278.451 120.477 278.194C120.157 277.688 120.212 277.155 120.484 276.429C120.731 275.715 121.183 274.936 121.312 273.886L121.445 272.81L120.371 273.06C119.796 273.194 119.219 273.325 118.957 273.262C118.838 273.227 118.822 273.213 118.741 273.115C118.666 273.013 118.591 272.814 118.537 272.594L118.106 270.858L117.123 272.312C116.856 272.705 116.347 272.944 115.894 272.913C115.431 272.877 115.188 272.659 115.121 272.171L114.76 269.501L113.724 271.925C113.574 272.276 113.39 272.619 113.212 272.781C113.027 272.912 113.067 272.945 112.8 272.816C112.312 272.495 111.869 271.679 111.65 270.942C111.434 270.227 111.45 269.315 111.496 268.479C111.559 267.626 111.717 266.771 111.921 265.919C112.74 262.486 114.236 259.256 116.057 256.231C117.866 253.194 120.001 250.36 121.971 247.38C123.94 244.407 125.717 241.239 127.039 237.876C128.302 234.515 129.564 231.24 130.761 227.878C131.963 224.532 133.045 221.115 134.061 217.74C135.115 214.399 136.419 211.065 137.644 207.786C138.313 206.179 139.159 204.606 139.861 202.956C140.545 201.312 141.211 199.586 141.262 197.772L141.087 197.759Z" fill="#2E2F2D"/>
<path d="M115.107 273.169C115.303 271.435 115.329 269.801 115.548 268.168C115.779 266.562 116.103 264.898 117.176 263.592C116.529 264.126 116.035 264.846 115.642 265.601C115.249 266.36 114.948 267.165 114.69 267.976C114.173 269.593 113.841 271.277 113.383 272.809L115.107 273.169Z" fill="#2E2F2D"/>
<path d="M121.046 274.267C121.424 273.14 121.899 271.994 122.307 270.833C122.711 269.672 123.102 268.479 123.212 267.254C122.909 268.442 122.347 269.525 121.772 270.594C121.189 271.664 120.552 272.694 119.965 273.811L121.046 274.267Z" fill="#2E2F2D"/>
<path d="M118.348 273.26C118.321 272.146 118.372 271.043 118.604 269.953C118.864 268.857 119.066 267.727 119.715 266.781C118.906 267.61 118.489 268.738 118.043 269.783C117.606 270.867 117.348 272.033 117.178 273.183L118.348 273.26Z" fill="#2E2F2D"/>
<path d="M129.718 276.215C131.759 273.54 134.17 271.174 135.789 268.05C136.538 266.404 136.664 264.604 136.617 262.892C136.564 261.166 136.244 259.488 136.012 257.834C135.49 254.59 135.747 251.189 136.546 247.938C137.314 244.671 138.516 241.508 140.104 238.567C141.688 235.619 143.571 232.86 145.52 230.127C147.482 227.402 149.5 224.678 151.231 221.751C152.964 218.822 154.47 215.775 155.54 212.51C156.543 209.235 156.944 205.867 157.366 202.528L157.25 202.507C156.488 205.789 155.851 209.108 154.699 212.226C153.567 215.33 151.889 218.268 150.174 221.111C148.421 223.95 146.5 226.696 144.601 229.486C142.694 232.268 140.896 235.174 139.495 238.267C138.07 241.35 137.025 244.579 136.161 247.843C135.337 251.108 134.687 254.507 135.052 257.961C135.268 259.642 135.491 261.295 135.58 262.936C135.67 264.568 135.58 266.228 134.962 267.681C133.6 270.631 131.311 273.232 129.619 276.149L129.718 276.215Z" fill="#2E2F2D"/>
<path d="M244.896 442.62C244.433 446.183 244.632 449.806 244.978 453.356C245.252 456.931 245.812 460.415 246.089 463.988C246.188 464.876 246.336 465.84 246.876 466.643C247.421 467.438 248.238 467.939 249.049 468.325C250.663 469.158 252.509 469.529 254.346 469.428C256.181 469.273 257.963 468.65 259.549 467.754C261.157 466.879 262.604 465.783 264.018 464.683L264.428 464.364L264.13 463.917C262.811 461.941 263.463 458.732 265.524 457.644L266.097 457.341L265.773 456.788C264.494 454.601 263.755 452.082 263.355 449.507C262.918 446.932 262.78 444.289 262.582 441.646H262.465C262.288 444.29 262.216 446.95 262.466 449.623C262.754 452.276 263.333 454.992 264.707 457.404L264.956 456.55C263.517 457.264 262.633 458.73 262.341 460.197C262.058 461.677 262.302 463.287 263.2 464.563L263.31 463.797C261.934 464.916 260.567 466.036 259.084 466.954C257.611 467.878 256.014 468.628 254.291 468.872C252.57 469.112 250.789 468.768 249.207 468.006C248.428 467.617 247.662 467.137 247.234 466.413C246.788 465.7 246.727 464.816 246.701 463.944C246.735 460.38 246.458 456.768 245.949 453.251C245.533 449.711 245.079 446.198 245.017 442.626L244.896 442.62Z" fill="#2E2F2D"/>
<path d="M245.534 460.457C244.447 460.546 243.242 460.916 242.561 461.901C241.891 462.865 241.728 464.047 241.66 465.154C241.521 467.396 241.921 469.6 241.177 471.654C240.567 473.862 240.669 476.162 240.664 478.333C240.656 479.416 240.566 480.517 240.568 481.65C240.561 482.774 240.702 483.96 241.008 485.043C241.147 485.582 241.292 486.135 241.507 486.685C241.743 487.226 241.957 487.817 242.628 488.288C243.968 488.919 245.043 488.629 246.06 488.883C247.133 489.062 248.237 489.3 249.391 489.363C250.55 489.402 251.623 489.365 252.742 489.349C257.173 489.201 261.579 488.841 265.984 488.538C268.188 488.41 270.391 488.221 272.58 488.331C274.776 488.427 276.959 488.757 279.142 489.088C283.51 489.851 287.963 489.884 292.378 490.137C296.751 490.208 301.256 490.761 305.704 489.557C310.167 489.397 314.523 482.234 309.039 479.285L309.662 479.873C309.599 478.715 309.282 477.532 308.581 476.564C307.861 475.629 306.932 474.933 305.962 474.391C303.998 473.355 301.908 472.799 299.872 472.261C298.849 471.996 297.839 471.73 296.854 471.43C295.872 471.129 294.997 470.715 294.053 470.217C292.195 469.271 290.385 468.22 288.599 467.12C285.014 464.943 281.59 462.462 277.8 460.51C275.909 459.552 273.913 458.717 271.824 458.31L265.589 457.207L265.567 457.322L271.716 458.74C273.74 459.261 275.652 460.109 277.475 461.124C281.105 463.184 284.477 465.732 288.044 468.002C289.821 469.149 291.63 470.261 293.51 471.26C294.424 471.75 295.459 472.246 296.493 472.564C297.52 472.884 298.548 473.158 299.563 473.427C301.588 473.967 303.601 474.53 305.368 475.473C306.235 475.96 307 476.568 307.58 477.3C308.134 478.052 308.382 478.956 308.459 479.9L308.507 480.504L309.081 480.488C309.536 480.475 309.835 480.578 310.007 480.858C310.202 481.14 310.287 481.628 310.293 482.126C310.309 483.14 310.088 484.223 309.99 485.356C309.964 485.626 309.938 485.9 309.892 486.101C309.842 486.31 309.801 486.373 309.652 486.517C309.315 486.799 308.825 487.1 308.372 487.34C307.435 487.837 306.427 488.249 305.412 488.567C301.279 489.784 296.795 489.376 292.379 489.453C287.976 489.331 283.557 489.447 279.199 488.701C277.012 488.404 274.819 488.083 272.602 487.937C270.376 487.783 268.164 487.98 265.958 488.026C261.54 488.173 257.129 488.383 252.726 488.383C251.637 488.387 250.501 488.41 249.452 488.363C248.398 488.295 247.338 488.059 246.237 487.86C245.974 487.814 245.672 487.755 245.373 487.732L244.544 487.669C244.029 487.63 243.456 487.566 243.167 487.401C242.908 487.246 242.633 486.772 242.45 486.311C242.257 485.834 242.112 485.32 241.968 484.79C241.313 482.74 241.56 480.59 241.568 478.335C241.56 476.107 241.366 473.927 241.883 471.831C242 471.335 242.179 470.736 242.216 470.167C242.284 469.594 242.277 469.029 242.264 468.472C242.24 467.354 242.145 466.258 242.145 465.169C242.154 464.093 242.261 462.982 242.822 462.082C243.387 461.172 244.474 460.737 245.544 460.575L245.534 460.457Z" fill="#2E2F2D"/>
<path d="M93.9001 431.764C91.9162 435.028 88.4707 436.875 86.2214 440.192C85.6955 441.039 85.2881 441.948 85.0533 442.938C84.8596 443.952 85.0087 444.956 85.2682 445.887C85.8117 447.75 86.7121 449.496 88.0939 450.935C89.5049 452.378 91.5229 453.082 93.4493 453.34C94.3685 453.497 95.5413 453.552 96.5485 453.158C97.5781 452.786 98.3963 452.069 99.0666 451.343C100.386 449.839 101.366 448.297 102.679 446.941C103.943 445.559 105.324 444.275 106.866 443.16L106.807 443.057C105.052 443.846 103.468 444.997 102.031 446.289C101.318 446.944 100.643 447.64 99.9975 448.365C99.353 449.083 98.7837 449.843 98.1497 450.488C97.5358 451.154 96.8619 451.703 96.1059 452.016C95.3335 452.34 94.5352 452.357 93.5832 452.243C91.7612 452.058 89.9533 451.602 88.5211 450.456C87.1265 449.296 86.0794 447.591 85.6356 445.793C85.4196 444.892 85.4067 443.934 85.6849 443.101C85.9902 442.267 86.4691 441.468 87.022 440.749C88.1337 439.298 89.492 438.001 90.8045 436.603C92.0993 435.21 93.3754 433.651 94.0058 431.813L93.9001 431.764Z" fill="#2E2F2D"/>
<path d="M88.1125 438.563C87.0302 438.228 85.8868 438.026 84.7328 438.091C83.5812 438.162 82.4471 438.479 81.4012 438.957C80.3317 439.404 79.4008 440.084 78.4076 440.552C77.4063 441.04 76.3591 441.457 75.3214 441.936C74.2848 442.433 73.2529 442.932 72.3337 443.779C71.9005 444.209 71.5624 444.676 71.1997 445.019C70.8545 445.353 70.3979 445.562 69.8731 445.79C69.346 446.012 68.7474 446.357 68.3283 446.844C67.9033 447.329 67.6098 447.832 67.3457 448.383C66.8303 449.479 66.6014 450.683 66.5779 451.862C66.5509 453.044 66.6976 454.214 66.9536 455.34L67.368 457.016C67.5194 457.572 67.7296 458.108 67.908 458.654C68.6934 460.812 69.6736 462.893 70.8346 464.858C73.1789 468.782 76.0375 472.325 78.957 475.776C81.9036 479.217 84.7657 482.679 87.5643 486.253C89.027 487.987 90.6459 489.605 92.4761 490.975C94.2957 492.354 96.4076 493.388 98.6275 493.969C103.087 495.139 107.69 495.146 112.247 494.804C114.527 494.553 116.861 494.026 118.895 492.723C119.023 492.632 119.138 492.569 119.277 492.457C119.419 492.339 119.561 492.214 119.658 492.089C119.884 491.839 120.054 491.582 120.211 491.316C120.526 490.787 120.774 490.235 120.958 489.646C121.12 489.05 121.298 488.438 121.097 487.647C121.007 487.25 120.652 486.812 120.195 486.644C119.991 486.591 119.768 486.551 119.575 486.55L119.035 486.609L119.755 487.244C119.943 484.788 118.966 482.53 117.713 480.629C116.435 478.719 114.773 477.057 112.797 475.853C111.834 475.249 110.721 474.776 109.752 474.367C108.808 473.973 108.17 473.302 107.817 472.364C107.115 470.485 107.243 468.206 107.331 466.038C107.443 463.839 107.646 461.618 107.582 459.364C107.548 458.239 107.438 457.099 107.14 455.981C106.852 454.869 106.303 453.768 105.437 452.942C103.623 451.301 101.012 451.195 98.8834 451.824C96.7104 452.453 94.7558 453.652 93.1323 455.167L93.2109 455.254C94.8908 453.835 96.8806 452.757 98.9937 452.26C100.049 452.032 101.141 451.927 102.184 452.115C103.221 452.303 104.231 452.714 104.948 453.449C106.413 454.946 106.634 457.254 106.67 459.383C106.686 461.56 106.441 463.754 106.28 465.972C106.2 467.083 106.136 468.203 106.158 469.342C106.196 470.476 106.265 471.648 106.721 472.799C106.938 473.374 107.265 473.928 107.705 474.394C108.15 474.867 108.719 475.21 109.25 475.452C110.316 475.91 111.247 476.31 112.163 476.885C113.968 477.993 115.506 479.544 116.679 481.315C117.822 483.079 118.713 485.127 118.566 487.141L118.514 487.84L119.285 487.777C119.386 487.769 119.486 487.756 119.587 487.741C119.673 487.743 119.732 487.762 119.802 487.763C119.869 487.815 119.927 487.82 119.972 487.984C120.076 488.292 119.995 488.844 119.853 489.32C119.536 490.279 119.061 491.335 118.281 491.798C116.506 492.975 114.309 493.509 112.129 493.799C109.939 494.053 107.659 494.112 105.432 494.081C103.196 494.042 100.958 493.849 98.7906 493.333C96.62 492.831 94.5739 491.895 92.7519 490.596C90.9218 489.308 89.3264 487.703 87.8543 486.007C86.3833 484.309 85.0639 482.461 83.6305 480.712C82.2147 478.949 80.7579 477.221 79.3632 475.445C76.5669 471.905 73.8551 468.287 71.674 464.378C70.5552 462.441 69.6254 460.406 68.8882 458.312C68.1886 456.217 67.5441 454.042 67.5652 451.883C67.5723 450.806 67.7659 449.74 68.2015 448.782C68.4151 448.313 68.698 447.829 69.015 447.462C69.3367 447.085 69.7346 446.842 70.2406 446.615C70.7419 446.388 71.3382 446.121 71.8055 445.656C72.2539 445.21 72.5603 444.738 72.9219 444.365C73.6438 443.649 74.651 443.09 75.6325 442.591C76.6303 442.091 77.6716 441.639 78.6859 441.105C79.7236 440.575 80.61 439.877 81.6066 439.396C82.5916 438.886 83.6528 438.533 84.7551 438.41C85.8586 438.298 86.9844 438.415 88.0785 438.678L88.1125 438.563Z" fill="#2E2F2D"/>
<path d="M69.9438 445.54C70.2819 451.565 72.6074 457.176 75.3803 462.337C78.1883 467.52 81.5728 472.329 84.9619 477.101C86.6594 479.49 88.4297 481.845 90.4336 484.004C92.4469 486.142 94.7232 488.102 97.4079 489.365C98.7544 489.961 100.167 490.46 101.641 490.604C103.101 490.805 104.577 490.782 106.041 490.713C108.972 490.545 111.859 490.029 114.774 489.76C111.854 489.981 108.956 490.449 106.034 490.566C103.126 490.698 100.139 490.429 97.5347 489.1C94.9216 487.817 92.7122 485.852 90.7576 483.706C88.8124 481.538 87.0949 479.173 85.4432 476.764C82.1362 471.94 78.8469 467.091 76.1586 461.925C73.4996 456.783 71.3384 451.237 71.1177 445.496L69.9438 445.54Z" fill="#2E2F2D"/>
<path d="M240.658 480.262C245.914 482.055 251.459 482.419 256.885 482.424C262.325 482.453 267.75 481.988 273.135 482.298C278.53 482.612 283.903 483.484 289.333 483.768C292.046 483.905 294.773 483.889 297.474 483.586C300.193 483.351 302.783 482.459 305.464 482.052C302.774 482.412 300.166 483.257 297.46 483.441C294.765 483.693 292.051 483.661 289.352 483.476C283.949 483.095 278.605 482.127 273.175 481.713C267.727 481.302 262.298 481.671 256.894 481.544C251.508 481.445 246.07 480.973 241.054 479.156L240.658 480.262Z" fill="#2E2F2D"/>
<path d="M241.896 467.672C242.217 468.653 242.899 469.494 243.675 470.189C244.473 470.868 245.388 471.396 246.335 471.829C248.236 472.691 250.326 473.118 252.403 473.202C254.48 473.277 256.569 473.072 258.572 472.536C260.656 472.011 262.315 470.726 264.018 469.625C262.132 470.416 260.372 471.539 258.422 471.876C256.447 472.242 254.439 472.415 252.44 472.323C250.442 472.264 248.471 471.883 246.591 471.206C245.654 470.865 244.75 470.428 243.939 469.851C243.111 469.296 242.398 468.568 241.896 467.672Z" fill="#2E2F2D"/>
<path d="M263.463 464.592C266.472 465.413 269.501 465.952 272.278 467.168C275.061 468.378 277.614 470.128 280.241 471.757C280.899 472.163 281.56 472.567 282.236 472.949C282.961 473.366 283.731 473.521 284.471 473.738C285.945 474.153 287.488 474.488 288.711 475.357C289.314 475.787 289.671 476.513 289.456 477.237C289.303 477.961 288.732 478.541 288.261 479.138C287.746 479.717 287.336 480.397 287.029 481.103C286.707 481.807 286.44 482.537 286.268 483.289C286.464 482.543 286.752 481.824 287.095 481.135C287.426 480.435 287.839 479.796 288.372 479.233C288.858 478.649 289.463 478.095 289.668 477.292C289.72 477.096 289.781 476.901 289.751 476.691L289.734 476.381L289.63 476.087C289.49 475.693 289.192 475.39 288.892 475.128C287.605 474.156 286.052 473.783 284.591 473.316C283.863 473.081 283.103 472.891 282.496 472.508C281.841 472.109 281.197 471.687 280.556 471.264C277.995 469.564 275.487 467.717 272.639 466.367C269.781 465.009 266.698 464.363 263.789 463.466L263.463 464.592Z" fill="#2E2F2D"/>
<path d="M268.442 466.242C270.535 464.137 272.895 461.093 273.256 458.044" stroke="#2E2F2D" stroke-width="2.34787" stroke-miterlimit="10" stroke-linecap="round"/>
<path d="M272.736 469.103C275.084 466.361 277.766 463.736 278.852 460.254" stroke="#2E2F2D" stroke-width="2.34787" stroke-miterlimit="10" stroke-linecap="round"/>
<path d="M278.462 471.576C281.111 470.006 283.085 466.261 284.318 463.508" stroke="#2E2F2D" stroke-width="2.34787" stroke-miterlimit="10" stroke-linecap="round"/>
<path d="M283.538 474.048C285.97 472.205 287.476 469.153 289.003 466.761" stroke="#2E2F2D" stroke-width="2.34787" stroke-miterlimit="10" stroke-linecap="round"/>
<path d="M94.9278 454.235C93.9828 455.369 93.5931 456.958 93.7962 458.464C94.0075 459.974 94.6379 461.363 95.2988 462.678C96.6065 465.301 98.4144 467.71 98.7196 470.433C98.9028 471.827 98.8886 473.237 98.5329 474.551C98.2019 475.876 97.4588 477.058 96.4962 478.065C95.5371 479.082 94.3244 479.875 93.0918 480.631C91.8721 481.414 90.5737 482.073 89.2671 482.733C92.0529 481.844 94.8034 480.708 97.1242 478.714C98.2735 477.715 99.1563 476.348 99.6024 474.854C100.044 473.354 100.06 471.786 99.8841 470.292C99.6975 468.739 99.0718 467.289 98.358 465.997C97.6279 464.699 96.8401 463.471 96.0841 462.243C95.3434 461.011 94.666 459.739 94.3596 458.368C94.2493 458.03 94.2563 457.679 94.1976 457.329C94.1718 456.979 94.2223 456.629 94.2305 456.272C94.3068 455.928 94.3948 455.581 94.4876 455.233L94.9278 454.235Z" fill="#2E2F2D"/>
<path d="M81.851 439.011C81.1361 440.08 80.5456 441.271 80.3108 442.602C80.0807 443.946 80.1558 445.255 80.4904 446.593C80.8602 447.917 81.5822 449.084 82.3816 450.087C83.1764 451.103 84.0052 452.025 84.7788 453.064C84.4454 451.807 83.7751 450.659 83.14 449.574C82.5061 448.483 81.9191 447.422 81.6209 446.281C81.3134 445.161 81.1819 443.888 81.2171 442.705C81.2617 441.499 81.5786 440.277 81.851 439.011Z" fill="#2E2F2D"/>
<path d="M93.0421 460.742C95.9112 461.582 99.9049 460.739 102.741 460.076C104.117 459.754 106.175 459.154 107.226 458.268" stroke="#2E2F2D" stroke-width="2.34787" stroke-miterlimit="10" stroke-linecap="round"/>
<path d="M95.6445 466.468C99.6323 466.469 104.445 465.677 107.747 463.215" stroke="#2E2F2D" stroke-width="2.34787" stroke-miterlimit="10" stroke-linecap="round"/>
<path d="M97.3363 471.673C101.788 471.674 105.244 470.042 109.178 468.42" stroke="#2E2F2D" stroke-width="2.34787" stroke-miterlimit="10" stroke-linecap="round"/>
<path d="M96.686 475.707C100.986 475.754 105.459 473.612 109.308 471.804" stroke="#2E2F2D" stroke-width="2.34787" stroke-miterlimit="10" stroke-linecap="round"/>
<path d="M126.643 275.123C125.401 277.354 124.533 279.767 123.698 282.128C122.854 284.488 122.053 286.825 121.001 289.008L117.741 295.718C116.635 297.964 115.368 300.138 113.825 302.106L113.623 302.364L113.866 302.59C115.019 303.667 116.351 304.525 117.794 305.185C119.243 305.823 120.821 306.251 122.486 306.286L122.971 306.297L123.221 305.751C124.403 303.172 125.461 300.54 126.499 297.886C127.541 295.236 128.522 292.54 129.241 289.757C129.995 286.985 130.528 284.141 130.826 281.275C131.112 278.409 131.117 275.511 130.763 272.67C130.754 272.606 130.696 272.56 130.631 272.567C130.576 272.574 130.535 272.618 130.529 272.67C130.173 275.497 129.687 278.265 129.072 280.994C128.471 283.725 127.7 286.407 126.889 289.082L124.325 297.102C123.44 299.78 122.475 302.443 121.674 305.173L122.409 304.637C121.032 304.806 119.562 304.635 118.171 304.199C116.776 303.773 115.44 303.055 114.362 302.062L114.403 302.546L118.898 296.414C120.377 294.329 121.777 292.257 122.909 289.907C124.016 287.541 124.722 285.057 125.291 282.595C125.867 280.13 126.323 277.682 126.864 275.207C126.878 275.144 126.838 275.081 126.774 275.066C126.721 275.052 126.668 275.078 126.643 275.123Z" fill="#2E2F2D"/>
<path d="M113.732 258.234C110.836 258.933 108.142 260.374 105.703 262.098C103.277 263.853 101.064 265.911 99.1956 268.239C97.3337 270.58 95.8757 273.201 94.5186 275.819C93.1439 278.433 91.8503 281.07 90.7186 283.821L90.6094 284.087L90.8395 284.358C91.7951 285.485 92.7014 286.702 93.7696 287.838C94.8438 288.951 96.0788 290.089 97.8901 290.587L99.0922 290.917L99.1615 289.586C99.2848 287.215 99.772 284.862 100.531 282.601L101.114 280.908L101.784 279.244L102.505 277.595L103.31 275.981C105.53 271.699 108.439 267.755 111.927 264.201C111.973 264.155 111.973 264.08 111.927 264.033C111.888 263.994 111.827 263.988 111.782 264.015C107.472 266.623 103.905 270.461 101.257 274.832L100.326 276.514L99.4796 278.246C98.9772 279.43 98.5299 280.639 98.1543 281.874C97.4628 284.361 97.0566 286.942 97.0672 289.54L98.3386 288.54C97.2046 288.333 96.0036 287.523 94.8919 286.631C93.7649 285.726 92.7143 284.666 91.6084 283.621L91.7281 284.158C92.4712 281.366 93.6968 278.692 95.2711 276.258C96.8676 273.829 98.8058 271.66 100.739 269.552C102.664 267.431 104.637 265.364 106.806 263.499C108.96 261.613 111.284 259.936 113.819 258.451C113.876 258.418 113.896 258.346 113.864 258.289C113.837 258.243 113.783 258.222 113.732 258.234Z" fill="#2E2F2D"/>
<path d="M91.3716 283.017C88.7596 282.11 86.4387 280.573 84.328 278.826C82.2137 277.068 80.3014 275.077 78.3703 273.086C76.4227 271.112 74.4599 269.117 72.2506 267.345C70.0506 265.583 67.5478 264.037 64.7104 263.268L64.2678 263.148L63.9238 263.491C59.4887 267.915 55.4445 272.704 51.5565 277.597C47.6942 282.511 43.9799 287.54 40.5203 292.734C38.77 295.333 37.0936 297.916 35.2681 300.411C33.4415 302.907 31.5973 305.402 29.7108 307.874C25.9483 312.823 22.1096 317.76 18.6958 323.007L18.4539 323.379L18.7427 323.691C31.2556 337.127 46.039 348.068 61.1381 358.327C64.9287 360.876 68.7487 363.389 72.6509 365.787C76.5507 368.185 80.5385 370.441 84.5816 372.598C88.6246 374.755 92.7427 376.773 96.9278 378.649C99.008 379.593 101.147 380.496 103.22 381.378C105.293 382.274 107.392 383.263 109.67 383.992C110.785 384.349 112.059 384.65 113.206 384.763C113.453 384.797 113.683 384.841 113.944 384.901C114.19 384.951 114.551 385.065 115.072 385.063C115.578 385.048 115.977 384.918 116.298 384.803C116.61 384.696 116.919 384.546 117.26 384.361C118.506 383.615 119.335 382.644 120.081 381.683C120.821 380.713 121.44 379.704 122.029 378.697L125.443 372.75C126.577 370.757 127.672 368.75 128.768 366.748C133.141 358.754 137.494 350.758 143.282 343.882L144.379 342.611C144.733 342.23 145.128 341.836 145.536 341.442L147.99 339.033C149.595 337.359 151.239 335.703 152.428 333.473C152.72 332.914 152.954 332.275 153.065 331.552C153.136 330.794 152.942 329.931 152.577 329.39C151.902 328.221 151.031 327.406 150.163 326.602C148.411 325.026 146.526 323.703 144.672 322.373C143.732 321.698 142.843 321.082 142.008 320.332L139.407 318.097C137.667 316.614 135.905 315.156 134.106 313.744C130.516 310.911 126.838 308.186 123.023 305.674C122.969 305.639 122.896 305.653 122.86 305.708C122.826 305.761 122.839 305.831 122.889 305.868C126.57 308.56 130.094 311.451 133.525 314.445L138.621 318.991L141.135 321.304C141.97 322.109 142.935 322.832 143.825 323.518C145.63 324.907 147.441 326.28 149.033 327.813C149.813 328.573 150.579 329.398 151.019 330.227C151.288 330.653 151.282 330.967 151.275 331.337C151.194 331.74 151.044 332.186 150.794 332.631C149.801 334.428 148.177 336.061 146.597 337.626L144.118 339.959C143.698 340.35 143.276 340.75 142.844 341.197L141.678 342.491C135.488 349.451 131.046 357.619 126.646 365.583C125.541 367.578 124.442 369.571 123.311 371.538L119.884 377.445C119.318 378.405 118.728 379.334 118.1 380.191C117.474 381.037 116.758 381.814 116.041 382.247C115.759 382.433 115.108 382.663 115.019 382.644C114.944 382.676 114.115 382.446 113.515 382.385C112.39 382.283 111.432 382.057 110.369 381.739C108.289 381.102 106.235 380.172 104.113 379.281C101.979 378.402 99.9037 377.555 97.8176 376.638C93.6572 374.822 89.5532 372.878 85.496 370.834C77.39 366.725 69.5306 362.146 61.826 357.27C46.4323 347.594 31.5926 336.635 19.568 322.949L19.6149 323.631C23.1673 318.555 27.1387 313.779 31.0655 308.944C33.0259 306.523 34.9993 304.1 36.8483 301.572C38.7254 299.063 40.4663 296.441 42.2178 293.895C45.769 288.804 49.2873 283.692 53.0838 278.792C56.8521 273.871 60.8705 269.154 65.0908 264.628L64.3042 264.851C66.8657 265.458 69.2394 266.802 71.4053 268.431C73.5795 270.064 75.5787 271.971 77.5872 273.879C79.6123 275.773 81.6455 277.695 83.8854 279.38C86.1112 281.069 88.5893 282.508 91.2976 283.243C91.3598 283.259 91.4244 283.223 91.442 283.16C91.462 283.099 91.4291 283.037 91.3716 283.017Z" fill="#2E2F2D"/>
<path d="M97.9727 287.814C101.509 291.6 109.611 298.23 114.759 299.917" stroke="#2E2F2D" stroke-width="2.34787" stroke-miterlimit="10" stroke-linecap="round"/>
<path d="M64.2888 264.429C64.6128 265.791 64.9215 267.147 65.1575 268.511C65.3923 269.877 65.525 271.251 65.6224 272.62C65.7962 275.363 65.6599 278.106 65.3805 280.854C65.1094 283.609 64.6973 286.34 64.3498 289.14C64.0035 291.897 63.777 294.993 64.904 297.876C65.4534 299.294 66.2798 300.573 67.226 301.678C68.1581 302.801 69.2041 303.8 70.2747 304.721C72.3972 306.582 74.6394 308.282 76.8699 309.98C81.3543 313.348 85.9608 316.538 90.5919 319.689C95.2102 322.861 99.9106 325.884 104.505 329.01C106.766 330.491 108.75 332.39 110.969 334.19C112.069 335.096 113.23 335.963 114.507 336.728C115.781 337.473 117.191 338.201 118.854 338.404C120.427 338.591 121.894 338.475 123.325 338.324C124.777 338.154 126.094 337.97 127.531 337.73C130.421 337.238 133.092 336.333 135.755 335.455C138.416 334.573 141.025 333.6 143.689 332.853C145.02 332.467 146.357 332.143 147.712 331.879C149.069 331.665 150.443 331.53 151.824 331.654H151.83C151.895 331.659 151.952 331.611 151.957 331.547C151.963 331.487 151.923 331.435 151.867 331.422C149.076 330.785 146.168 331.175 143.412 331.697C140.638 332.248 137.914 332.961 135.223 333.683C132.532 334.382 129.841 335.139 127.198 335.478C124.465 335.753 121.631 336.261 119.192 335.923C118.066 335.781 116.907 335.239 115.785 334.578C114.662 333.91 113.576 333.103 112.487 332.275C110.319 330.619 108.188 328.693 105.723 327.17C100.998 324.122 96.1165 321.383 91.2752 318.602C86.4433 315.809 81.6842 312.869 77.3359 309.381C75.1688 307.634 73.091 305.775 71.1716 303.773C69.244 301.823 67.5101 299.659 66.7423 297.216C65.9264 294.796 66.1331 292.121 66.4148 289.373C66.7141 286.623 67.0628 283.813 67.1931 280.992C67.3445 278.173 67.3082 275.301 66.8632 272.486C66.4347 269.67 65.6048 266.939 64.5107 264.356C64.4848 264.296 64.4168 264.267 64.3557 264.293C64.3029 264.314 64.2759 264.374 64.2888 264.429Z" fill="#2E2F2D"/>
<path d="M70.4977 300.55C69.1828 302.483 66.9911 303.97 65.8583 305.933C67.1167 307.025 68.5372 307.962 69.9623 308.902C70.7407 307.296 71.8265 305.187 73.2939 304.099L70.4977 300.55Z" fill="#2E2F2D"/>
<path d="M108.997 327.757C108.095 328.664 107.48 329.954 106.685 330.975C106.118 331.704 105.301 332.439 104.918 333.248C106.007 333.986 107.189 334.61 108.247 335.347C109.346 333.503 110.525 331.622 111.793 329.909L108.997 327.757Z" fill="#2E2F2D"/>
<path d="M116.258 299.534C118.393 301.322 121.781 301.272 124.178 301.272" stroke="#2E2F2D" stroke-width="1.17393" stroke-miterlimit="10"/>
<path d="M118.673 295.767C119.814 295.951 121.471 297.181 122.475 297.821C123.143 298.247 123.812 298.725 124.372 299.244" stroke="#2E2F2D" stroke-width="1.17393" stroke-miterlimit="10"/>
<path d="M120.121 293.449C121.953 292.43 125.057 292.665 126.979 293.353" stroke="#2E2F2D" stroke-width="1.17393" stroke-miterlimit="10"/>
<path d="M122.922 287.557C124.081 288.647 126.15 289.602 127.751 289.778" stroke="#2E2F2D" stroke-width="1.17393" stroke-miterlimit="10"/>
<path d="M123.984 284.273C125.074 284.122 126.144 283.503 127.229 283.439C127.881 283.402 128.547 283.667 129.2 283.789" stroke="#2E2F2D" stroke-width="1.17393" stroke-miterlimit="10"/>
<path d="M125.24 280.409C126.677 279.133 128.945 278.492 130.842 279.153" stroke="#2E2F2D" stroke-width="1.17393" stroke-miterlimit="10"/>
<path d="M130.456 275.097C129.608 276.214 127.453 276.793 126.11 276.836" stroke="#2E2F2D" stroke-width="1.17393" stroke-miterlimit="10"/>
<path d="M93.2922 279.072C93.3403 281.712 95.741 285.319 97.9058 286.881" stroke="#2E2F2D" stroke-width="0.586966" stroke-miterlimit="10"/>
<path d="M95.0082 275.677C96.8372 276.212 98.8223 278.475 99.644 280.216" stroke="#2E2F2D" stroke-width="1.17393" stroke-miterlimit="10"/>
<path d="M98.969 270.75C98.976 273.495 100.213 275.044 101.384 277.318" stroke="#2E2F2D" stroke-width="1.17393" stroke-miterlimit="10"/>
<path d="M101.384 267.66C103.326 268.942 103.65 270.688 104.475 272.49" stroke="#2E2F2D" stroke-width="1.17393" stroke-miterlimit="10"/>
<path d="M105.247 263.603C104.772 265.474 105.165 267.161 106.213 268.723" stroke="#2E2F2D" stroke-width="1.17393" stroke-miterlimit="10"/>
<path d="M109.497 260.706C108.698 262.262 108.574 264.678 109.497 266.211" stroke="#2E2F2D" stroke-width="1.17393" stroke-miterlimit="10"/>
<path d="M32.1935 313.385C29.4442 315.812 26.3133 317.862 24.084 320.876C23.5604 321.639 23.0943 322.502 23.0227 323.478C22.964 323.963 23.119 324.47 23.3092 324.905C23.5205 325.334 23.7858 325.73 24.0793 326.097C25.2556 327.569 26.7289 328.721 28.1165 329.914C33.6445 334.798 39.7032 339.045 45.7161 343.279C51.7184 347.534 57.9543 351.54 64.324 355.201C67.4549 357.103 70.4942 359.158 73.5077 361.26L78.0332 364.431C79.5711 365.485 81.1723 366.428 82.7818 367.338C86.0113 369.136 89.2889 370.783 92.3235 372.796C95.384 374.812 98.381 376.961 101.529 378.913C102.316 379.4 103.115 379.874 103.918 380.332C104.687 380.781 105.482 381.287 106.303 381.737C107.13 382.183 107.97 382.623 108.946 382.885C109.425 383.003 109.994 383.108 110.582 382.922C111.159 382.744 111.581 382.389 111.927 382.028C113.291 380.547 114.003 378.805 114.791 377.14C115.53 375.508 116.449 373.874 117.292 372.255C119.022 369.017 120.836 365.826 122.838 362.756C124.861 359.694 126.949 356.664 129.135 353.715C133.49 347.824 138.404 342.24 144.43 337.977C138.295 342.082 133.203 347.566 128.677 353.368C126.427 356.293 124.3 359.3 122.22 362.345C120.156 365.411 118.284 368.597 116.499 371.823C115.619 373.455 114.706 375.019 113.899 376.727C113.115 378.364 112.364 380.088 111.204 381.317C110.595 381.966 110.042 382.139 109.207 381.89C108.403 381.674 107.593 381.257 106.809 380.826C106.016 380.387 105.261 379.9 104.444 379.417C103.652 378.96 102.871 378.491 102.095 378.006C98.9962 376.066 96.0191 373.909 92.9433 371.862C89.85 369.789 86.5454 368.108 83.3547 366.315C81.7569 365.422 80.1792 364.504 78.6766 363.484L74.1452 360.342C71.1141 358.249 68.0431 356.195 64.8746 354.29C58.4556 350.661 52.3124 346.681 46.2255 342.542C40.1481 338.395 34.073 334.257 28.4816 329.478C27.0529 328.315 25.5761 327.214 24.4115 325.831C23.8363 325.145 23.3303 324.358 23.3784 323.495C23.4172 322.631 23.8269 321.791 24.3199 321.038C26.4201 318.032 29.5087 315.877 32.1935 313.385Z" fill="#2E2F2D"/>
<path d="M220.043 100.626C220.742 102.41 220.954 104.36 220.952 106.331C220.953 107.319 220.912 108.315 220.875 109.321C220.845 110.313 220.783 111.353 220.898 112.399C221.104 114.471 221.697 116.437 222.32 118.351L224.216 124.074C225.519 127.882 226.936 131.641 228.29 135.417C228.966 137.304 229.628 139.197 230.249 141.102C230.897 143.004 231.404 144.91 231.667 146.89C232.221 150.834 232.004 154.865 231.944 158.873C231.843 162.886 231.705 166.904 231.801 170.925C231.852 172.931 231.927 174.95 232.246 176.942C232.558 178.932 233.024 180.89 233.519 182.837C234.009 184.784 234.529 186.723 234.921 188.691C235.113 189.676 235.337 190.656 235.477 191.649C235.6 192.633 235.717 193.673 235.353 194.622C235.73 193.677 235.625 192.631 235.514 191.645C235.386 190.647 235.174 189.664 234.994 188.677C234.626 186.701 234.129 184.754 233.662 182.801C233.192 180.85 232.751 178.892 232.464 176.911C232.171 174.93 232.122 172.925 232.096 170.92C232.049 166.91 232.236 162.901 232.386 158.887C232.493 154.879 232.765 150.843 232.25 146.811C232.01 144.803 231.503 142.807 230.878 140.9C230.277 138.98 229.638 137.073 228.983 135.173C227.672 131.373 226.302 127.599 225.052 123.792L223.23 118.059C222.635 116.156 222.09 114.239 221.923 112.304C221.826 111.349 221.897 110.377 221.94 109.365C221.988 108.365 222.043 107.355 222.054 106.335C222.081 104.302 221.888 102.184 221.141 100.205L220.043 100.626Z" fill="#2E2F2D"/>
<path d="M179.538 17.9166C180.663 16.2672 182.201 14.8878 183.917 13.789C185.627 12.6726 187.496 11.7922 189.428 11.0949C191.358 10.3882 193.362 9.87398 195.393 9.55584C197.424 9.26118 199.496 9.24593 201.55 9.40441C203.608 9.55232 205.651 9.92329 207.644 10.4633C209.642 10.9869 211.593 11.71 213.431 12.6562C217.122 14.4699 220.436 17.3484 222.114 21.1836C220.507 17.3191 217.221 14.3525 213.532 12.4602C211.695 11.4729 209.741 10.7086 207.732 10.144C205.729 9.56289 203.671 9.15084 201.589 8.96418C199.51 8.76814 197.404 8.74466 195.315 9.00997C193.237 9.29875 191.19 9.78476 189.207 10.4715C187.222 11.1489 185.292 12.0141 183.502 13.1387C181.706 14.2457 180.058 15.6568 178.806 17.4235L179.538 17.9166Z" fill="#2E2F2D"/>
<path d="M178.721 19.7182C180.715 17.4232 183.806 16.3467 186.833 15.8102C189.903 15.2667 193.062 15.2643 196.198 15.3759C197.771 15.4439 199.339 15.5062 200.884 15.7586C202.43 16.0016 203.953 16.3948 205.43 16.9266C208.384 17.9996 211.113 19.622 213.722 21.3793C211.155 19.5621 208.461 17.8728 205.507 16.72C204.031 16.1495 202.501 15.7151 200.94 15.4322C199.378 15.1399 197.793 15.0413 196.221 14.9356C193.073 14.7513 189.887 14.6762 186.729 15.1587C183.62 15.6423 180.339 16.6531 178.063 19.136L178.721 19.7182Z" fill="#2E2F2D"/>
<path d="M178.277 20.5518C178.982 19.9883 179.927 19.6573 180.881 19.4354C181.843 19.2147 182.842 19.0985 183.846 19.0421C185.853 18.9306 187.884 19.0093 189.898 19.2112C191.913 19.3838 193.871 19.9214 195.762 20.661C197.656 21.3912 199.505 22.2622 201.425 22.9396C199.531 22.193 197.722 21.2597 195.846 20.4567C193.977 19.6467 191.993 19.0222 189.951 18.7733C187.925 18.4963 185.879 18.3413 183.819 18.3812C182.789 18.4023 181.754 18.4833 180.723 18.6806C179.699 18.886 178.651 19.1842 177.727 19.8627L178.277 20.5518Z" fill="#2E2F2D"/>
<path d="M176.506 25.1911C178.908 27.674 181.883 29.4759 185.002 30.7861C188.133 32.0891 191.441 32.9179 194.788 33.2865C191.461 32.7723 188.21 31.8027 185.18 30.3834C182.162 28.9594 179.34 27.0635 177.154 24.5947L176.506 25.1911Z" fill="#2E2F2D"/>
<path d="M175.9 25.5952C174.569 27.3232 173.71 29.3283 173.112 31.3686C172.518 33.416 172.185 35.5185 172.01 37.6245C171.685 41.8389 171.923 46.0839 172.751 50.2232C173.651 54.3437 175.391 58.3186 178.094 61.568C179.445 63.1669 181.093 64.625 183.119 65.2871C185.117 65.9902 187.239 66.1076 189.322 66.2755C187.243 66.0724 185.121 65.9151 183.156 65.1838C181.164 64.4935 179.576 63.0343 178.263 61.4272C175.648 58.1718 173.996 54.2028 173.181 50.1363C172.436 46.0381 172.274 41.8225 172.666 37.6832C172.875 35.6159 173.239 33.5615 173.849 31.5905C174.461 29.6253 175.325 27.7259 176.588 26.1434L175.9 25.5952Z" fill="#2E2F2D"/>
<path d="M199.464 60.0327C198.376 62.343 196.808 64.4608 194.752 66.0127C192.712 67.567 190.269 68.62 187.704 68.9969C185.153 69.376 182.459 69.3021 180.044 68.3042C177.616 67.3228 175.662 65.4352 174.096 63.3456C175.603 65.4751 177.51 67.4332 179.957 68.5062C182.394 69.5932 185.144 69.7482 187.765 69.4324C190.406 69.1189 192.97 68.1058 195.146 66.5422C197.337 64.982 199.048 62.8079 200.257 60.4131L199.464 60.0327Z" fill="#2E2F2D"/>
<path d="M176.1 25.0024C175.123 26.2949 174.934 27.8258 174.818 29.2439C174.722 30.6901 174.755 32.0824 174.685 33.4994C174.597 36.3262 174.537 39.1859 174.952 42.0163C175.399 44.8384 176.31 47.569 177.628 50.087C178.95 52.5899 180.731 54.9107 183.077 56.5131C180.773 54.8497 179.07 52.4995 177.824 49.9872C176.584 47.4621 175.754 44.7304 175.389 41.9564C175.054 39.1695 175.184 36.3462 175.346 33.5299C175.452 32.1235 175.459 30.6831 175.587 29.3096C175.721 27.9478 175.991 26.5333 176.78 25.5636L176.1 25.0024Z" fill="#2E2F2D"/>
<path d="M205.785 38.9852C203.333 39.5335 200.775 39.6086 198.253 39.3949C195.727 39.1754 193.228 38.6694 190.791 37.9439C188.356 37.2231 185.963 36.2981 183.796 34.9645C182.719 34.2954 181.704 33.5076 180.847 32.5708C180.004 31.62 179.327 30.5165 178.39 29.6431C179.31 30.5341 179.961 31.6458 180.792 32.619C181.639 33.5804 182.645 34.394 183.718 35.0889C185.877 36.4742 188.268 37.4521 190.705 38.2245C193.142 39.0017 195.658 39.5628 198.211 39.8328C200.762 40.0969 203.367 40.0758 205.91 39.5581L205.785 38.9852Z" fill="#2E2F2D"/>
<path d="M205.067 40.4406C203.651 41.1379 201.941 41.179 200.301 41.2283C198.63 41.2424 196.975 41.4091 195.332 41.2248C192.047 40.8656 188.799 39.9487 185.809 38.4907C188.758 40.0356 191.984 41.0546 195.3 41.516C196.969 41.7519 198.65 41.6322 200.304 41.6674C201.961 41.658 203.696 41.6991 205.328 40.9642L205.067 40.4406Z" fill="#2E2F2D"/>
<path d="M206.522 36.0054C204.292 36.8846 201.795 37.0455 199.359 37.0713C198.133 37.0807 196.906 37.0361 195.679 36.9868C194.456 36.9386 193.233 36.7614 192.055 36.4092C193.218 36.8083 194.44 37.0361 195.669 37.1335C196.895 37.2321 198.123 37.326 199.356 37.3648C201.81 37.4329 204.331 37.3871 206.735 36.5524L206.522 36.0054Z" fill="#2E2F2D"/>
<path d="M198.834 60.1944C198.26 61.0455 197.206 61.5925 196.188 62.0199C195.148 62.4401 194.052 62.7571 192.942 62.9473C190.719 63.2994 188.392 63.2548 186.188 62.7653C183.984 62.2347 181.922 61.13 180.223 59.6133C179.385 58.8467 178.601 57.998 177.996 57.033C177.397 56.0598 177.009 54.9704 176.439 53.9761C176.986 54.9821 177.35 56.0762 177.933 57.0706C178.524 58.0602 179.293 58.9266 180.124 59.7213C181.808 61.2909 183.876 62.4589 186.117 63.0494C188.37 63.5988 190.71 63.6939 193.012 63.3816C194.163 63.2079 195.287 62.9097 196.379 62.4965C197.448 62.061 198.57 61.5609 199.329 60.5102L198.834 60.1944Z" fill="#2E2F2D"/>
<path d="M170.912 2.33252C169.788 3.75415 169.21 5.49745 168.96 7.19378C168.703 8.90068 168.713 10.5958 168.704 12.271C168.697 13.9451 168.694 15.6144 168.423 17.2567C168.161 18.892 167.58 20.5027 166.549 21.8362C167.656 20.566 168.347 18.9625 168.71 17.3131C169.083 15.6578 169.186 13.9627 169.29 12.291C169.395 10.6193 169.487 8.94881 169.825 7.35343C170.158 5.76158 170.775 4.24955 171.816 3.08266L170.912 2.33252Z" fill="#2E2F2D"/>
<path d="M177.154 6.74072C177.236 11.0068 176.62 15.3151 175.344 19.4251C174.055 23.5186 172.089 27.4759 169.153 30.6843C172.233 27.6109 174.407 23.7064 175.9 19.6129C177.382 15.5018 178.214 11.1465 178.328 6.74072H177.154Z" fill="#2E2F2D"/>
<path d="M173.703 26.8006C173.926 25.5351 174.756 24.3917 175.315 23.1156C175.852 21.8325 176.252 20.5177 176.626 19.1982C177.009 17.8846 177.356 16.5487 177.605 15.201C177.861 13.8533 178.048 12.4939 178.197 11.1333C178 12.488 177.765 13.838 177.462 15.1716C177.165 16.5087 176.775 17.813 176.345 19.1137C175.925 20.4132 175.48 21.7093 174.914 22.9348C174.345 24.1405 173.451 25.2428 173.127 26.6961L173.703 26.8006Z" fill="#2E2F2D"/>
<path d="M179.952 6.34961C180.003 8.87474 179.638 11.4034 179.063 13.8816C178.545 16.3738 177.367 18.6736 176.536 21.086C177.456 18.7099 178.723 16.4607 179.347 13.9532C180.02 11.4856 180.492 8.93696 180.538 6.34961H179.952Z" fill="#2E2F2D"/>
<path d="M181.123 7.02832C181.15 8.65539 181.282 10.2555 181.194 11.8555C181.105 13.438 180.81 15.0792 179.856 16.4022C180.892 15.1402 181.3 13.4803 181.486 11.8802C181.674 10.2637 181.64 8.63426 181.71 7.03772L181.123 7.02832Z" fill="#2E2F2D"/>
<path d="M172.418 2.52246C171.29 3.49683 170.997 5.0652 170.775 6.44457C170.576 7.86151 170.458 9.28666 170.413 10.7083C170.374 13.5457 170.387 16.4206 169.608 19.1559C168.871 21.8724 167.72 24.5196 165.836 26.554C164.88 27.5366 163.756 28.4077 162.482 28.9406C161.218 29.4936 159.781 29.6614 158.392 29.3527L158.376 29.409C159.722 29.9033 161.273 29.8763 162.648 29.3691C164.031 28.8726 165.257 28.025 166.274 26.972C168.322 24.8448 169.353 22.0109 169.92 19.2287C170.444 16.4124 170.615 13.5645 170.898 10.7353C171.01 9.31953 171.074 7.90494 171.221 6.49857C171.375 5.1192 171.527 3.65178 172.457 2.56472L172.418 2.52246Z" fill="#2E2F2D"/>
<path d="M158.174 29.6853C158.792 30.3075 159.632 30.5951 160.432 30.7055C161.244 30.8135 162.038 30.7865 162.838 30.6749C164.469 30.4378 165.871 29.4916 167.014 28.4304C169.362 26.3514 171.268 23.7276 172.408 20.8022C172.986 19.3441 173.409 17.8227 173.632 16.272C173.857 14.7212 173.907 13.1552 173.903 11.5962L173.841 6.92276C173.853 6.15618 173.909 5.34148 174.343 4.68995C174.555 4.36711 174.903 4.14642 175.275 4.04546C175.637 3.94567 176.097 3.97267 176.34 4.3002C176.103 3.96798 175.638 3.93276 175.27 4.02784C174.894 4.12411 174.536 4.34129 174.312 4.66881C173.859 5.32622 173.791 6.15149 173.767 6.92159L173.755 11.595C173.75 14.7012 173.371 17.8368 172.135 20.6906C170.957 23.5656 169.067 26.0825 166.718 28.1017C165.581 29.1242 164.253 29.9753 162.762 30.1666C161.299 30.331 159.597 30.2875 158.592 29.2756L158.174 29.6853Z" fill="#2E2F2D"/>
<path d="M177.067 6.19727C175.578 8.75644 175.4 11.7065 175.113 14.4829C174.847 17.2792 174.32 20.0544 173.405 22.7121C172.489 25.3465 171.213 27.9549 169.145 29.8684C168.121 30.8076 166.828 31.526 165.425 31.6516C164.026 31.7737 162.605 31.6657 161.216 31.4321C162.602 31.6904 164.019 31.823 165.433 31.7244C166.856 31.6223 168.187 30.9132 169.242 29.9776C171.376 28.0711 172.71 25.4545 173.682 22.8096C174.653 20.1436 175.235 17.3438 175.551 14.5298C175.881 11.7511 176.132 8.85974 177.57 6.50249L177.067 6.19727Z" fill="#2E2F2D"/>
<path d="M170.038 3.1486C169.471 2.40198 168.487 2.10262 167.645 2.18245C166.786 2.23058 165.983 2.49706 165.233 2.84454C164.484 3.1979 163.772 3.62051 163.145 4.19105C162.536 4.77449 162.064 5.48707 161.751 6.25717C160.478 9.37983 161.567 13.0848 163.872 15.327C164.821 16.5878 165.598 18.0634 165.656 19.6541C165.674 20.4277 165.58 21.2718 165.151 21.9116C164.716 22.5654 163.963 22.9376 163.225 23.2076C161.712 23.7006 160.064 23.8321 158.48 23.6349C156.905 23.3978 155.397 22.448 154.676 20.9889C155.375 22.4586 156.877 23.4435 158.469 23.7065C160.069 23.9284 161.719 23.8239 163.272 23.3461C164.028 23.0808 164.817 22.7145 165.301 22.0172C165.783 21.3129 165.878 20.4629 165.876 19.6482C165.84 17.9883 165.057 16.4551 164.108 15.1532C163.634 14.4806 163.048 13.923 162.676 13.2339C162.283 12.5518 162.001 11.8075 161.825 11.0409C161.469 9.51131 161.545 7.86076 162.157 6.42856C162.461 5.71481 162.907 5.06562 163.469 4.54205C164.041 4.03609 164.735 3.63343 165.445 3.31295C166.157 2.99481 166.917 2.76237 167.67 2.73302C168.425 2.6802 169.145 2.93964 169.567 3.50078L170.038 3.1486Z" fill="#2E2F2D"/>
<path d="M169.937 4.02295C169.688 3.73181 169.344 3.51111 168.971 3.4395C168.606 3.38433 168.242 3.39959 167.913 3.48763C167.245 3.64377 166.662 3.95838 166.114 4.31056C165.571 4.67331 165.053 5.06658 164.63 5.61011C164.228 6.14072 163.949 6.76643 163.818 7.41679C163.554 8.73629 163.901 10.0534 164.369 11.2309C164.827 12.4248 165.496 13.5248 165.982 14.6646C166.443 15.8198 166.733 17.0583 166.737 18.3074C166.762 19.5506 166.473 20.8219 165.764 21.8503C165.036 22.8528 163.897 23.5783 162.652 23.7509C161.404 23.9364 160.13 23.6593 158.87 23.8201C160.132 23.6828 161.392 23.9857 162.661 23.8237C163.931 23.6711 165.109 22.9585 165.882 21.936C166.635 20.8888 166.956 19.5823 166.956 18.3074C166.976 17.0254 166.705 15.7529 166.253 14.5555C165.77 13.3616 165.136 12.2769 164.709 11.0982C164.273 9.94074 163.983 8.68698 164.247 7.50718C164.376 6.92373 164.634 6.37316 165.005 5.90007C165.368 5.45045 165.875 5.06892 166.387 4.74374C166.904 4.42326 167.46 4.14386 168.029 4.0253C168.601 3.88794 169.163 3.98069 169.47 4.38452L169.937 4.02295Z" fill="#2E2F2D"/>
<path d="M175.85 25.7358C173.279 27.3066 171.139 29.6368 169.954 32.4132C169.352 33.7925 168.959 35.2541 168.747 36.7356C168.529 38.2218 168.538 39.715 168.53 41.1977C168.544 44.1678 168.743 47.1437 169.263 50.0691C169.793 52.9863 170.632 55.8754 172.05 58.4862C170.675 55.8519 169.888 52.9582 169.407 50.0445C168.936 47.1214 168.79 44.156 168.824 41.1989C168.855 39.7197 168.873 38.237 169.11 36.7896C169.341 35.341 169.75 33.9217 170.356 32.5928C171.551 29.9186 173.646 27.7151 176.151 26.2383L175.85 25.7358Z" fill="#2E2F2D"/>
<path d="M203.939 41.5146C202.774 41.9889 201.473 42.1509 200.18 42.2202C198.881 42.2883 197.571 42.2531 196.265 42.3C197.57 42.3517 198.87 42.4843 200.184 42.5137C201.495 42.5395 202.839 42.4831 204.141 42.0664L203.939 41.5146Z" fill="#2E2F2D"/>
<path d="M191.166 50.2017C191.223 49.7427 191.211 49.2708 191.322 48.8447C191.429 48.415 191.696 48.0992 192.102 47.9889C192.881 47.7517 193.757 48.2084 194.351 48.7742C194.647 49.0583 194.887 49.4316 194.972 49.7956C195.063 50.1583 194.966 50.5692 194.815 50.9777C194.68 51.3181 194.355 51.6903 194.135 52.1434C194.028 52.3653 193.932 52.6846 194.065 52.9969C194.202 53.3021 194.467 53.4371 194.693 53.5392L194.756 53.5674L194.814 53.551C195.199 53.4418 195.623 53.4477 195.999 53.5991C196.38 53.7494 196.663 54.1074 196.775 54.5335C196.765 54.0933 196.515 53.6414 196.104 53.3984C195.698 53.1436 195.193 53.1014 194.729 53.1847L194.849 53.1964C193.937 52.7832 194.894 52.0836 195.342 51.1796C195.513 50.7371 195.665 50.2135 195.545 49.6653C195.409 49.1323 195.108 48.712 194.742 48.3634C194.027 47.7236 192.977 47.2188 191.965 47.625C191.477 47.7964 191.104 48.3105 191.091 48.8001C191.047 49.2872 191.119 49.7416 191.166 50.2017Z" fill="#2E2F2D"/>
<path d="M194.038 48.165C193.46 48.4726 192.853 48.8447 192.454 49.4258C192.061 50.0081 191.933 50.6761 191.838 51.3124L191.778 51.7197L192.004 51.3851C192.169 51.1386 192.325 50.8897 192.539 50.6949C192.75 50.4988 193.038 50.3932 193.335 50.3755C193.04 50.3615 192.729 50.4366 192.481 50.6221C192.234 50.804 192.046 51.047 191.856 51.2736L192.021 51.3464C192.176 50.7301 192.376 50.1138 192.763 49.6583C193.149 49.204 193.708 48.9304 194.286 48.6968L194.038 48.165Z" fill="#2E2F2D"/>
<path d="M194.161 54.7041C194.421 54.9213 194.718 55.0903 195.049 55.2148C195.385 55.3239 195.744 55.3521 196.085 55.3556C196.78 55.3357 197.363 55.2993 197.784 55.689C198.241 56.0494 198.486 56.5988 198.414 57.187C198.349 57.7669 197.968 58.3315 197.371 58.6426C198.053 58.5687 198.674 58.0005 198.857 57.2738C199.084 56.5472 198.743 55.6949 198.156 55.2347C197.864 54.9917 197.464 54.8332 197.09 54.8145C196.716 54.7945 196.367 54.8544 196.056 54.9072C195.422 55.0187 194.803 54.9401 194.161 54.7041Z" fill="#2E2F2D"/>
<path d="M215.981 37.8359C217.181 36.7771 218.584 36.0152 220.039 35.5245C220.773 35.2791 221.536 35.2251 222.246 35.0209C222.972 34.8272 223.687 34.671 224.53 34.4867L224.557 34.3623C223.826 33.8481 222.911 33.7131 222.053 33.7624C221.177 33.8035 220.392 34.2132 219.645 34.5853C218.154 35.3496 216.816 36.4061 215.884 37.7538L215.981 37.8359Z" fill="#2E2F2D"/>
<path d="M217.161 41.6228C217.614 41.7813 218.205 41.7132 218.708 41.6263C219.232 41.5383 219.734 41.3657 220.22 41.1697C221.204 40.7882 222.031 40.1225 222.877 39.5367L222.734 39.5039C223.087 40.0392 223.249 40.6931 223.275 41.3305C223.295 41.968 223.215 42.6101 222.997 43.1618L223.271 42.9693C222.221 42.9282 221.182 42.7674 220.153 42.5714C219.636 42.4798 219.132 42.3354 218.629 42.1804C218.132 42.0349 217.624 41.786 217.161 41.6228ZM217.101 41.6017C217.52 42.0536 217.97 42.3037 218.465 42.5737C218.955 42.8308 219.477 43.0139 220.003 43.1794C221.063 43.4941 222.174 43.5868 223.271 43.5528L223.489 43.5457L223.547 43.3591C223.764 42.6641 223.736 41.9539 223.601 41.2894C223.459 40.625 223.242 39.9864 222.911 39.3935L222.862 39.3066L222.767 39.3606C221.872 39.8678 220.901 40.2141 219.997 40.6531C219.539 40.8621 219.073 41.0488 218.603 41.2225C218.114 41.3939 217.678 41.4949 217.101 41.6017Z" fill="#2E2F2D"/>
<path d="M217.879 41.6123C219.247 41.6252 220.487 41.2929 221.693 40.8046C222.876 40.2845 224.034 39.5825 224.843 38.4673C223.499 38.7244 222.361 39.1587 221.195 39.633C220.052 40.1425 218.893 40.6848 217.879 41.6123Z" fill="#2E2F2D"/>
<path d="M221.951 40.3351C221.422 41.1604 221.684 42.4987 222.528 43.007C223.409 43.5376 223.36 41.7732 223.354 41.2015C223.349 40.7425 223.26 40.2928 223.065 39.9219L221.951 40.3351Z" fill="#2E2F2D"/>
<path d="M220.841 55.9071C221.59 56.8674 222.676 57.2841 223.75 57.4273C224.837 57.5271 225.902 57.3898 226.928 56.757V56.6619C224.878 56.622 222.813 56.5058 220.873 55.8179L220.841 55.9071Z" fill="#2E2F2D"/>
<path d="M231.548 50.0726C231.055 50.2863 230.559 50.4377 230.062 50.5398C229.577 50.6314 229.046 50.6854 228.711 50.5105C228.387 50.3778 228.278 49.8801 228.274 49.3976C228.285 48.9092 228.363 48.3939 228.621 47.9243C228.164 48.2471 227.93 48.8036 227.825 49.3542C227.766 49.6359 227.771 49.9329 227.839 50.2393C227.903 50.541 228.125 50.8697 228.441 51.0294C229.081 51.3111 229.678 51.162 230.189 50.9695C230.702 50.7676 231.189 50.4882 231.548 50.0726Z" fill="#2E2F2D"/>
<path d="M200.135 60.6851C200.943 63.1539 202.185 65.4137 203.629 67.5127C205.082 69.6539 207.11 71.2341 208.961 72.9457C207.208 71.1284 205.281 69.4285 203.998 67.272C202.697 65.1284 201.611 62.831 200.981 60.4409L200.135 60.6851Z" fill="#2E2F2D"/>
<path d="M166.419 185.352C165.074 185.873 163.505 185.881 161.921 185.925C160.311 185.991 158.772 186.081 157.21 185.991C155.655 185.911 154.115 185.67 152.616 185.246C151.13 184.848 149.649 184.121 147.968 184.024C147.174 183.951 146.108 184.183 145.657 185.047C145.278 185.85 145.221 186.762 145.615 187.561C146.011 188.349 146.756 188.829 147.486 189.161C148.229 189.495 149.01 189.705 149.796 189.847C151.369 190.14 152.958 190.221 154.546 190.258C156.151 190.254 157.686 189.793 159.253 189.588C157.679 189.745 156.125 190.159 154.547 190.111C152.974 190.025 151.388 189.895 149.855 189.559C149.088 189.397 148.333 189.166 147.642 188.83C146.959 188.497 146.312 188.029 146.011 187.371C145.7 186.738 145.795 185.899 146.105 185.3C146.44 184.704 147.196 184.534 147.933 184.612C149.443 184.739 150.861 185.476 152.407 185.952C153.943 186.438 155.544 186.74 157.149 186.871C158.747 187.015 160.379 186.97 161.935 186.954C163.498 186.952 165.171 187.027 166.828 186.454L166.419 185.352Z" fill="#2E2F2D"/>
<path d="M138.868 189.921C141.564 193.662 145.626 196.136 149.893 197.421C154.179 198.7 158.781 198.897 163.086 197.844C158.74 198.704 154.203 198.296 150.075 196.862C145.962 195.426 142.185 192.849 139.835 189.255L138.868 189.921Z" fill="#2E2F2D"/>
<path d="M161.53 198.093C161.481 198.53 160.144 198.682 159.251 199.085C158.349 199.405 157.389 199.58 156.41 199.667C154.442 199.82 152.424 199.766 150.445 199.525C148.46 199.286 146.501 198.83 144.575 198.243C143.615 197.951 142.663 197.623 141.768 197.17C140.903 196.709 139.979 196.141 139.607 195.176C139.932 196.162 140.845 196.791 141.698 197.299C142.582 197.804 143.529 198.182 144.483 198.523C146.386 199.206 148.348 199.765 150.358 200.106C152.37 200.449 154.403 200.605 156.465 200.547C157.497 200.505 158.549 200.369 159.565 200.064C160.112 199.877 160.438 199.793 161.002 199.668C161.265 199.6 161.548 199.519 161.842 199.36C162.133 199.202 162.445 198.924 162.607 198.556L161.53 198.093Z" fill="#2E2F2D"/>
<path d="M185.401 140.696C181.971 147.44 176.883 153.273 171.116 158.198C168.209 160.643 165.121 162.883 161.853 164.832C158.583 166.745 155.186 168.599 151.444 169.346L151.269 169.381L151.4 169.496C152.144 170.154 153.114 170.419 154.05 170.568C154.998 170.711 155.956 170.727 156.906 170.693C158.812 170.615 160.697 170.327 162.566 169.98C160.692 170.299 158.802 170.557 156.903 170.606C155.954 170.625 155.002 170.594 154.07 170.439C153.149 170.279 152.206 169.997 151.52 169.37L151.476 169.521C155.268 168.824 158.718 167.008 162.031 165.138C165.345 163.229 168.487 161.025 171.454 158.606C177.34 153.734 182.576 147.931 186.186 141.1L185.401 140.696Z" fill="#2E2F2D"/>
<path d="M184.809 89.8667C182.893 91.8248 180.723 93.5763 178.642 95.4499C176.566 97.3212 174.525 99.3274 173.021 101.756L172.782 102.143L173.198 102.297C175.256 103.062 177.15 104.264 178.676 105.857C180.21 107.444 181.375 109.37 182.302 111.394L182.611 111.176C178.933 107.82 174.361 105.594 169.607 104.337C174.325 105.717 178.814 108.059 182.346 111.456L183.029 112.114L182.654 111.238C181.769 109.165 180.633 107.161 179.085 105.473C177.545 103.779 175.592 102.464 173.465 101.611L173.642 102.152C175.141 99.8651 177.169 97.9645 179.27 96.1695C181.376 94.3699 183.599 92.6724 185.636 90.6978L184.809 89.8667Z" fill="#2E2F2D"/>
<path d="M218.149 209.967C215.344 208.974 212.714 207.488 210.535 205.462C208.347 203.445 206.628 200.938 205.301 198.239C202.637 192.816 201.236 186.835 199.21 181.087L198.86 180.097L198.801 181.141C198.61 184.547 198.938 187.962 199.61 191.287C200.277 194.617 201.229 197.871 202.074 201.151C201.296 197.855 200.411 194.578 199.816 191.248C199.213 187.921 198.96 184.531 199.219 181.168L198.811 181.222C200.714 186.985 201.979 192.989 204.583 198.587C205.881 201.372 207.605 204.016 209.855 206.178C212.096 208.351 214.838 209.976 217.75 211.072L218.149 209.967Z" fill="#2E2F2D"/>
<path d="M225.262 99.4438C225.168 101.908 226.007 104.856 226.527 107.276C226.893 108.976 227.96 111.068 227.883 112.796C226.389 112.305 224.885 111.942 223.327 111.758L225.262 99.4438Z" fill="#2E2F2D"/>
<path d="M224.032 211.445C224.011 213.011 224.332 214.495 224.687 215.932C225.046 217.37 225.466 218.771 225.742 220.193C225.978 221.62 226.231 223.092 226.426 224.533C226.519 225.259 226.595 225.987 226.617 226.717C226.63 227.441 226.632 228.195 226.322 228.868C226.678 228.215 226.728 227.447 226.764 226.717C226.79 225.979 226.764 225.24 226.718 224.504C226.616 223.024 226.468 221.586 226.322 220.101C226.136 218.622 225.805 217.179 225.547 215.745C225.292 214.316 225.091 212.88 225.205 211.504L224.032 211.445Z" fill="#2E2F2D"/>
<path d="M227.313 212.506C226.442 213.741 226.259 214.852 226.745 216.371C227.12 217.548 227.857 217.866 228.743 216.847C229.695 215.754 229.751 212.12 227.313 212.506Z" fill="#2E2F2D"/>
<path d="M208.255 224.573C207.682 227.055 206.023 229.058 204.175 230.692C202.325 232.356 200.23 233.738 198.103 235.056C195.969 236.35 193.793 237.572 191.476 238.423C189.171 239.279 186.729 239.765 184.305 239.635L183.646 239.6L183.694 240.258C183.791 241.572 184.092 242.818 184.481 244.043L184.628 244.502L185.1 244.429C187.366 244.083 189.611 243.526 191.762 242.715C193.918 241.915 195.953 240.829 197.871 239.6C199.787 238.373 201.645 237.026 203.308 235.472C204.974 233.921 206.498 232.231 207.864 230.429C206.318 232.079 204.723 233.678 202.969 235.082C201.229 236.503 199.384 237.772 197.438 238.891C195.497 240.007 193.486 240.981 191.402 241.747C189.313 242.502 187.141 243.007 184.938 243.314L185.555 243.701C185.201 242.551 184.948 241.351 184.86 240.179L184.25 240.803C186.869 240.907 189.458 240.345 191.85 239.42C194.247 238.488 196.491 237.24 198.585 235.808C200.672 234.384 202.75 232.902 204.562 231.104C206.323 229.303 207.944 227.118 208.255 224.573Z" fill="#2E2F2D"/>
<path d="M207.121 213.866C206.174 214.635 205.718 215.8 205.515 216.93C205.344 218.075 205.397 219.252 205.894 220.352C206.329 219.228 206.484 218.172 206.674 217.121C206.835 216.06 207.006 215.057 207.121 213.866Z" fill="#2E2F2D"/>
<path d="M210.54 214.217C210.102 215.11 209.868 215.919 209.786 216.857C209.748 217.362 209.845 217.862 209.974 218.276C210.086 218.716 210.282 219.078 210.365 219.564C210.765 219.201 210.835 218.637 210.886 218.194C210.939 217.717 210.907 217.324 210.957 216.934C210.993 216.087 211.03 215.116 210.54 214.217Z" fill="#2E2F2D"/>
<path d="M185.645 216.058C184.875 216.579 184.449 217.318 184.16 218.096C183.906 218.884 183.784 219.727 184.068 220.615C184.695 219.927 184.999 219.213 185.27 218.478C185.507 217.733 185.709 216.984 185.645 216.058Z" fill="#2E2F2D"/>
<path d="M181.702 215.094C181.253 215.264 180.917 215.603 180.662 215.964C180.398 216.326 180.23 216.736 180.104 217.154C179.999 217.578 179.938 218.013 179.975 218.456C180.007 218.894 180.113 219.347 180.387 219.74C180.801 218.907 181.024 218.211 181.236 217.463C181.434 216.707 181.575 216.009 181.702 215.094Z" fill="#2E2F2D"/>
<path d="M150.175 367.149C151.774 367.94 153.511 368.425 155.243 368.641C156.978 368.863 158.699 368.873 160.41 368.935L160.309 368.642C159.356 369.6 158 370.107 156.633 370.283C158.007 370.217 159.434 369.829 160.537 368.892L160.828 368.645L160.436 368.6C158.73 368.398 157.019 368.245 155.369 367.896C153.719 367.552 152.15 366.967 150.733 366.117L150.175 367.149Z" fill="#2E2F2D"/>
<path d="M234.048 355.751C235.755 354.609 237.948 354.154 239.985 353.141C240.969 352.636 241.951 352.132 242.898 351.515C243.836 350.9 244.75 350.17 245.413 349.194L246.329 347.843L244.928 348.663C243.571 349.456 242.175 350.182 240.706 350.711C239.242 351.239 237.695 351.563 236.138 351.514L236.306 351.839C236.851 351.029 237.856 350.555 238.799 350.128C239.757 349.698 240.777 349.349 241.697 348.798C243.533 347.74 245.341 346.564 246.79 345.006C245.29 346.513 243.456 347.621 241.596 348.612C240.676 349.124 239.665 349.433 238.675 349.835C237.706 350.249 236.653 350.66 235.951 351.61L235.729 351.911L236.117 351.937C237.737 352.042 239.362 351.758 240.893 351.262C242.428 350.765 243.884 350.067 245.289 349.307L244.804 348.775C244.203 349.603 243.352 350.25 242.446 350.8C241.536 351.351 240.55 351.818 239.569 352.282C237.66 353.171 235.432 353.532 233.411 354.765L234.048 355.751Z" fill="#2E2F2D"/>
<path d="M94.7818 426.783C94.9873 428.461 95.7938 429.856 96.6472 431.121C97.5206 432.389 98.5044 433.527 99.4682 434.686C101.447 437.026 103.947 438.784 106.488 440.369C104.052 438.622 101.692 436.709 99.9272 434.32C99.0456 433.109 98.1405 431.907 97.388 430.645C96.6449 429.392 96.018 428.033 95.9511 426.694L94.7818 426.783Z" fill="#2E2F2D"/>
<path d="M241.919 441.019C244.774 440.158 247.868 439.966 250.924 439.658C253.987 439.351 257.036 438.99 260.111 438.892C257.036 438.795 253.953 438.961 250.884 439.073C247.821 439.192 244.715 439.169 241.608 439.888L241.919 441.019Z" fill="#2E2F2D"/>
<path d="M219.772 271.028C221.347 277.519 225.179 284.134 227.656 290.438C230.471 297.602 233.045 304.751 234.879 312.207C237.303 322.063 239.977 332.246 242.024 341.882C242.526 344.25 242.709 346.828 243.565 349.074C244.239 350.842 245.286 351.469 245.537 353.398C245.799 355.412 245.092 357.699 245.146 359.795C245.516 374.002 247.099 388.23 247.099 402.58C247.099 411.171 248.122 419.319 248.859 427.816C249.119 430.807 249.701 434.498 249.442 436.939" stroke="#2E2F2D" stroke-width="0.652941" stroke-miterlimit="10" stroke-linecap="round" stroke-dasharray="1.56 3.12"/>
<path d="M103.047 433.426C112.225 428.7 121.258 417.635 128.043 410.08C137.358 399.708 146.237 387.643 156.849 378.616C160.836 375.223 161.284 375.347 162.375 370.888C163.458 366.466 166.442 362.112 168.318 357.907C176.055 340.562 179.738 321.978 181.426 303.127C182.567 290.387 183.728 277.765 184.266 265.002C184.528 258.788 185.34 250.88 183.855 244.873C182.058 237.603 183.772 231.158 186.243 224.077" stroke="#2E2F2D" stroke-width="0.652941" stroke-miterlimit="10" stroke-linecap="round" stroke-dasharray="1.56 3.12"/>
<path d="M166.931 230.31C167.666 230.336 168.455 230.544 169.231 230.787L171.601 231.581L171.939 231.695L172.022 231.375C172.269 230.41 172.663 229.411 172.639 228.32C172.625 228.051 172.572 227.758 172.39 227.52C172.211 227.295 171.974 227.15 171.734 227.044C171.256 226.826 170.747 226.745 170.301 226.488C170.717 226.791 171.232 226.933 171.66 227.189C171.876 227.312 172.069 227.468 172.191 227.661C172.306 227.847 172.329 228.087 172.315 228.324C172.235 229.296 171.772 230.21 171.403 231.182L171.823 230.976L169.549 229.936C168.769 229.601 167.961 229.278 167.035 229.142L166.931 230.31Z" fill="#2E2F2D"/>
<path d="M89.4072 480.011C89.946 480.296 90.4003 480.129 90.7161 479.94C91.0331 479.71 91.2221 479.452 91.3677 478.876C90.8194 478.607 90.378 478.774 90.067 478.963C89.7535 479.192 89.5715 479.444 89.4072 480.011Z" fill="#2E2F2D"/>
<path d="M286.397 478.191C285.701 478.612 285.276 479.087 284.907 479.687C284.58 480.282 284.305 481.038 284.575 481.835C285.201 481.314 285.572 480.855 285.923 480.273C286.234 479.695 286.537 479.013 286.397 478.191Z" fill="#2E2F2D"/>
<path d="M240.798 481.556C241.669 482.351 242.785 482.526 243.799 482.66C244.841 482.773 245.833 482.829 246.84 483.014C248.846 483.333 250.883 483.814 252.944 483.776L259.093 483.873C260.111 483.887 261.134 483.997 262.157 484.031C263.174 484.059 264.232 484.071 265.194 483.698C264.223 484.047 263.174 484.01 262.161 483.957C261.14 483.898 260.125 483.763 259.096 483.725L252.964 483.483C250.915 483.47 248.938 482.95 246.916 482.58C245.911 482.369 244.858 482.282 243.866 482.15C242.884 482.007 241.86 481.777 241.211 481.14L240.798 481.556Z" fill="#2E2F2D"/>
<path d="M310.407 484.496C309.334 485.877 307.629 486.669 305.909 487.142C304.169 487.618 302.351 487.804 300.534 487.879C296.891 488.039 293.234 487.87 289.581 487.91C293.233 487.967 296.879 488.235 300.542 488.173C302.372 488.145 304.218 488.007 306.02 487.568C307.797 487.126 309.624 486.365 310.867 484.86L310.407 484.496Z" fill="#2E2F2D"/>
<path d="M67.5406 448.036C67.5793 451.335 68.0606 454.654 69.1723 457.763C69.7041 459.333 70.5306 460.779 71.4169 462.156C72.302 463.538 73.2471 464.879 74.0254 466.325C72.5545 463.399 70.3968 460.807 69.4506 457.669C68.4433 454.561 68.07 451.288 68.1275 448.035H67.5406V448.036Z" fill="#2E2F2D"/>
<path d="M119.981 488.928C119.428 489.764 118.412 490.292 117.416 490.685C116.402 491.08 115.328 491.343 114.246 491.53L110.961 492.018C109.866 492.165 108.761 492.273 107.652 492.236C108.757 492.323 109.871 492.263 110.977 492.164L114.289 491.822C115.396 491.679 116.498 491.462 117.568 491.1C118.618 490.726 119.724 490.259 120.47 489.256L119.981 488.928Z" fill="#2E2F2D"/>
<path d="M250.476 454.874C249.929 456.468 249.687 458.101 249.751 459.788C249.804 460.626 249.929 461.479 250.229 462.289C250.518 463.094 250.976 463.87 251.643 464.406C251.125 462.804 251.002 461.315 250.923 459.729C250.823 458.158 250.851 456.533 250.476 454.874Z" fill="#2E2F2D"/>
<path d="M87.4717 444.565C88.8617 444.396 90.0814 443.776 91.1954 443.058C92.2942 442.306 93.3062 441.441 94.0845 440.286C92.7497 440.694 91.6345 441.376 90.545 442.082C89.4721 442.819 88.4414 443.57 87.4717 444.565Z" fill="#2E2F2D"/>
<path d="M175.931 210.27C173.804 211.506 170.941 210.82 169.049 209.142C168.086 208.312 167.312 207.243 166.864 206.042C166.394 204.847 166.265 203.524 166.349 202.216C166.496 199.572 167.499 197.034 168.06 194.39C168.657 191.756 168.729 188.977 168.046 186.368C168.632 189.003 168.458 191.741 167.773 194.323C167.129 196.912 166.023 199.415 165.764 202.169C165.625 203.531 165.705 204.959 166.172 206.29C166.618 207.626 167.425 208.837 168.461 209.797C169.496 210.755 170.772 211.496 172.189 211.808C173.596 212.147 175.157 211.982 176.486 211.304L175.931 210.27Z" fill="#2E2F2D"/>
<path d="M234.524 173.215C235.96 176.55 237.214 179.96 238.269 183.429C239.292 186.903 240.156 190.436 240.548 194.024C240.757 195.813 240.845 197.619 240.726 199.402C240.611 201.181 240.369 202.98 239.534 204.48C238.702 205.983 237.301 207.075 235.688 207.712C234.075 208.365 232.31 208.67 230.534 208.894L230.694 210.058C232.506 209.778 234.347 209.417 236.089 208.658C237.827 207.925 239.424 206.621 240.308 204.898C241.202 203.17 241.387 201.259 241.459 199.437C241.532 197.594 241.392 195.759 241.13 193.95C240.635 190.325 239.669 186.798 238.549 183.34C237.398 179.89 236.051 176.51 234.524 173.215Z" fill="#2E2F2D"/>
<path d="M217.676 44.0668C217.351 43.7252 216.966 43.4622 216.515 43.2732C216.285 43.2063 216.045 43.0314 215.617 43.2779C215.408 43.4634 215.426 43.7076 215.446 43.8391C215.46 44.0081 215.519 44.1032 215.556 44.2382L215.872 43.8356C215.418 43.7604 214.94 43.6489 214.436 43.636C213.943 43.6207 213.389 43.6794 212.992 43.9999C213.481 43.9212 213.928 43.9905 214.379 44.0938C214.829 44.2006 215.284 44.3286 215.777 44.412L216.369 44.5117L216.094 44.0093C216 43.8391 216.016 43.6207 215.979 43.6888C215.939 43.6712 216.202 43.6536 216.39 43.6947C216.804 43.7757 217.236 43.9259 217.676 44.0668Z" fill="#2E2F2D"/>
<path d="M220.464 131.204C221.817 137.602 221.798 144.134 221.434 150.632L221.232 155.512C221.199 156.302 221.04 157.034 220.622 157.681C220.21 158.314 219.639 158.938 219.113 159.541C218.027 160.744 216.882 161.904 215.699 163.028C215.101 163.615 214.608 164.256 214.021 164.807C213.732 165.069 213.411 165.359 213.081 165.437C212.711 165.491 212.324 165.395 211.957 165.26C210.498 164.619 209.278 163.485 208.057 162.422C207.445 161.885 206.85 161.311 206.14 160.857C205.452 160.405 204.744 159.997 204.099 159.53C203.459 159.065 202.854 158.532 202.544 157.862C202.264 157.181 202.128 156.369 202.057 155.586C201.917 153.995 202.043 152.375 202.083 150.74C202.159 149.09 202.024 147.429 201.926 145.81L201.612 140.935C201.381 137.714 201.652 134.42 201.043 131.121L200.523 131.596C203.461 132.307 206.444 132.106 209.334 131.764C210.786 131.575 212.217 131.397 213.667 131.134C215.103 130.839 216.488 130.385 217.936 130.275L217.932 130.187C216.464 130.205 215.031 130.576 213.605 130.775C212.18 130.948 210.717 131.082 209.278 131.202C207.834 131.309 206.39 131.383 204.956 131.352C203.522 131.319 202.095 131.167 200.74 130.791L200.118 130.619L200.22 131.268C200.719 134.423 200.49 137.7 200.686 140.986C200.823 144.253 201.32 147.517 201.272 150.722C201.242 152.346 201.194 153.996 201.386 155.656C201.494 156.49 201.642 157.307 202.009 158.125C202.423 158.936 203.121 159.489 203.803 159.955C204.494 160.422 205.218 160.805 205.908 161.225C206.59 161.628 207.197 162.171 207.828 162.688C209.087 163.718 210.302 164.861 211.857 165.518C212.254 165.66 212.679 165.759 213.126 165.706C213.6 165.592 213.901 165.289 214.218 165.023C214.832 164.467 215.351 163.817 215.927 163.273C217.117 162.157 218.345 161.075 219.488 159.894C220.058 159.291 220.624 158.734 221.137 158.02C221.648 157.309 221.884 156.4 221.946 155.568L222.218 150.672C222.351 147.408 222.42 144.127 222.208 140.854C221.997 137.581 221.46 134.326 220.548 131.187L220.464 131.204Z" fill="#2E2F2D"/>
<path d="M201.216 137.247C204.14 137.148 207.106 137.154 210.051 136.795C213.011 136.454 215.812 135.519 218.74 135.213C215.796 135.324 212.904 136.074 209.999 136.21C207.086 136.37 204.165 136.17 201.216 136.073V137.247Z" fill="#2E2F2D"/>
</svg>
