<svg width="69" height="68" viewBox="0 0 69 68" fill="none" xmlns="http://www.w3.org/2000/svg">
<rect x="0.666504" width="68" height="68" rx="8" fill="#4640DE"/>
<g clip-path="url(#clip0_1_2420)">
<path opacity="0.2" d="M34.6665 34C40.7416 34 45.6665 31.3137 45.6665 28C45.6665 24.6863 40.7416 22 34.6665 22C28.5914 22 23.6665 24.6863 23.6665 28C23.6665 31.3137 28.5914 34 34.6665 34Z" fill="white"/>
<path d="M34.6665 34C40.7416 34 45.6665 31.3137 45.6665 28C45.6665 24.6863 40.7416 22 34.6665 22C28.5914 22 23.6665 24.6863 23.6665 28C23.6665 31.3137 28.5914 34 34.6665 34Z" stroke="white" stroke-width="2" stroke-linecap="round" stroke-linejoin="round"/>
<path d="M23.6665 28V34C23.6665 37.3137 28.5914 40 34.6665 40C40.7416 40 45.6665 37.3137 45.6665 34V28" stroke="white" stroke-width="2" stroke-linecap="round" stroke-linejoin="round"/>
<path d="M23.6665 34V40C23.6665 43.3137 28.5914 46 34.6665 46C40.7416 46 45.6665 43.3137 45.6665 40V34" stroke="white" stroke-width="2" stroke-linecap="round" stroke-linejoin="round"/>
</g>
<defs>
<clipPath id="clip0_1_2420">
<rect width="32" height="32" fill="white" transform="translate(18.6665 18)"/>
</clipPath>
</defs>
</svg>
