<svg width="69" height="68" viewBox="0 0 69 68" fill="none" xmlns="http://www.w3.org/2000/svg">
<rect x="0.333496" width="68" height="68" rx="8" fill="#E7F0FA"/>
<g clip-path="url(#clip0_1_2361)">
<path opacity="0.2" d="M45.054 23.3733C45.203 23.3299 45.3601 23.3217 45.5129 23.3495C45.6656 23.3772 45.8098 23.4402 45.934 23.5333C46.0582 23.6265 46.159 23.7473 46.2284 23.8861C46.2978 24.025 46.334 24.1781 46.334 24.3333V41.6667C46.334 41.8219 46.2978 41.975 46.2284 42.1139C46.159 42.2527 46.0582 42.3735 45.934 42.4667C45.8098 42.5598 45.6656 42.6228 45.5129 42.6505C45.3601 42.6783 45.203 42.6701 45.054 42.6267L33.3333 39.2081V26.7919L45.054 23.3733Z" fill="#4640DE"/>
<path d="M46.334 24.3333V41.6667C46.334 41.8219 46.2978 41.975 46.2284 42.1139C46.159 42.2527 46.0582 42.3735 45.934 42.4667C45.8098 42.5598 45.6656 42.6228 45.5129 42.6505C45.3601 42.6783 45.203 42.6701 45.054 42.6267L23.054 36.21C22.8463 36.1494 22.6638 36.0231 22.534 35.85C22.4042 35.6769 22.334 35.4664 22.334 35.25V30.75C22.334 30.5336 22.4042 30.3231 22.534 30.15C22.6638 29.9769 22.8463 29.8506 23.054 29.79L45.054 23.3733C45.203 23.3299 45.3601 23.3217 45.5129 23.3495C45.6656 23.3772 45.8098 23.4402 45.934 23.5333C46.0582 23.6265 46.159 23.7473 46.2284 23.8861C46.2978 24.025 46.334 24.1781 46.334 24.3333V24.3333Z" stroke="#4640DE" stroke-width="2" stroke-linecap="round" stroke-linejoin="round"/>
<path d="M27.3335 37.4582V42C27.3335 42.2652 27.4389 42.5196 27.6264 42.7071C27.8139 42.8947 28.0683 43 28.3335 43H32.3335C32.5987 43 32.8531 42.8947 33.0406 42.7071C33.2281 42.5196 33.3335 42.2652 33.3335 42V26.7919" stroke="#4640DE" stroke-width="2" stroke-linecap="round" stroke-linejoin="round"/>
</g>
<defs>
<clipPath id="clip0_1_2361">
<rect width="32" height="32" fill="white" transform="matrix(-1 0 0 1 50.3335 18)"/>
</clipPath>
</defs>
</svg>
