<svg width="72" height="25" viewBox="0 0 72 25" fill="none" xmlns="http://www.w3.org/2000/svg">
<g clip-path="url(#clip0_25_8043)">
<g clip-path="url(#clip1_25_8043)">
<g clip-path="url(#clip2_25_8043)">
<path fill-rule="evenodd" clip-rule="evenodd" d="M18.1845 9.26744H10.0218V11.7053H15.811C15.5248 15.1238 12.6989 16.581 10.0314 16.581C6.61866 16.581 3.64003 13.879 3.64003 10.0916C3.64003 6.40119 6.47938 3.55992 10.0391 3.55992C12.7853 3.55992 14.4038 5.32155 14.4038 5.32155L16.0992 3.55416C16.0992 3.55416 13.9226 1.11536 9.95173 1.11536C4.89642 1.11536 0.985107 5.40896 0.985107 10.0484C0.985107 14.5927 4.66397 19.0246 10.0814 19.0246C14.8457 19.0246 18.3324 15.7395 18.3324 10.8831C18.3324 9.85913 18.1845 9.26744 18.1845 9.26744ZM19.3256 13.4487C19.3256 10.3749 21.727 7.74018 25.0763 7.74018C27.8302 7.74018 30.8156 9.70352 30.8156 13.5159C30.8156 16.8422 28.249 19.2522 25.1157 19.2522C21.654 19.2522 19.3256 16.5675 19.3256 13.4487ZM28.3182 13.5005C28.3182 11.3412 26.7573 10.0003 25.11 10.0003C23.259 10.0003 21.8365 11.4892 21.8365 13.4832C21.8365 15.5215 23.2773 16.9921 25.1023 16.9921C26.764 16.9921 28.3182 15.6137 28.3182 13.5005ZM31.8308 13.4487C31.8308 10.3749 34.2322 7.74018 37.5816 7.74018C40.3354 7.74018 43.3208 9.70352 43.3208 13.5159C43.3208 16.8422 40.7542 19.2522 37.621 19.2522C34.1601 19.2522 31.8308 16.5675 31.8308 13.4487ZM40.8234 13.5005C40.8234 11.3412 39.2616 10.0003 37.6152 10.0003C35.7643 10.0003 34.3417 11.4892 34.3417 13.4832C34.3417 15.5215 35.7825 16.9921 37.6075 16.9921C39.2692 16.9921 40.8234 15.6137 40.8234 13.5005ZM44.3361 13.4909C44.3361 10.4499 46.7538 7.74018 49.8275 7.74018C51.1665 7.74018 52.175 8.26079 52.9118 9.06092V8.08598H55.3102V18.429C55.3102 22.4921 52.98 24.4305 49.9235 24.4305C47.1284 24.4305 45.5589 22.6996 44.7789 21.0398L46.9766 20.1157C47.2821 20.8573 48.1581 22.1646 49.9053 22.1646C51.714 22.1646 52.9118 20.9754 52.9118 18.99V17.8546C52.272 18.6019 51.4047 19.2532 49.7746 19.2532C47.138 19.2532 44.3361 16.9556 44.3361 13.4909ZM53.1058 13.5034C53.1058 11.2913 51.5574 9.99649 50.0513 9.99649C48.4376 9.99649 46.8527 11.3143 46.8527 13.5245C46.8527 15.6512 48.378 16.9911 50.0167 16.9911C51.5612 16.9911 53.1058 15.752 53.1058 13.5034ZM60.1763 13.488C60.1763 10.0618 62.6113 7.74018 65.5121 7.74018C67.7991 7.74018 69.5271 9.27512 70.2687 11.1126L70.6673 12.0511L62.9974 15.2545C63.4556 16.1122 64.1942 16.9988 65.8022 16.9988C67.2334 16.9988 68.0921 16.215 68.605 15.4139L70.5828 16.7375C69.6962 17.9315 68.2103 19.2638 65.7897 19.2638C62.8908 19.2638 60.1763 17.1141 60.1763 13.488ZM67.7281 11.1828C67.4092 10.5123 66.6571 9.95326 65.612 9.95326C63.956 9.95326 62.3855 11.6697 62.6065 13.3372L67.7281 11.1828ZM56.8423 18.9093H59.3608V1.9443H56.8423V18.9093Z" fill="#4640DE"/>
</g>
</g>
</g>
<defs>
<clipPath id="clip0_25_8043">
<rect width="71.7716" height="24" fill="white" transform="translate(0.0649414 0.423828)"/>
</clipPath>
<clipPath id="clip1_25_8043">
<rect width="71.7716" height="24" fill="white" transform="translate(0.0649414 0.423828)"/>
</clipPath>
<clipPath id="clip2_25_8043">
<rect width="71.7716" height="24.0134" fill="white" transform="translate(0.0649414 0.417114)"/>
</clipPath>
</defs>
</svg>
