<svg width="95" height="19" viewBox="0 0 95 19" fill="none" xmlns="http://www.w3.org/2000/svg">
<g clip-path="url(#clip0_25_8037)">
<g clip-path="url(#clip1_25_8037)">
<g clip-path="url(#clip2_25_8037)">
<path d="M5.53474 12.146C5.53474 13.1732 5.7605 13.9615 6.05492 14.4393C6.44059 15.0639 7.01721 15.3292 7.60511 15.3292C8.36328 15.3292 9.05654 15.1411 10.3923 13.2927C11.4637 11.8112 12.7251 9.73234 13.5735 8.42954L15.0108 6.22089C16.0089 4.68763 17.1649 2.98224 18.4894 1.82618C19.5711 0.883647 20.7375 0.358765 21.9124 0.358765C23.884 0.358765 25.7615 1.50165 27.1988 3.64445C28.7726 5.99137 29.5354 8.94689 29.5354 11.9974C29.5354 13.811 29.178 15.1439 28.5703 16.1965C27.9824 17.2143 26.8367 18.2311 24.9112 18.2311V15.3292C26.5601 15.3292 26.9712 13.8129 26.9712 12.0783C26.9712 9.60629 26.3955 6.86241 25.1257 4.9021C24.2245 3.51182 23.0562 2.66242 21.7722 2.66242C20.3829 2.66242 19.2645 3.7103 18.0078 5.57843C17.3399 6.57175 16.6532 7.78143 15.8838 9.14631L15.0362 10.6485C13.3327 13.668 12.901 14.3556 12.0497 15.491C10.5578 17.4786 9.28323 18.2311 7.60511 18.2311C5.6147 18.2311 4.35611 17.3695 3.57725 16.0714C2.94043 15.0122 2.6272 13.6238 2.6272 12.0416L5.5338 12.1451L5.53474 12.146Z" fill="#4640DE"/>
<path d="M4.91968 3.84955C6.25258 1.79517 8.17432 0.359741 10.3801 0.359741C11.6575 0.359741 12.9274 0.736942 14.2537 1.81963C15.7042 3.00391 17.2497 4.95199 19.178 8.16525L19.8694 9.31755C21.5391 12.099 22.4891 13.5298 23.0441 14.2042C23.759 15.0706 24.2604 15.3292 24.9104 15.3292C26.5603 15.3292 26.9723 13.8129 26.9723 12.0784L29.5355 11.9975C29.5355 13.811 29.1781 15.1439 28.5704 16.1965C27.9825 17.2143 26.8368 18.2311 24.9113 18.2311C23.7129 18.2311 22.6519 17.9715 21.4779 16.8644C20.5758 16.015 19.5214 14.5052 18.7105 13.1488L16.2968 9.11813C15.0862 7.09479 13.9753 5.58599 13.3328 4.90402C12.6415 4.16843 11.7526 3.2814 10.3341 3.2814C9.18646 3.2814 8.21101 4.08754 7.39453 5.31979L4.91968 3.84955Z" fill="#4640DE"/>
<path d="M10.3339 3.2814C9.18635 3.2814 8.21089 4.08754 7.39441 5.31979C6.24117 7.06093 5.53474 9.65524 5.53474 12.1461C5.53474 13.1733 5.7605 13.9615 6.05492 14.4394L3.57725 16.0714C2.94043 15.0122 2.6272 13.6238 2.6272 12.0417C2.6272 9.16422 3.41734 6.16543 4.91956 3.84955C6.25246 1.79517 8.17421 0.359741 10.381 0.359741L10.3339 3.2814ZM35.1859 0.925072H38.5478L44.2641 11.2666L49.9814 0.925072H53.2708V17.917H50.5279V4.89367L45.5142 13.9126H42.9406L37.9279 4.89367V17.9179H35.1859V0.925072ZM61.8637 7.26035C59.8977 7.26035 58.7125 8.74093 58.4293 10.5743H65.1042C64.9669 8.68543 63.8776 7.26035 61.8637 7.26035ZM55.7099 11.6184C55.7099 7.76171 58.2026 4.95387 61.9116 4.95387C65.5604 4.95387 67.739 7.72597 67.739 11.8244V12.5769H58.4293C58.7586 14.5711 60.0821 15.9153 62.2155 15.9153C63.918 15.9153 64.9819 15.396 65.9903 14.446L67.4483 16.2304C66.0749 17.4927 64.3291 18.2208 62.1186 18.2208C58.1039 18.2208 55.7099 15.2926 55.7099 11.6174V11.6184ZM71.0641 7.50397H68.5394V5.25676H71.0641V1.54402H73.7102V5.2577H77.5462V7.50492H73.7093V13.1958C73.7093 15.1402 74.3301 15.8306 75.8577 15.8306C76.5547 15.8306 76.9545 15.7713 77.5452 15.6726V17.8944C76.8307 18.0984 76.0909 18.2004 75.3479 18.1973C72.4911 18.1973 71.0632 16.6358 71.0632 13.5128V7.50303L71.0641 7.50397ZM88.6882 9.68816C88.1567 8.34586 86.9715 7.35817 85.2294 7.35817C82.9643 7.35817 81.5157 8.9648 81.5157 11.5817C81.5157 14.1337 82.8495 15.8174 85.1203 15.8174C86.9056 15.8174 88.1802 14.779 88.6882 13.4865V9.68816ZM91.3342 17.917H88.7371V16.1448C88.0109 17.1889 86.6893 18.2208 84.5502 18.2208C81.1075 18.2208 78.8085 15.3396 78.8085 11.5817C78.8085 7.78805 81.163 4.95387 84.696 4.95387C86.4419 4.95387 87.8115 5.65184 88.7371 6.88409V5.2577H91.3342V17.9179V17.917Z" fill="#4640DE"/>
</g>
</g>
</g>
<defs>
<clipPath id="clip0_25_8037">
<rect width="94.0649" height="18.813" fill="white" transform="translate(0 0.017334)"/>
</clipPath>
<clipPath id="clip1_25_8037">
<rect width="94.0649" height="18.813" fill="white" transform="translate(0 0.017334)"/>
</clipPath>
<clipPath id="clip2_25_8037">
<rect width="94.0649" height="18.813" fill="white" transform="translate(0 0.017334)"/>
</clipPath>
</defs>
</svg>
