<svg width="73" height="21" viewBox="0 0 73 21" fill="none" xmlns="http://www.w3.org/2000/svg">
<g clip-path="url(#clip0_25_8047)">
<g clip-path="url(#clip1_25_8047)">
<g clip-path="url(#clip2_25_8047)">
<path d="M72.113 0.913554C72.0782 0.973416 72.0357 1.04197 72.0087 1.10279C70.8095 3.95587 69.6104 6.81861 68.4112 9.67169C68.3841 9.72485 68.3693 9.78341 68.3678 9.84305C68.3663 9.90269 68.3782 9.96192 68.4025 10.0164L72.0261 19.5073C72.0522 19.5682 72.0695 19.628 72.1043 19.714C71.7915 19.6715 71.5134 19.6367 71.2353 19.5933C70.4706 19.4726 69.7147 19.3432 68.95 19.2225C68.8196 19.2061 68.7675 19.1366 68.724 19.0246C68.0723 17.3436 67.4109 15.6627 66.7515 13.973C66.7222 13.8943 66.69 13.8167 66.655 13.7403C66.6125 13.835 66.5864 13.8871 66.5603 13.947C65.8912 15.4899 65.2221 17.025 64.5617 18.5679C64.5009 18.7147 64.4314 18.7398 64.275 18.7224C63.545 18.6278 62.8151 18.5418 62.0755 18.4559C61.8245 18.4298 61.5802 18.3951 61.3031 18.3613C61.3717 18.2058 61.4238 18.0678 61.4846 17.9297C62.6664 15.2572 63.8492 12.5846 65.0397 9.91307C65.0689 9.85745 65.0848 9.79585 65.0863 9.73305C65.0878 9.67025 65.0748 9.60796 65.0483 9.551C63.9361 6.7404 62.8325 3.92208 61.7366 1.09314C61.7106 1.03328 61.6932 0.964726 61.6594 0.88652C61.728 0.88652 61.7801 0.87783 61.8332 0.87783H64.666C64.7963 0.87783 64.8485 0.921278 64.8919 1.03328C65.4906 2.56844 66.0911 4.09394 66.6907 5.6291C66.7167 5.68896 66.7428 5.74014 66.7776 5.83476C66.821 5.74883 66.8471 5.68896 66.8732 5.62814C67.5162 4.10263 68.1592 2.57713 68.7936 1.04197C68.8457 0.912589 68.9065 0.869141 69.0456 0.869141H72.1043C72.1112 0.882539 72.1146 0.897513 72.1139 0.912589L72.113 0.913554ZM4.77159 9.12038V19.3094C3.7636 19.4475 2.77298 19.5769 1.77368 19.7149V0.88652H4.38925C4.52828 0.88652 4.58042 0.929002 4.62387 1.04969C5.85779 4.46373 7.09171 7.8855 8.32563 11.3082C8.34815 11.38 8.38348 11.447 8.4299 11.5062V0.896175H11.4027V18.5167C11.1507 18.5505 10.8987 18.6017 10.6371 18.6278C9.88975 18.7147 9.15114 18.7919 8.40384 18.8788C8.2397 18.8952 8.16053 18.8604 8.10839 18.6973C7.03957 15.5767 5.96206 12.4562 4.89324 9.33473C4.86717 9.25749 4.84111 9.18894 4.81504 9.11073C4.79766 9.12039 4.78897 9.12038 4.77159 9.12038ZM21.2219 10.6797C20.6919 10.6797 20.1792 10.671 19.6578 10.6797C18.9105 10.6893 18.1719 10.7058 17.4246 10.7144C17.3116 10.7144 17.2508 10.7318 17.2508 10.8689V15.0071C17.2508 15.0419 17.2595 15.0766 17.2595 15.1278C19.0071 15.0158 20.7353 14.9125 22.4906 14.8005C22.5003 14.8874 22.508 14.955 22.508 15.0158C22.508 15.8268 22.508 16.6369 22.5177 17.4392C22.5177 17.6024 22.4559 17.6458 22.3081 17.6545C21.2132 17.7318 20.1097 17.8187 19.0157 17.9036C17.7461 18.0079 16.4765 18.1025 15.2174 18.2058C14.9195 18.2309 14.6211 18.2508 14.3224 18.2657V0.896175H22.508C22.508 0.956036 22.5177 1.0159 22.5177 1.07673V3.6025C22.5177 3.76663 22.4646 3.80043 22.3081 3.80043C20.7006 3.79174 19.093 3.80043 17.4854 3.80043C17.2508 3.80043 17.2508 3.80043 17.2508 4.02443V7.78315C18.5803 7.76578 19.8924 7.74936 21.2132 7.72329C21.2229 8.7226 21.2229 9.6881 21.2229 10.6797H21.2219ZM43.7743 0.895209V3.81008H38.4119V7.58522H42.4438C42.4535 7.66343 42.4535 7.71557 42.4535 7.77543C42.4535 8.62025 42.4438 9.47473 42.4612 10.3186C42.4612 10.4914 42.4004 10.5165 42.244 10.5165C41.0448 10.5088 39.837 10.5165 38.6378 10.5165H38.3945V17.1891H35.5009V0.88652C38.2641 0.896175 41.0101 0.896175 43.7743 0.896175V0.895209ZM24.4554 3.81008V0.894244H33.5544V3.81008H30.485V17.3794H27.5306V4.06787C27.5306 3.80912 27.5306 3.80912 27.2612 3.80912H24.4545L24.4554 3.81008ZM45.6773 0.895209H48.6057V14.6286C50.3002 14.7232 51.9773 14.8092 53.6553 14.8951V17.7742C51.004 17.6458 48.345 17.5078 45.6773 17.3784V0.894244V0.895209ZM59.0776 18.2058C58.1131 18.1363 57.1563 18.0591 56.1927 17.9905V0.894244H59.0776V18.2058Z" fill="#4640DE"/>
</g>
</g>
</g>
<defs>
<clipPath id="clip0_25_8047">
<rect width="72.0806" height="19.2968" fill="white" transform="translate(0.836426 0.775513)"/>
</clipPath>
<clipPath id="clip1_25_8047">
<rect width="72.0806" height="19.2968" fill="white" transform="translate(0.836426 0.775513)"/>
</clipPath>
<clipPath id="clip2_25_8047">
<rect width="72.0806" height="19.3102" fill="white" transform="translate(0.836426 0.768799)"/>
</clipPath>
</defs>
</svg>
