<svg width="46" height="19" viewBox="0 0 46 19" fill="none" xmlns="http://www.w3.org/2000/svg">
<g clip-path="url(#clip0_25_8051)">
<g clip-path="url(#clip1_25_8051)">
<g clip-path="url(#clip2_25_8051)">
<path fill-rule="evenodd" clip-rule="evenodd" d="M2.3147 17.1624H8.41297C7.89002 16.8981 7.68325 16.4364 7.84366 15.9338L8.41853 14.1554C8.75604 13.1123 9.09354 12.0692 9.42919 11.0261C9.45794 10.9352 9.49688 10.9111 9.59238 10.9213C9.85664 10.9445 10.119 10.9667 10.3833 10.9742C11.2031 10.9978 12.0234 10.9532 12.8358 10.8406C13.6458 10.7308 14.441 10.5309 15.2066 10.2444C17.1668 9.49526 18.5947 8.21756 19.3587 6.29174C19.6248 5.62137 19.8186 4.93523 19.839 4.20922C19.8548 3.66495 19.7695 3.14293 19.5237 2.64965C19.176 1.95424 18.6058 1.47859 17.9011 1.1485C17.0574 0.754433 16.1561 0.606079 15.2215 0.606079H7.70921C7.67213 0.606079 7.63782 0.607934 7.60722 0.609788C7.6406 0.646876 7.67398 0.68211 7.70736 0.716417C7.77505 0.787813 7.84088 0.856426 7.89466 0.935239C8.10143 1.23844 8.08752 1.56945 7.97996 1.90139L7.14547 4.48461C5.93268 8.24445 4.71988 12.0043 3.5108 15.7651C3.37274 16.2045 3.10355 16.5911 2.73936 16.8731C2.64664 16.9473 2.54557 17.0122 2.44543 17.0771C2.40186 17.1049 2.35735 17.1327 2.3147 17.1624ZM9.91134 9.64268C9.90116 9.64014 9.89096 9.63766 9.88074 9.63527L10.0903 8.98622L10.1645 8.75812C10.8933 6.50593 11.6239 4.25466 12.3499 2.00246C12.3796 1.90974 12.4167 1.87265 12.5224 1.87636C12.6772 1.881 12.8321 1.881 12.9869 1.88192C13.1575 1.88192 13.3281 1.88192 13.4987 1.88841C13.8928 1.90418 14.2683 1.99041 14.6003 2.21201C14.9869 2.46977 15.1816 2.84066 15.2678 3.27645C15.3708 3.80496 15.3179 4.32976 15.2066 4.84993C15.0027 5.79012 14.6976 6.69322 14.2016 7.52771C13.7806 8.23796 13.2373 8.83694 12.4918 9.2412C11.731 9.66171 10.8494 9.80989 9.99294 9.66123C9.96525 9.65746 9.93794 9.65125 9.91134 9.64268Z" fill="#4640DE"/>
<path d="M44.043 1.36365C43.8112 2.10728 43.5803 2.84348 43.3476 3.59267C43.2943 3.55385 43.2421 3.51365 43.1909 3.47213C42.5761 2.97886 41.9113 2.57088 41.1677 2.30292C40.542 2.06841 39.8731 1.97194 39.2066 2.02012C38.4964 2.07575 37.8446 2.31497 37.2382 2.67844C36.4361 3.15874 35.7825 3.805 35.2169 4.5375C34.2405 5.805 33.5442 7.21714 33.0657 8.73684C32.7643 9.66659 32.5279 10.6162 32.3583 11.5787C32.2405 12.2797 32.1756 12.9863 32.2146 13.6984C32.2489 14.3196 32.3629 14.926 32.6772 15.4777C33.0527 16.136 33.6295 16.5069 34.3722 16.6339C34.8061 16.7081 35.241 16.6868 35.673 16.6117C35.75 16.5996 35.7871 16.5634 35.8093 16.4911C36.4306 14.5106 37.0527 12.5319 37.6768 10.5514C37.8668 9.94593 37.6721 9.44709 37.1204 9.12627C37.0694 9.09567 37.0166 9.06971 36.9415 9.02706H43.5237C43.4347 9.06786 43.3615 9.09753 43.2901 9.13183C42.6754 9.41649 42.2831 9.88102 42.081 10.5291C41.4737 12.467 40.8469 14.3993 40.2414 16.3391C40.2128 16.4495 40.1582 16.5516 40.082 16.6366C40.0059 16.7216 39.9105 16.7872 39.8038 16.8277C38.7393 17.2978 37.6397 17.6436 36.4908 17.8374C35.7565 17.9626 35.0138 18.0136 34.2683 17.9802C33.0351 17.9283 31.8576 17.6511 30.7588 17.0762C29.929 16.6422 29.3346 15.9774 28.9118 15.1522C28.5734 14.4902 28.3824 13.7837 28.2767 13.0502C28.1895 12.4271 28.1649 11.7969 28.2034 11.1689C28.2818 9.76617 28.6069 8.38823 29.164 7.09846C30.3434 4.35577 32.3722 2.48094 35.1306 1.36365C35.928 1.04099 36.7625 0.847198 37.6156 0.725733C38.4903 0.605073 39.3752 0.574005 40.2563 0.633012C41.5284 0.713679 42.7709 0.957536 43.9864 1.3414C44.006 1.34677 44.025 1.35423 44.043 1.36365Z" fill="#4640DE"/>
<path fill-rule="evenodd" clip-rule="evenodd" d="M24.0102 14.1619L24.0584 14.0952C24.3782 13.6766 24.5641 13.1711 24.5915 12.645C24.6082 12.3205 24.4617 12.0637 24.1715 11.8634H26.4014C26.3171 13.1726 25.7376 14.2584 24.7352 15.1809C25.9814 16.3251 27.4177 17.1466 29.0199 17.7586H28.904C27.541 17.7586 26.1808 17.7586 24.8187 17.7604C24.7203 17.7662 24.6229 17.7384 24.5424 17.6816C24.1455 17.3812 23.7487 17.0808 23.3555 16.7776C23.2651 16.7088 23.1796 16.6339 23.0996 16.5532C23.0403 16.4929 22.9976 16.5013 22.9318 16.5458C22.2818 16.975 21.5838 17.3266 20.8521 17.5935C20.0602 17.8819 19.2461 18.0303 18.395 17.9802C17.5697 17.932 16.7881 17.754 16.1177 17.269C15.3815 16.7359 14.9569 16.034 14.8595 15.1605C14.7019 13.7391 15.2434 12.6014 16.4209 11.7206C17.0449 11.2542 17.7468 10.9213 18.4858 10.6571C18.891 10.5106 19.3009 10.3743 19.7098 10.238C19.7867 10.212 19.8117 10.1796 19.808 10.1017C19.7619 9.34975 19.8402 8.59535 20.0398 7.86895C20.2438 7.13182 20.5702 6.45402 21.1367 5.89677C21.7793 5.26627 22.5758 4.90929 23.4854 4.78319C24.1251 4.69418 24.7501 4.75259 25.3398 5.00757C25.9962 5.28945 26.4803 5.72709 26.6416 6.41694C26.7807 7.01777 26.6156 7.56668 26.2679 8.07386C25.9063 8.59866 25.4149 8.99737 24.8734 9.346C24.2689 9.73357 23.6105 10.0256 22.9513 10.3168L22.7492 10.4067L22.649 10.4522C22.5748 10.4865 22.4988 10.5198 22.4228 10.5504C22.3653 10.5746 22.3486 10.6033 22.3588 10.6654C22.4886 11.4369 22.7473 12.1675 23.1423 12.8518C23.3148 13.1522 23.5039 13.4471 23.6912 13.7419C23.783 13.8847 23.8739 14.0266 23.9629 14.1703L24.0092 14.1629L24.0102 14.1619ZM20.0371 11.5212C20.0288 11.5236 20.0204 11.5258 20.012 11.5277C20.003 11.5297 19.9943 11.5329 19.9861 11.537C19.3648 11.8152 18.7992 12.1721 18.3226 12.6432C17.7348 13.2245 17.3843 13.8903 17.503 14.722C17.5735 15.2162 17.7876 15.6353 18.2253 15.9301C18.7315 16.2704 19.3101 16.3594 19.9128 16.2992C20.6639 16.2231 21.3528 15.9644 22.0148 15.6279C22.0343 15.6186 22.0519 15.6065 22.0704 15.5945C22.0797 15.588 22.089 15.5815 22.1001 15.5759C21.1516 14.339 20.4868 12.9834 20.0371 11.5212ZM22.1808 9.41368C22.1686 9.41707 22.1566 9.42078 22.1446 9.42481C22.1418 9.38708 22.1387 9.34938 22.1353 9.31169C22.1294 9.25246 22.1248 9.1931 22.1214 9.13367C22.0769 8.31216 22.1863 7.51475 22.5841 6.77113C22.7964 6.36965 23.0802 6.02565 23.5002 5.79756C23.7005 5.68908 23.9128 5.62881 24.1418 5.66497C24.5619 5.72895 24.7232 5.97744 24.6954 6.38448C24.6657 6.811 24.483 7.1893 24.2429 7.54443C23.7617 8.2556 23.1312 8.82954 22.395 9.30242C22.3488 9.33154 22.3012 9.35815 22.2522 9.38216L22.2123 9.40256C22.2022 9.40741 22.1917 9.41115 22.1808 9.41368Z" fill="#4640DE"/>
</g>
</g>
</g>
<defs>
<clipPath id="clip0_25_8051">
<rect width="44.5196" height="18.5308" fill="white" transform="translate(0.916992 0.158447)"/>
</clipPath>
<clipPath id="clip1_25_8051">
<rect width="44.5196" height="18.5308" fill="white" transform="translate(0.916992 0.158447)"/>
</clipPath>
<clipPath id="clip2_25_8051">
<rect width="44.5196" height="18.5442" fill="white" transform="translate(0.916992 0.151733)"/>
</clipPath>
</defs>
</svg>
