<svg width="111" height="23" viewBox="0 0 111 23" fill="none" xmlns="http://www.w3.org/2000/svg">
<g clip-path="url(#clip0_25_8067)">
<g clip-path="url(#clip1_25_8067)">
<g clip-path="url(#clip2_25_8067)">
<path d="M10.9327 22.109C8.53976 22.1045 6.21763 21.2969 4.33842 19.8155C2.45921 18.3341 1.13173 16.2647 0.568724 13.939C0.00572112 11.6132 0.239794 9.16582 1.23343 6.98897C2.22706 4.81212 3.92273 3.03186 6.04867 1.93352C8.17461 0.835168 10.6077 0.482323 12.9581 0.931528C15.3085 1.38073 17.44 2.60598 19.011 4.4109C20.5821 6.21583 21.5017 8.49592 21.6226 10.8858C21.7434 13.2756 21.0585 15.6369 19.6775 17.591C18.6922 18.9934 17.3823 20.1367 15.8596 20.9234C14.3369 21.7101 12.6465 22.1168 10.9327 22.109ZM10.959 3.18325C8.99276 3.18193 7.09094 3.88402 5.59724 5.16263C4.10354 6.44124 3.11651 8.21201 2.81455 10.1549C2.51259 12.0978 2.91561 14.0846 3.95079 15.7562C4.98596 17.4279 6.58498 18.6741 8.45884 19.2696C10.3327 19.8651 12.3578 19.7706 14.1681 19.0032C15.9783 18.2358 17.4544 16.8462 18.3294 15.0854C19.2044 13.3246 19.4207 11.3089 18.9392 9.40258C18.4576 7.49625 17.31 5.82508 15.7037 4.6911C14.3154 3.71138 12.6582 3.18484 10.959 3.1836V3.18325ZM28.264 18.6103V13.9905H30.2531C33.9532 13.9905 36.1775 11.9158 36.1775 8.83588C36.1775 5.9272 33.9319 4.2376 30.6808 4.2376H25.8687V18.6103H28.264ZM30.574 6.37631C32.4774 6.37631 33.7607 7.2533 33.7607 9.11394C33.7607 10.8251 32.3278 11.8518 30.4456 11.8518H28.264V6.37649L30.574 6.37631ZM69.4143 13.5842C69.4143 10.6111 67.1686 8.36537 64.1957 8.36537C63.5075 8.36433 62.8259 8.50019 62.1907 8.76504C61.5554 9.02989 60.9792 9.41844 60.4955 9.90808C60.0119 10.3977 59.6304 10.9787 59.3734 11.6171C59.1163 12.2556 58.9889 12.9388 58.9984 13.627C58.9984 16.6213 61.1586 18.8028 64.1957 18.8028C64.8838 18.8126 65.5668 18.6844 66.2044 18.4256C66.842 18.1669 67.4213 17.7829 67.9079 17.2963C68.3944 16.8097 68.7785 16.2305 69.0372 15.5929C69.296 14.9552 69.4242 14.2722 69.4143 13.5842ZM61.2655 13.5842C61.2655 11.8732 62.5282 10.4971 64.1957 10.5471C66.0392 10.6021 67.1858 11.8853 67.1472 13.5842C67.1085 15.2946 65.8639 16.6213 64.1957 16.6213C62.5274 16.6213 61.2655 15.2952 61.2655 13.5842ZM91.9575 14.1829C92.0101 13.8362 92.0316 13.4855 92.0215 13.135C92.0215 10.3332 89.8828 8.36537 87.1664 8.36537C86.4844 8.35694 85.8075 8.48506 85.1758 8.7422C84.544 8.99933 83.97 9.38028 83.4877 9.8626C83.0054 10.3449 82.6245 10.9189 82.3674 11.5507C82.1103 12.1825 81.9822 12.8593 81.9906 13.5414C81.9906 16.5999 84.0225 18.8028 87.1024 18.8028C89.1769 18.8028 90.9093 17.8189 91.6366 16.4502L89.8613 15.4662C89.3909 16.236 88.3857 16.7707 87.252 16.7707C85.6693 16.7707 84.5572 15.8083 84.322 14.1827L91.9575 14.1829ZM84.4502 12.4505C84.7497 11.1246 85.7335 10.3118 87.1024 10.3118C88.4925 10.3118 89.5406 11.1886 89.669 12.4505H84.4502ZM56.496 8.558L53.7154 15.7229L51.2346 8.55782H48.6466L52.368 18.6103L50.8281 22.1393H53.2877L58.9555 8.55782L56.496 8.558ZM110.886 8.60063C110.566 8.51184 110.234 8.46867 109.902 8.47238C108.918 8.47238 107.806 9.02851 107.335 9.99093V8.55782H105.068V18.6103H107.335V13.2421C107.335 11.3812 108.576 10.6111 109.859 10.6111C110.197 10.6043 110.535 10.6403 110.864 10.7181L110.886 8.60063ZM103.4 14.1829C103.453 13.8362 103.474 13.4855 103.464 13.135C103.464 10.3332 101.325 8.36537 98.6091 8.36537C97.927 8.35694 97.2502 8.48506 96.6184 8.7422C95.9866 8.99933 95.4127 9.38028 94.9304 9.8626C94.4481 10.3449 94.0671 10.9189 93.81 11.5507C93.5529 12.1825 93.4248 12.8593 93.4333 13.5414C93.4333 16.5999 95.4651 18.8028 98.545 18.8028C100.62 18.8028 102.352 17.8189 103.079 16.4502L101.304 15.4664C100.834 16.2362 99.8283 16.7709 98.6947 16.7709C97.1119 16.7709 95.9998 15.8085 95.7646 14.1829H103.4ZM95.8926 12.4505C96.1921 11.1246 97.1759 10.3118 98.5449 10.3118C99.935 10.3118 100.983 11.1886 101.111 12.4505H95.8926ZM45.0532 13.5628C45.0629 13.9839 44.9872 14.4027 44.8305 14.7938C44.6738 15.1848 44.4394 15.54 44.1415 15.8379C43.8436 16.1358 43.4884 16.3702 43.0973 16.5269C42.7062 16.6836 42.2874 16.7593 41.8663 16.7495C40.1125 16.7495 38.9362 15.3808 38.9362 13.5628C38.9439 12.7293 39.277 11.9319 39.8644 11.3405C40.4517 10.7491 41.2469 10.4107 42.0803 10.3972C43.8555 10.3972 45.0532 11.7661 45.0532 13.5628ZM80.4503 12.8784C80.4503 10.0765 79.0816 8.36537 76.515 8.36537C75.1677 8.36537 73.927 8.9429 73.2426 9.86269V8.558H70.9541V18.6103H73.2426V13.1565C73.2426 11.4667 74.4619 10.3972 75.9162 10.3972C77.3706 10.3972 78.1406 11.3812 78.1406 13.0494V18.6103H80.4505V12.8786L80.4503 12.8784ZM45.0535 8.55765V9.86234C44.3904 8.98553 43.3211 8.3652 41.717 8.3652C38.9365 8.3652 36.6266 10.8248 36.6266 13.7124C36.6266 16.6211 38.6157 18.8026 41.2893 18.8026C43.0217 18.8026 44.3264 18.1824 45.0535 17.1558V18.6101H47.2992V8.55782L45.0535 8.55765Z" fill="#4640DE"/>
</g>
</g>
</g>
<defs>
<clipPath id="clip0_25_8067">
<rect width="110.768" height="21.5006" fill="white" transform="translate(0.19043 0.673584)"/>
</clipPath>
<clipPath id="clip1_25_8067">
<rect width="110.768" height="21.5006" fill="white" transform="translate(0.19043 0.673584)"/>
</clipPath>
<clipPath id="clip2_25_8067">
<rect width="110.755" height="21.5006" fill="white" transform="translate(0.197021 0.673584)"/>
</clipPath>
</defs>
</svg>
