<svg width="72" height="18" viewBox="0 0 72 18" fill="none" xmlns="http://www.w3.org/2000/svg">
<g clip-path="url(#clip0_25_8057)">
<g clip-path="url(#clip1_25_8057)">
<g clip-path="url(#clip2_25_8057)">
<path fill-rule="evenodd" clip-rule="evenodd" d="M10.2398 1.12769H4.8625C4.49493 1.12769 4.18135 1.36737 4.12356 1.69232L1.95029 14.028C1.90672 14.2715 2.11798 14.4903 2.39366 14.4903H4.96103C5.32861 14.4903 5.64219 14.2516 5.69998 13.9257L6.28545 10.5985C6.34229 10.2726 6.65587 10.0339 7.0244 10.0339H8.72587C12.2681 10.0339 14.3125 8.49916 14.8459 5.46095C15.0865 4.13179 14.8553 3.08684 14.16 2.35547C13.3955 1.55305 12.0398 1.12769 10.2398 1.12769ZM10.8603 5.63432C10.5666 7.36042 9.09156 7.36042 7.66671 7.36042H6.85482L7.42419 4.13653C7.45829 3.94232 7.64682 3.79832 7.86661 3.79832H8.23893C9.20998 3.79832 10.1261 3.79832 10.5988 4.29379C10.8811 4.58937 10.9683 5.028 10.8603 5.63432ZM25.8657 5.80105H23.3267C23.1098 5.80105 22.9231 5.94505 22.89 6.14116L22.7763 6.79011L22.6001 6.55421C22.0506 5.82569 20.8238 5.58221 19.5998 5.58221C16.7937 5.58221 14.3968 7.52337 13.9298 10.2452C13.6872 11.6027 14.033 12.9016 14.8762 13.8073C15.6502 14.64 16.7577 14.9867 18.0745 14.9867C20.3359 14.9867 21.5892 13.6595 21.5892 13.6595L21.4765 14.3037C21.4339 14.55 21.6423 14.7707 21.9123 14.7707H24.2002C24.564 14.7707 24.8709 14.5301 24.9278 14.2023L26.3015 6.26621C26.3441 6.02274 26.1366 5.80105 25.8657 5.80105ZM22.3253 10.3134C22.0809 11.6378 20.9289 12.5274 19.4605 12.5274C18.7235 12.5274 18.1342 12.3114 17.7552 11.9021C17.3801 11.4947 17.237 10.9168 17.3573 10.2726C17.5857 8.95958 18.7566 8.04158 20.2023 8.04158C20.9242 8.04158 21.5097 8.25947 21.8962 8.67253C22.2827 9.08937 22.4362 9.672 22.3253 10.3134ZM39.9341 5.58221H37.3449C37.2264 5.58047 37.1091 5.60566 37.0018 5.65587C36.8945 5.70609 36.7999 5.78003 36.7253 5.87211L33.1547 10.5161L31.6418 6.054C31.547 5.77453 31.2543 5.58221 30.9237 5.58221H28.38C28.0711 5.58221 27.8561 5.84937 27.9546 6.10611L30.8062 13.4956L28.1251 16.836C27.9148 17.0994 28.127 17.4613 28.4908 17.4613H31.0771C31.1942 17.4632 31.3101 17.4387 31.4164 17.3896C31.5227 17.3406 31.6165 17.2683 31.691 17.178L40.3026 6.20369C40.5082 5.94126 40.2969 5.58221 39.9341 5.58221ZM48.1373 1.12769H42.7591C42.3925 1.12769 42.0789 1.36737 42.0221 1.69232L39.8469 14.028C39.8033 14.2715 40.0146 14.4903 40.2884 14.4903H43.049C43.3048 14.4903 43.5246 14.3236 43.5644 14.0953L44.1821 10.5985C44.2389 10.2726 44.5516 10.0339 44.9191 10.0339H46.6206C50.1638 10.0339 52.2072 8.49916 52.7416 5.46095C52.9841 4.13179 52.751 3.08684 52.0557 2.35547C51.2921 1.55305 49.9373 1.12769 48.1373 1.12769ZM48.7579 5.63432C48.4642 7.36042 46.991 7.36042 45.5643 7.36042H44.7533L45.3237 4.13653C45.3578 3.94232 45.5444 3.79832 45.7651 3.79832H46.1375C47.1076 3.79832 48.0246 3.79832 48.4983 4.29379C48.7806 4.58937 48.8659 5.028 48.7579 5.63432ZM63.7604 5.80105H61.2215C61.0036 5.80105 60.8188 5.94505 60.7857 6.14116L60.6739 6.79011L60.4958 6.55421C59.9463 5.82569 58.7204 5.58221 57.4973 5.58221C54.6903 5.58221 52.2944 7.52337 51.8273 10.2452C51.5858 11.6027 51.9297 12.9016 52.7728 13.8073C53.5487 14.64 54.6543 14.9867 55.9721 14.9867C58.2325 14.9867 59.4868 13.6595 59.4868 13.6595L59.3731 14.3037C59.3305 14.55 59.5389 14.7707 59.8108 14.7707H62.0978C62.4597 14.7707 62.7685 14.5301 62.8253 14.2023L64.199 6.26621C64.2407 6.02274 64.0323 5.80105 63.7604 5.80105ZM60.2201 10.3134C59.9766 11.6378 58.8237 12.5274 57.3552 12.5274C56.6191 12.5274 56.0289 12.3114 55.65 11.9021C55.2748 11.4947 55.1337 10.9168 55.2521 10.2726C55.4813 8.95958 56.6513 8.04158 58.097 8.04158C58.818 8.04158 59.4044 8.25947 59.7909 8.67253C60.1793 9.08937 60.3328 9.672 60.2201 10.3134ZM66.8896 1.46684L64.7504 14.0289C64.7087 14.2724 64.9124 14.4913 65.1786 14.4913H67.3291C67.6863 14.4913 67.9894 14.2525 68.0444 13.9266L70.1532 1.5919C70.1949 1.34748 69.9912 1.12769 69.725 1.12769H67.3168C67.1037 1.12863 66.9208 1.27169 66.8877 1.46684H66.8896Z" fill="#4640DE"/>
</g>
</g>
</g>
<defs>
<clipPath id="clip0_25_8057">
<rect width="71.234" height="17.0526" fill="white" transform="translate(0.436768 0.897461)"/>
</clipPath>
<clipPath id="clip1_25_8057">
<rect width="71.234" height="17.0526" fill="white" transform="translate(0.436768 0.897461)"/>
</clipPath>
<clipPath id="clip2_25_8057">
<rect width="71.234" height="17.0526" fill="white" transform="translate(0.436768 0.897461)"/>
</clipPath>
</defs>
</svg>
