<svg width="530" height="549" viewBox="0 0 530 549" fill="none" xmlns="http://www.w3.org/2000/svg">
<path d="M159.355 276.667C197.044 269.75 224.054 281.717 245.125 300.131C266.197 318.548 272.868 347.413 336.907 360.456C400.944 373.502 422.838 404.099 427.324 442.712C431.81 481.329 401.47 537.765 330.42 537.765C259.37 537.765 215.447 537.765 189.627 537.765C163.805 537.765 105.633 531.825 80.7023 474.793C55.7716 417.762 52.5056 296.27 159.355 276.667Z" fill="white"/>
<path d="M130.512 306.201C137.135 295.487 140.954 291.669 156.236 288.103C171.523 284.539 227.915 303.398 241.652 311.715C255.39 320.032 275.696 348.55 299.736 363.426C323.777 378.305 382.84 388.849 392.253 454.99C399.216 503.945 371.854 527.067 343.675 537.068C339.422 537.518 335.011 537.765 330.42 537.765C304.31 537.765 281.879 537.765 262.643 537.765C255.365 516.289 234.51 480.044 190.117 441.92C128.784 389.247 123.887 316.916 130.512 306.201Z" fill="#E9E9E9"/>
<path d="M159.355 276.667C197.044 269.75 224.054 281.717 245.125 300.131C266.197 318.548 272.868 347.413 336.907 360.456C400.944 373.502 422.838 404.099 427.324 442.712C431.81 481.329 401.47 537.765 330.42 537.765C259.37 537.765 215.447 537.765 189.627 537.765C163.805 537.765 105.633 531.825 80.7023 474.793C55.7716 417.762 52.5055 296.27 159.355 276.667Z" stroke="#121224" stroke-width="0.75" stroke-miterlimit="10" stroke-linecap="round" stroke-linejoin="round"/>
<path d="M429.141 464.299L457.283 501.071L454.099 514.203L440.418 520.638C440.418 520.638 438.828 515.131 435.072 510.262C431.318 505.391 410.801 479.944 410.801 479.944L429.141 464.299Z" fill="white" stroke="#121224" stroke-width="0.75" stroke-miterlimit="10" stroke-linecap="round" stroke-linejoin="round"/>
<path d="M447.022 541.238L451.915 548.5L529 503.257L524.11 495.99L499.812 510.264L447.022 541.238Z" fill="white"/>
<path d="M468.05 494.02C461.327 493.276 459.009 490.726 456.85 492.206C454.673 493.716 453.836 498.217 458.127 501.071C459.379 500.283 460.93 499.795 463.203 499.47C467.932 498.753 487.059 496.361 491.325 495.991C495.589 495.618 496.355 498.519 496.355 498.519C496.333 496.059 496.775 494.365 497.027 493.6C497.027 493.6 495.915 491.487 492.137 492.116C488.383 492.742 474.75 494.74 468.05 494.02Z" fill="#E9E9E9"/>
<path d="M491.327 495.99C487.061 496.36 467.934 498.753 463.205 499.47C460.933 499.797 459.381 500.283 458.129 501.071C456.759 501.906 455.764 503.114 454.675 504.971C452.564 508.544 449.388 512.303 445.331 514.554C441.278 516.804 439.098 516.296 438.862 519.844C438.653 523.392 441.019 533.697 447.025 541.238L499.814 510.264C497.147 505.529 496.406 501.493 496.36 498.522C496.356 498.522 495.591 495.618 491.327 495.99Z" fill="white"/>
<path d="M497.029 493.602C496.775 494.367 496.335 496.061 496.358 498.521C496.405 501.493 497.147 505.529 499.812 510.264L524.11 495.993C524.11 495.993 517.848 485.412 497.192 493.164C497.192 493.164 497.122 493.323 497.029 493.602Z" fill="white"/>
<path d="M447.022 541.238L499.812 510.264L524.11 495.991L529 503.257L451.915 548.5L447.022 541.238Z" stroke="#121224" stroke-width="0.75" stroke-miterlimit="10" stroke-linecap="round" stroke-linejoin="round"/>
<path d="M524.11 495.991C524.11 495.991 517.848 485.41 497.192 493.162C497.192 493.162 497.124 493.321 497.029 493.6C496.775 494.365 496.335 496.059 496.358 498.519C496.405 501.491 497.147 505.527 499.812 510.262" stroke="#121224" stroke-width="0.75" stroke-miterlimit="10" stroke-linecap="round" stroke-linejoin="round"/>
<path d="M496.355 498.522C496.355 498.522 495.591 495.621 491.325 495.993C487.059 496.363 467.932 498.755 463.203 499.473C460.93 499.8 459.379 500.285 458.127 501.073C456.757 501.908 455.761 503.116 454.673 504.973C452.561 508.546 449.386 512.305 445.328 514.557C441.275 516.806 439.095 516.298 438.86 519.846C438.651 523.394 441.017 533.7 447.022 541.24" stroke="#121224" stroke-width="0.75" stroke-miterlimit="10" stroke-linecap="round" stroke-linejoin="round"/>
<path d="M497.029 493.602C497.029 493.602 495.918 491.489 492.139 492.118C488.383 492.742 474.75 494.74 468.05 494.022C461.327 493.278 459.009 490.729 456.85 492.209C454.673 493.718 453.836 498.22 458.127 501.073" stroke="#121224" stroke-width="0.75" stroke-miterlimit="10" stroke-linecap="round" stroke-linejoin="round"/>
<path d="M486.68 500.41C486.594 501.395 487.322 502.263 488.306 502.351C489.291 502.437 490.157 501.711 490.241 500.724L491.042 491.578C491.13 490.593 490.402 489.725 489.42 489.639C488.436 489.555 487.569 490.282 487.481 491.264L486.68 500.41Z" fill="white" stroke="#121224" stroke-width="0.75" stroke-miterlimit="10" stroke-linecap="round" stroke-linejoin="round"/>
<path d="M479.214 501.772C479.125 502.757 479.853 503.627 480.835 503.713C481.822 503.795 482.688 503.068 482.772 502.083L483.713 492.152C483.802 491.167 483.074 490.302 482.092 490.211C481.107 490.132 480.241 490.856 480.155 491.841L479.214 501.772Z" fill="white" stroke="#121224" stroke-width="0.75" stroke-miterlimit="10" stroke-linecap="round" stroke-linejoin="round"/>
<path d="M471.745 503.137C471.661 504.124 472.387 504.991 473.371 505.077C474.355 505.164 475.222 504.435 475.308 503.45L476.392 492.735C476.478 491.75 475.752 490.885 474.768 490.797C473.784 490.713 472.917 491.439 472.831 492.424L471.745 503.137Z" fill="white" stroke="#121224" stroke-width="0.75" stroke-miterlimit="10" stroke-linecap="round" stroke-linejoin="round"/>
<path d="M464.278 504.501C464.192 505.481 464.918 506.353 465.902 506.439C466.884 506.528 467.753 505.799 467.839 504.812L469.066 493.317C469.152 492.331 468.427 491.464 467.442 491.378C466.46 491.294 465.592 492.02 465.505 493.003L464.278 504.501Z" fill="white" stroke="#121224" stroke-width="0.75" stroke-miterlimit="10" stroke-linecap="round" stroke-linejoin="round"/>
<path d="M365.238 366.399L433.341 467.271L406.782 490.838L346.651 415.388C346.651 415.388 309.869 431.428 301.16 431.428C292.455 431.428 261.389 431.428 257.234 431.428C253.079 431.428 236.241 428.622 229.981 411.229C226.821 402.44 221.918 380.389 249.706 366.401H365.238V366.399Z" fill="white"/>
<path d="M249.711 366.399H365.237L389.808 402.789L358.415 430.145L346.653 415.386C346.653 415.386 309.871 431.425 301.162 431.425C292.457 431.425 261.391 431.425 257.236 431.425C253.081 431.425 236.243 428.62 229.983 411.227C226.826 402.438 221.922 380.387 249.711 366.399Z" fill="#E9E9E9"/>
<path d="M365.238 366.399L433.341 467.271L406.782 490.838L346.651 415.388C346.651 415.388 309.869 431.428 301.16 431.428C292.455 431.428 261.389 431.428 257.234 431.428C253.079 431.428 236.241 428.622 229.981 411.229C226.821 402.44 221.918 380.389 249.706 366.401H365.238V366.399Z" stroke="#121224" stroke-width="0.75" stroke-miterlimit="10" stroke-linecap="round" stroke-linejoin="round"/>
<path d="M346.653 415.386C346.653 415.386 341.271 399.198 346.462 386.277" stroke="#121224" stroke-width="0.75" stroke-miterlimit="10" stroke-linecap="round" stroke-linejoin="round"/>
<path d="M427.324 458.354L400.516 482.97" stroke="#121224" stroke-width="0.75" stroke-miterlimit="10" stroke-linecap="round" stroke-linejoin="round"/>
<path d="M156.985 207.232C159.797 227.653 161.135 233.891 154.753 244.14C148.373 254.389 141.693 269.984 153.419 280.825H208.178V205.673L156.985 207.232Z" fill="#ADB2BA" stroke="#121224" stroke-width="0.75" stroke-miterlimit="10" stroke-linecap="round" stroke-linejoin="round"/>
<path d="M213.342 257.882C216.932 261.024 229.101 266.665 231.773 268.447C234.444 270.229 247.601 287.063 249.384 294.488C251.165 301.913 249.482 316.571 250.868 326.273C252.249 335.974 265.605 374.097 265.605 374.097L199.72 411.225C199.72 411.225 195.858 398.351 195.068 387.857C194.274 377.363 191.707 368.449 183.589 357.558C175.479 346.666 150.596 304.438 148.67 293.151C146.738 281.862 148.164 276.962 155.297 270.524C159.786 266.474 173.798 259.535 173.798 259.535L213.342 257.882Z" fill="#4640DE" stroke="#121224" stroke-width="0.75" stroke-miterlimit="10" stroke-linecap="round" stroke-linejoin="round"/>
<path d="M390.951 464.299L413.604 501.071L408.46 514.203L393.82 520.638C393.82 520.638 393.049 515.131 390.019 510.262C386.993 505.391 370.275 479.944 370.275 479.944L390.951 464.299Z" fill="white" stroke="#121224" stroke-width="0.75" stroke-miterlimit="10" stroke-linecap="round" stroke-linejoin="round"/>
<path d="M400.427 541.238L405.317 548.5L482.402 503.257L477.512 495.991L453.217 510.264L400.427 541.238Z" fill="white"/>
<path d="M421.45 494.02C414.73 493.276 412.409 490.727 410.252 492.207C408.075 493.716 407.238 498.218 411.529 501.071C412.779 500.283 414.333 499.795 416.605 499.471C421.332 498.753 440.461 496.361 444.727 495.991C448.993 495.618 449.756 498.519 449.756 498.519C449.733 496.059 450.177 494.365 450.429 493.6C450.429 493.6 449.318 491.487 445.539 492.116C441.783 492.742 428.152 494.74 421.45 494.02Z" fill="#E9E9E9"/>
<path d="M444.73 495.991C440.463 496.361 421.337 498.753 416.608 499.47C414.335 499.797 412.779 500.283 411.532 501.071C410.162 501.906 409.166 503.114 408.077 504.971C405.964 508.544 402.788 512.303 398.735 514.555C394.678 516.804 392.498 516.296 392.264 519.844C392.053 523.392 394.419 533.697 400.427 541.238L453.217 510.264C450.545 505.529 449.806 501.493 449.758 498.522C449.758 498.522 448.996 495.618 444.73 495.991Z" fill="white"/>
<path d="M450.431 493.603C450.18 494.368 449.735 496.061 449.758 498.522C449.805 501.493 450.547 505.529 453.217 510.264L477.512 495.993C477.512 495.993 471.252 485.412 450.595 493.164C450.595 493.164 450.524 493.323 450.431 493.603Z" fill="white"/>
<path d="M400.427 541.238L453.217 510.264L477.512 495.991L482.402 503.257L405.317 548.5L400.427 541.238Z" stroke="#121224" stroke-width="0.75" stroke-miterlimit="10" stroke-linecap="round" stroke-linejoin="round"/>
<path d="M477.512 495.991C477.512 495.991 471.252 485.41 450.595 493.162C450.595 493.162 450.524 493.321 450.431 493.6C450.18 494.365 449.735 496.059 449.758 498.519C449.805 501.491 450.547 505.527 453.217 510.262" stroke="#121224" stroke-width="0.75" stroke-miterlimit="10" stroke-linecap="round" stroke-linejoin="round"/>
<path d="M449.758 498.522C449.758 498.522 448.996 495.621 444.729 495.993C440.463 496.363 421.337 498.756 416.608 499.473C414.335 499.8 412.779 500.285 411.532 501.073C410.162 501.908 409.166 503.116 408.077 504.973C405.963 508.546 402.788 512.305 398.735 514.557C394.678 516.806 392.498 516.298 392.264 519.846C392.053 523.394 394.419 533.7 400.427 541.241" stroke="#121224" stroke-width="0.75" stroke-miterlimit="10" stroke-linecap="round" stroke-linejoin="round"/>
<path d="M450.432 493.603C450.432 493.603 449.32 491.489 445.542 492.118C441.786 492.742 428.155 494.74 421.452 494.023C414.732 493.278 412.412 490.729 410.255 492.209C408.077 493.718 407.241 498.22 411.532 501.073" stroke="#121224" stroke-width="0.75" stroke-miterlimit="10" stroke-linecap="round" stroke-linejoin="round"/>
<path d="M440.082 500.41C439.998 501.395 440.724 502.263 441.708 502.351C442.693 502.437 443.559 501.711 443.645 500.724L444.448 491.578C444.537 490.593 443.806 489.725 442.822 489.639C441.838 489.555 440.976 490.282 440.885 491.264L440.082 500.41Z" fill="white" stroke="#121224" stroke-width="0.75" stroke-miterlimit="10" stroke-linecap="round" stroke-linejoin="round"/>
<path d="M432.618 501.772C432.53 502.757 433.255 503.627 434.24 503.713C435.224 503.795 436.09 503.068 436.177 502.083L437.12 492.152C437.209 491.167 436.483 490.302 435.498 490.211C434.514 490.132 433.648 490.856 433.562 491.841L432.618 501.772Z" fill="white" stroke="#121224" stroke-width="0.75" stroke-miterlimit="10" stroke-linecap="round" stroke-linejoin="round"/>
<path d="M425.147 503.137C425.061 504.124 425.789 504.991 426.771 505.077C427.755 505.164 428.626 504.435 428.71 503.45L429.792 492.735C429.88 491.75 429.155 490.885 428.17 490.797C427.186 490.713 426.32 491.439 426.233 492.424L425.147 503.137Z" fill="white" stroke="#121224" stroke-width="0.75" stroke-miterlimit="10" stroke-linecap="round" stroke-linejoin="round"/>
<path d="M417.68 504.501C417.592 505.481 418.32 506.353 419.306 506.439C420.291 506.528 421.157 505.799 421.241 504.812L422.468 493.317C422.554 492.331 421.829 491.464 420.842 491.378C419.858 491.294 418.996 492.02 418.905 493.003L417.68 504.501Z" fill="white" stroke="#121224" stroke-width="0.75" stroke-miterlimit="10" stroke-linecap="round" stroke-linejoin="round"/>
<path d="M341.661 366.399L394.714 467.271L364.635 490.838L315.764 415.388C315.764 415.388 276.59 431.428 267.883 431.428C259.178 431.428 228.112 431.428 223.957 431.428C219.802 431.428 203.381 428.622 199.72 411.229C197.869 402.44 196.257 380.389 226.134 366.401H341.661V366.399Z" fill="white" stroke="#121224" stroke-width="0.75" stroke-miterlimit="10" stroke-linecap="round" stroke-linejoin="round"/>
<path d="M315.764 415.386C315.764 415.386 312.795 399.198 319.919 386.277" stroke="#121224" stroke-width="0.75" stroke-miterlimit="10" stroke-linecap="round" stroke-linejoin="round"/>
<path d="M390.021 458.354L359.54 482.97" stroke="#121224" stroke-width="0.75" stroke-miterlimit="10" stroke-linecap="round" stroke-linejoin="round"/>
<path d="M179.437 227.458C179.437 227.458 180.718 239.734 180.228 246.766C179.734 253.799 173.798 259.539 173.798 259.539C173.798 259.539 183.295 275.087 205.061 271.028C214.508 269.266 215.447 260.729 214.063 258.749C212.678 256.77 204.27 250.371 204.27 227.46L179.437 227.458Z" fill="white"/>
<path d="M180.339 242.614C180.303 235.757 179.439 227.455 179.439 227.455H204.27C204.27 250.366 212.678 256.766 214.063 258.745C214.723 259.689 214.839 262.123 213.775 264.604C197.867 262.145 185.569 249.107 180.339 242.614Z" fill="#E9E9E9"/>
<path d="M179.437 227.458C179.437 227.458 180.718 239.734 180.228 246.766C179.734 253.799 173.798 259.539 173.798 259.539C173.798 259.539 183.295 275.087 205.061 271.028C214.508 269.266 215.447 260.729 214.063 258.749C212.678 256.77 204.27 250.371 204.27 227.46L179.437 227.458Z" stroke="#121224" stroke-width="0.75" stroke-miterlimit="10" stroke-linecap="round" stroke-linejoin="round"/>
<path d="M219.391 171.691C236.916 182.008 253.929 208.462 222.668 213.007H212.972V171.691H219.391Z" fill="#6A7B91" stroke="#121224" stroke-width="0.75" stroke-miterlimit="10" stroke-linecap="round" stroke-linejoin="round"/>
<path d="M213.519 178.049C225.143 185.674 227.617 196.613 227.617 208.197C227.617 219.781 227.545 220.155 228.136 226.096C228.731 232.036 223.122 247.159 215.843 248.362C207.533 249.735 188.96 245.699 180.795 232.853C171.596 229.882 164.147 222.475 163.408 203.298C162.516 180.131 191.037 163.301 213.519 178.049Z" fill="white" stroke="#121224" stroke-width="0.75" stroke-miterlimit="10" stroke-linecap="round" stroke-linejoin="round"/>
<path d="M220.593 172.508C224.488 175.43 219.505 195.476 201.399 207.062C184.699 217.749 170.532 218.55 170.532 218.55C170.532 218.55 159.521 219.022 157.672 211.22C155 199.932 157.375 181.618 176.468 171.221C193.122 162.15 213.469 167.162 220.593 172.508Z" fill="#ADB2BA" stroke="#121224" stroke-width="0.75" stroke-miterlimit="10" stroke-linecap="round" stroke-linejoin="round"/>
<path d="M177.978 219.188C177.978 219.188 174.342 212.653 168.557 213.025C162.766 213.395 164.921 222.532 168.557 227.135C172.192 231.739 178.275 233.151 180.797 232.853C180.797 232.853 180.87 226.096 177.978 219.188Z" fill="white"/>
<path d="M177.978 219.188C177.978 219.188 174.342 212.653 168.557 213.025C162.766 213.395 164.921 222.532 168.557 227.135C172.192 231.739 178.275 233.151 180.797 232.853" stroke="#121224" stroke-width="0.75" stroke-miterlimit="10" stroke-linecap="round" stroke-linejoin="round"/>
<path d="M200.854 215.331C200.854 217.111 201.984 218.553 203.379 218.553C204.769 218.553 205.898 217.111 205.898 215.331C205.898 213.554 204.769 212.11 203.379 212.11C201.984 212.11 200.854 213.554 200.854 215.331Z" fill="#121224"/>
<path d="M221.832 215.331C221.832 216.893 222.75 218.158 223.884 218.158C225.018 218.158 225.935 216.893 225.935 215.331C225.935 213.772 225.018 212.505 223.884 212.505C222.75 212.505 221.832 213.772 221.832 215.331Z" fill="#121224"/>
<path d="M217.971 228.397C217.971 228.397 219.677 227.433 218.786 224.611" stroke="#121224" stroke-width="0.75" stroke-miterlimit="10" stroke-linecap="round" stroke-linejoin="round"/>
<path d="M218.506 236.268C218.506 236.268 213.444 237.902 208.175 234.858" stroke="#121224" stroke-width="0.75" stroke-miterlimit="10" stroke-linecap="round" stroke-linejoin="round"/>
<path d="M207.506 207.232C207.506 207.232 204.835 205.82 198.532 207.232" stroke="#121224" stroke-width="0.75" stroke-miterlimit="10" stroke-linecap="round" stroke-linejoin="round"/>
<path d="M221.831 206.606C221.831 206.606 223.462 205.67 225.612 205.673" stroke="#121224" stroke-width="0.75" stroke-miterlimit="10" stroke-linecap="round" stroke-linejoin="round"/>
<path d="M228.178 244.39C228.178 244.39 220.527 244.39 218.507 244.39C216.486 244.39 214.606 244.932 213.122 246.369C211.639 247.806 208.026 250.478 207.187 251.17C206.347 251.865 204.912 252.555 205.111 253.249C205.306 253.944 207.597 255.599 210.609 254.4C213.617 253.202 215.052 252.062 216.041 251.715C217.032 251.37 219.752 251.37 219.752 251.37C219.752 251.37 219.752 263.648 219.752 264.638C219.752 265.628 226.132 272.758 227.271 273.4C228.409 274.042 231.872 273.647 232.664 273.4C233.456 273.153 238.894 271.7 238.894 271.7C238.894 271.7 249.482 307.659 251.657 315.281C253.836 322.904 264.619 328.579 271.246 327.873C277.876 327.162 278.767 315.874 277.976 310.725C277.182 305.577 247.799 259.696 246.218 257.882C244.633 256.071 229.629 244.39 228.178 244.39Z" fill="white" stroke="#121224" stroke-width="0.75" stroke-miterlimit="10" stroke-linecap="round" stroke-linejoin="round"/>
<path d="M235.778 360.456H288.014L283.412 366.399H231.178L235.778 360.456Z" fill="#E9E9E9" stroke="#121224" stroke-width="0.75" stroke-miterlimit="10" stroke-linecap="round" stroke-linejoin="round"/>
<path d="M283.412 366.399H375.419L399.903 289.465H307.901L283.412 366.399Z" fill="white" stroke="#121224" stroke-width="0.75" stroke-miterlimit="10" stroke-linecap="round" stroke-linejoin="round"/>
<path d="M344.186 336.767L347.681 334.842C356 330.268 356.908 326.929 357.255 325.671C358.078 322.645 356.297 320.189 353.272 320.189C351.367 320.189 349.423 321.165 348.039 322.643C347.459 321.165 346.048 320.189 344.145 320.189C341.119 320.189 337.996 322.645 337.173 325.671C336.828 326.929 335.919 330.268 341.736 334.842L344.186 336.767Z" fill="#7D7E7F"/>
<path d="M180.795 321.719L184.431 346.918L241.564 357.465C241.564 357.465 252.398 344.246 253.29 343.429C254.181 342.612 263.38 341.052 264.569 341.052C265.755 341.052 275.476 345.878 277.034 346.991C278.59 348.105 281.189 356.572 281.632 357.462C282.078 358.354 282.376 360.434 280.52 360.434C278.665 360.434 270.132 360.434 269.021 360.434C267.907 360.434 257.295 368.526 255.218 370.161C253.14 371.795 250.543 373.949 240.232 371.795C231.478 372.167 184.683 371.924 177.558 371.725C170.434 371.525 164.993 370.142 163.113 363.407C161.235 356.672 152.131 321.721 152.131 321.721H180.795V321.719Z" fill="white"/>
<path d="M182.489 333.45C178.833 335.166 171.076 338.113 157.06 340.587C154.494 330.794 152.129 321.719 152.129 321.719H180.795L182.489 333.45Z" fill="#E9E9E9"/>
<path d="M180.795 321.719L184.431 346.918L241.564 357.465C241.564 357.465 252.398 344.246 253.29 343.429C254.181 342.612 263.38 341.052 264.569 341.052C265.755 341.052 275.476 345.878 277.034 346.991C278.59 348.105 281.189 356.572 281.632 357.462C282.078 358.354 282.376 360.434 280.52 360.434C278.665 360.434 270.132 360.434 269.021 360.434C267.907 360.434 257.295 368.526 255.218 370.161C253.14 371.795 250.543 373.949 240.232 371.795C231.478 372.167 184.683 371.924 177.558 371.725C170.434 371.525 164.993 370.142 163.113 363.407C161.235 356.672 152.131 321.721 152.131 321.721H180.795V321.719Z" stroke="#121224" stroke-width="0.75" stroke-miterlimit="10" stroke-linecap="round" stroke-linejoin="round"/>
<path d="M180.795 298.794L183.294 327.165C183.294 327.165 160.641 328.749 145.903 327.165C145.903 327.165 142.864 298.792 148.686 279.711C153.02 280.035 179.139 274.292 180.795 298.794Z" fill="#4640DE"/>
<path d="M180.795 298.794L183.294 327.165C183.294 327.165 160.641 328.749 145.903 327.165C145.903 327.165 142.864 298.792 148.686 279.711" stroke="#121224" stroke-width="0.75" stroke-miterlimit="10" stroke-linecap="round" stroke-linejoin="round"/>
<path d="M140.657 286.16L146.311 290.87C146.311 290.87 121.662 300.529 130.566 326.67C140.298 355.24 183.397 365.289 224.946 380.142C266.494 394.994 297.486 422.516 308.654 460.935C319.055 496.71 302.868 532.488 272.55 537.239C265.118 536.226 135.61 514.598 135.61 514.598L101.873 347.211C100.292 302.002 140.657 286.16 140.657 286.16Z" fill="white"/>
<path d="M265.603 537.767C300.327 537.767 319.824 499.352 308.651 460.933C297.483 422.513 266.492 394.992 224.943 380.139C183.394 365.287 140.296 355.238 130.564 326.668C121.659 300.526 146.309 290.868 146.309 290.868" stroke="#121224" stroke-width="0.75" stroke-miterlimit="10" stroke-linecap="round" stroke-linejoin="round"/>
<path d="M55.7649 152.301C55.7649 160.58 62.4716 167.292 70.7433 167.292C79.015 167.292 85.7217 160.58 85.7217 152.301C85.7217 144.022 79.015 137.31 70.7433 137.31C62.4716 137.31 55.7649 144.022 55.7649 152.301Z" fill="white" stroke="#121224" stroke-width="0.75" stroke-miterlimit="10" stroke-linejoin="round"/>
<path d="M70.7441 172.497V178.077" stroke="#121224" stroke-width="0.75" stroke-miterlimit="10" stroke-linecap="round" stroke-linejoin="round"/>
<path d="M60.6533 169.791L57.8681 174.622" stroke="#121224" stroke-width="0.75" stroke-miterlimit="10" stroke-linecap="round" stroke-linejoin="round"/>
<path d="M53.2656 162.398L48.4415 165.188" stroke="#121224" stroke-width="0.75" stroke-miterlimit="10" stroke-linecap="round" stroke-linejoin="round"/>
<path d="M50.5625 152.299H44.9898" stroke="#121224" stroke-width="0.75" stroke-miterlimit="10" stroke-linecap="round" stroke-linejoin="round"/>
<path d="M53.2656 142.199L48.4415 139.41" stroke="#121224" stroke-width="0.75" stroke-miterlimit="10" stroke-linecap="round" stroke-linejoin="round"/>
<path d="M60.6533 134.806L57.8681 129.976" stroke="#121224" stroke-width="0.75" stroke-miterlimit="10" stroke-linecap="round" stroke-linejoin="round"/>
<path d="M70.7441 132.103V126.523" stroke="#121224" stroke-width="0.75" stroke-miterlimit="10" stroke-linecap="round" stroke-linejoin="round"/>
<path d="M80.8369 134.806L83.6221 129.976" stroke="#121224" stroke-width="0.75" stroke-miterlimit="10" stroke-linecap="round" stroke-linejoin="round"/>
<path d="M88.2237 142.202L93.0479 139.41" stroke="#121224" stroke-width="0.75" stroke-miterlimit="10" stroke-linecap="round" stroke-linejoin="round"/>
<path d="M90.9273 152.301L96.5 152.299" stroke="#121224" stroke-width="0.75" stroke-miterlimit="10" stroke-linecap="round" stroke-linejoin="round"/>
<path d="M88.2237 162.4L93.0479 165.188" stroke="#121224" stroke-width="0.75" stroke-miterlimit="10" stroke-linecap="round" stroke-linejoin="round"/>
<path d="M80.8369 169.793L83.6221 174.622" stroke="#121224" stroke-width="0.75" stroke-miterlimit="10" stroke-linecap="round" stroke-linejoin="round"/>
<path d="M70.7432 0.5V117.518" stroke="#121224" stroke-width="0.75" stroke-miterlimit="10" stroke-linejoin="round"/>
<path d="M116.956 155.754C125.688 155.754 126.985 151.645 119.836 146.626L83.7419 121.279C76.5929 116.26 64.8964 116.26 57.7475 121.279L21.6532 146.626C14.5042 151.645 15.8015 155.754 24.5336 155.754H116.956Z" fill="white" stroke="#121224" stroke-width="0.75" stroke-miterlimit="10" stroke-linejoin="round"/>
<path d="M78.1672 490.227C87.9721 483.467 82.0411 472.317 86.5864 464.933C91.1316 457.548 88.208 449.969 83.5585 445.102C78.9089 440.231 77.7635 436.238 81.0477 429.342C84.3296 422.443 80.6281 414.017 77.5412 410.16C74.4566 406.303 67.0264 400.994 64.0235 384.65C61.016 368.306 38.9589 360.826 38.9589 360.826C38.9589 360.826 24.7675 379.309 31.3382 394.57C37.9065 409.829 34.6814 418.373 34.2504 423.297C33.824 428.22 35.4253 437.286 41.98 441.198C48.5393 445.109 49.8026 449.068 48.6391 455.701C47.4733 462.336 49.247 470.263 57.1263 473.876C65.0033 477.488 66.2575 490.059 78.1672 490.227Z" fill="white" stroke="#121224" stroke-width="0.75" stroke-miterlimit="10" stroke-linecap="round" stroke-linejoin="round"/>
<path d="M78.167 490.227L38.961 360.824" stroke="#121224" stroke-width="0.75" stroke-miterlimit="10" stroke-linecap="round" stroke-linejoin="round"/>
<path d="M71.34 467.704L79.3213 452.193" stroke="#121224" stroke-width="0.75" stroke-miterlimit="10" stroke-linecap="round" stroke-linejoin="round"/>
<path d="M69.9043 463.278L53.6943 456.872" stroke="#121224" stroke-width="0.75" stroke-miterlimit="10" stroke-linecap="round" stroke-linejoin="round"/>
<path d="M48.7051 393.38L35.4005 388.128" stroke="#121224" stroke-width="0.75" stroke-miterlimit="10" stroke-linecap="round" stroke-linejoin="round"/>
<path d="M59.9932 430.433L38.5485 421.964" stroke="#121224" stroke-width="0.75" stroke-miterlimit="10" stroke-linecap="round" stroke-linejoin="round"/>
<path d="M61.0686 433.793L71.1162 414.244" stroke="#121224" stroke-width="0.75" stroke-miterlimit="10" stroke-linecap="round" stroke-linejoin="round"/>
<path d="M50.4373 398.715L56.5996 386.747" stroke="#121224" stroke-width="0.75" stroke-miterlimit="10" stroke-linecap="round" stroke-linejoin="round"/>
<path d="M79.9721 483.932C70.8771 477.788 76.2456 467.466 71.9953 460.701C67.7449 453.937 70.3713 446.929 74.6126 442.408C78.8539 437.881 79.8723 434.19 76.7899 427.866C73.7076 421.539 77.0417 413.744 79.8542 410.162C82.662 406.583 89.4572 401.625 92.0859 386.545C94.7146 371.461 114.971 364.379 114.971 364.379C114.971 364.379 128.203 381.281 122.285 395.398C116.366 409.515 119.412 417.36 119.847 421.891C120.283 426.425 118.89 434.789 112.882 438.449C106.876 442.108 105.744 445.767 106.876 451.867C108.008 457.968 106.443 465.287 99.2144 468.685C91.9861 472.081 90.9428 483.671 79.9721 483.932Z" fill="white" stroke="#121224" stroke-width="0.75" stroke-miterlimit="10" stroke-linecap="round" stroke-linejoin="round"/>
<path d="M79.972 483.932L114.971 364.377" stroke="#121224" stroke-width="0.75" stroke-miterlimit="10" stroke-linecap="round" stroke-linejoin="round"/>
<path d="M86.0615 463.121L78.5791 448.902" stroke="#121224" stroke-width="0.75" stroke-miterlimit="10" stroke-linecap="round" stroke-linejoin="round"/>
<path d="M87.348 459.033L102.227 452.993" stroke="#121224" stroke-width="0.75" stroke-miterlimit="10" stroke-linecap="round" stroke-linejoin="round"/>
<path d="M106.278 394.459L118.484 389.501" stroke="#121224" stroke-width="0.75" stroke-miterlimit="10" stroke-linecap="round" stroke-linejoin="round"/>
<path d="M96.1978 428.688L115.878 420.7" stroke="#121224" stroke-width="0.75" stroke-miterlimit="10" stroke-linecap="round" stroke-linejoin="round"/>
<path d="M95.2344 431.793L85.8104 413.872" stroke="#121224" stroke-width="0.75" stroke-miterlimit="10" stroke-linecap="round" stroke-linejoin="round"/>
<path d="M104.724 399.384L98.9446 388.416" stroke="#121224" stroke-width="0.75" stroke-miterlimit="10" stroke-linecap="round" stroke-linejoin="round"/>
<path d="M90.1629 485.903C86.8719 480.621 92.0341 476.517 91.3923 472.031C90.7527 467.543 93.7261 464.524 96.9672 463.164C100.208 461.798 101.587 460.123 101.449 456.137C101.311 452.148 104.837 448.884 107.119 447.676C109.401 446.471 114.064 445.474 118.902 438.272C123.744 431.067 135.863 432.081 135.863 432.081C135.863 432.081 138.816 443.89 132.497 449.831C126.176 455.773 125.94 460.54 125.121 462.987C124.302 465.434 121.653 469.443 117.697 469.949C113.742 470.456 112.311 472.09 111.492 475.511C110.673 478.929 108.172 482.359 103.647 482.45C99.1173 482.543 95.9057 488.302 90.1629 485.903Z" fill="white" stroke="#121224" stroke-width="0.75" stroke-miterlimit="10" stroke-linecap="round" stroke-linejoin="round"/>
<path d="M90.1627 485.903L135.862 432.084" stroke="#121224" stroke-width="0.75" stroke-miterlimit="10" stroke-linecap="round" stroke-linejoin="round"/>
<path d="M98.1172 476.535L97.5229 467.441" stroke="#121224" stroke-width="0.75" stroke-miterlimit="10" stroke-linecap="round" stroke-linejoin="round"/>
<path d="M99.7272 474.714L108.822 475.022" stroke="#121224" stroke-width="0.75" stroke-miterlimit="10" stroke-linecap="round" stroke-linejoin="round"/>
<path d="M124.423 445.651L131.885 445.905" stroke="#121224" stroke-width="0.75" stroke-miterlimit="10" stroke-linecap="round" stroke-linejoin="round"/>
<path d="M111.309 461.047L123.341 461.457" stroke="#121224" stroke-width="0.75" stroke-miterlimit="10" stroke-linecap="round" stroke-linejoin="round"/>
<path d="M110.093 462.431L109.347 450.972" stroke="#121224" stroke-width="0.75" stroke-miterlimit="10" stroke-linecap="round" stroke-linejoin="round"/>
<path d="M122.48 447.842L122.02 440.828" stroke="#121224" stroke-width="0.75" stroke-miterlimit="10" stroke-linecap="round" stroke-linejoin="round"/>
<path d="M68.7276 485.903C72.0186 480.621 66.8565 476.517 67.4984 472.031C68.138 467.543 65.1645 464.524 61.9234 463.164C58.6823 461.798 57.3033 460.123 57.4416 456.137C57.58 452.148 54.0531 448.884 51.7714 447.676C49.4897 446.471 44.8289 445.474 39.9888 438.272C35.1465 431.067 23.0258 432.081 23.0258 432.081C23.0258 432.081 20.0727 443.89 26.3916 449.831C32.7127 455.773 32.9487 460.54 33.7674 462.987C34.5862 465.434 37.2354 469.443 41.1909 469.949C45.1464 470.458 46.5776 472.09 47.3963 475.511C48.2151 478.929 50.7168 482.359 55.2416 482.45C59.7732 482.543 62.9849 488.302 68.7276 485.903Z" fill="white" stroke="#121224" stroke-width="0.75" stroke-miterlimit="10" stroke-linecap="round" stroke-linejoin="round"/>
<path d="M68.7275 485.903L23.0257 432.084" stroke="#121224" stroke-width="0.75" stroke-miterlimit="10" stroke-linecap="round" stroke-linejoin="round"/>
<path d="M60.7739 476.535L61.3682 467.441" stroke="#121224" stroke-width="0.75" stroke-miterlimit="10" stroke-linecap="round" stroke-linejoin="round"/>
<path d="M59.1631 474.714L50.0658 475.022" stroke="#121224" stroke-width="0.75" stroke-miterlimit="10" stroke-linecap="round" stroke-linejoin="round"/>
<path d="M34.4678 445.651L27.0036 445.905" stroke="#121224" stroke-width="0.75" stroke-miterlimit="10" stroke-linecap="round" stroke-linejoin="round"/>
<path d="M47.582 461.047L35.5499 461.457" stroke="#121224" stroke-width="0.75" stroke-miterlimit="10" stroke-linecap="round" stroke-linejoin="round"/>
<path d="M48.7977 462.431L49.5439 450.972" stroke="#121224" stroke-width="0.75" stroke-miterlimit="10" stroke-linecap="round" stroke-linejoin="round"/>
<path d="M36.4097 447.842L36.8701 440.828" stroke="#121224" stroke-width="0.75" stroke-miterlimit="10" stroke-linecap="round" stroke-linejoin="round"/>
<path d="M52.5109 524.486H106.378L115.071 477.195H43.8173L52.5109 524.486Z" fill="white" stroke="#121224" stroke-width="0.75" stroke-miterlimit="10" stroke-linecap="round" stroke-linejoin="round"/>
<path d="M109.047 509.86H115.811V545.672H109.047V509.86Z" fill="white" stroke="#121224" stroke-width="0.75" stroke-miterlimit="10" stroke-linecap="round" stroke-linejoin="round"/>
<path d="M43.0823 509.86H49.8457V545.672H43.0823V509.86Z" fill="white" stroke="#121224" stroke-width="0.75" stroke-miterlimit="10" stroke-linecap="round" stroke-linejoin="round"/>
<path d="M49.8435 524.486H109.045V530.728H49.8435V524.486Z" fill="white" stroke="#121224" stroke-width="0.75" stroke-miterlimit="10" stroke-linecap="round" stroke-linejoin="round"/>
<path d="M76.0647 509.86H82.8281V545.672H76.0647V509.86Z" fill="white" stroke="#121224" stroke-width="0.75" stroke-miterlimit="10" stroke-linecap="round" stroke-linejoin="round"/>
<path d="M407.524 250.521L402.981 255.07" stroke="#121224" stroke-width="0.5" stroke-miterlimit="10" stroke-linecap="round" stroke-linejoin="round"/>
<path d="M402.979 250.521L407.524 255.07" stroke="#121224" stroke-width="0.5" stroke-miterlimit="10" stroke-linecap="round" stroke-linejoin="round"/>
<path d="M29.2744 301.332L24.7314 305.881" stroke="#121224" stroke-width="0.5" stroke-miterlimit="10" stroke-linecap="round" stroke-linejoin="round"/>
<path d="M24.7311 301.332L29.2764 305.881" stroke="#121224" stroke-width="0.5" stroke-miterlimit="10" stroke-linecap="round" stroke-linejoin="round"/>
<path d="M296.787 234.922C294.987 234.922 293.528 233.461 293.528 231.66C293.528 229.858 294.987 228.398 296.787 228.398C298.587 228.398 300.046 229.858 300.046 231.66C300.046 233.461 298.587 234.922 296.787 234.922Z" fill="#275DF5" stroke="#121224" stroke-width="0.5" stroke-miterlimit="10" stroke-linecap="round" stroke-linejoin="round"/>
<path d="M90.1623 277.947C88.361 277.947 86.9008 276.486 86.9008 274.683C86.9008 272.88 88.361 271.418 90.1623 271.418C91.9636 271.418 93.4238 272.88 93.4238 274.683C93.4238 276.486 91.9636 277.947 90.1623 277.947Z" fill="#275DF5" stroke="#121224" stroke-width="0.5" stroke-miterlimit="10" stroke-linecap="round" stroke-linejoin="round"/>
<path d="M259.598 103.535L251.895 104.756L256.803 110.823L259.598 103.535Z" fill="#275DF5" stroke="#121224" stroke-width="0.5" stroke-miterlimit="10" stroke-linecap="round" stroke-linejoin="round"/>
<path d="M0.999755 203.273L8.70215 204.495L3.7963 210.562L0.999755 203.273Z" fill="#275DF5" stroke="#121224" stroke-width="0.5" stroke-miterlimit="10" stroke-linecap="round" stroke-linejoin="round"/>
<path d="M90.6865 225.547C88.1304 225.547 88.1303 227.462 85.5765 227.462C83.0181 227.462 83.0181 225.547 80.4597 225.547C77.9013 225.547 77.9013 227.462 75.3406 227.462C72.7822 227.462 72.7823 225.547 70.2239 225.547C67.6587 225.547 67.6587 227.462 65.0935 227.462C62.5328 227.462 62.5328 225.547 59.9676 225.547" stroke="#121224" stroke-width="0.5" stroke-miterlimit="10" stroke-linecap="round" stroke-linejoin="round"/>
<path d="M360.788 161.442C358.231 161.442 358.231 163.358 355.675 163.358C353.117 163.358 353.117 161.442 350.559 161.442C347.998 161.442 347.998 163.358 345.442 163.358C342.881 163.358 342.881 161.442 340.32 161.442C337.758 161.442 337.758 163.358 335.195 163.358C332.629 163.358 332.629 161.442 330.066 161.442" stroke="#121224" stroke-width="0.5" stroke-miterlimit="10" stroke-linecap="round" stroke-linejoin="round"/>
<path d="M159.314 138.152L160.518 137.376C163.381 135.53 163.385 134.179 163.39 133.671C163.394 132.45 162.405 131.458 161.185 131.458C160.416 131.458 159.738 131.85 159.339 132.45C158.944 131.85 158.266 131.458 157.502 131.458C156.279 131.458 155.286 132.45 155.279 133.671C155.277 134.179 155.272 135.528 158.116 137.376L159.314 138.152Z" fill="#275DF5" stroke="#121224" stroke-width="0.5" stroke-miterlimit="10" stroke-linecap="round" stroke-linejoin="round"/>
</svg>
