<svg width="164" height="37" viewBox="0 0 164 37" fill="none" xmlns="http://www.w3.org/2000/svg">
<rect y="0.600098" width="35.5703" height="35.5703" rx="8.29974" fill="#4640DE"/>
<path d="M28.1924 31.6758H23.4287L17.4834 25.5479L11.6055 31.6758H6.88574L17.4766 20.5283L17.4834 20.5352L17.4932 20.5283L28.1924 31.6758ZM19.2646 12.4668L23.6816 5.5957L26.6729 7.51953L22.2529 14.3906L29.6875 10.999L31.165 14.2334L23.7305 17.625L31.8193 18.79L31.3125 22.3086L17.5234 19.9834L3.65723 22.3086L3.15039 18.7871L11.2354 17.625L3.80859 14.2314L5.28516 10.9971L12.7168 14.3906L8.2998 7.5166L11.291 5.5957L15.708 12.4668V4.29883H19.2646V12.4668Z" fill="white"/>
<path d="M56.0752 21.9109C57.3363 21.9109 58.5162 22.0989 59.6143 22.4763C60.721 22.8538 61.6174 23.4339 62.3037 24.2146C62.9899 24.9867 63.333 25.9776 63.333 27.1873V32.5027C63.333 32.88 63.3422 33.2448 63.3594 33.5964C63.3765 33.948 63.4279 34.2738 63.5137 34.574C63.608 34.8914 63.7323 35.1665 63.8867 35.3982C64.041 35.6211 64.1654 35.7753 64.2598 35.8611H59.1895C59.1122 35.7839 59.0003 35.6422 58.8545 35.4363C58.7087 35.2304 58.5885 34.9941 58.4941 34.7283C58.4673 34.6478 58.4428 34.5682 58.4189 34.49C58.3138 34.5946 58.2024 34.6965 58.082 34.7927C57.5329 35.2388 56.8851 35.5828 56.1387 35.823C55.401 36.0546 54.6327 36.1697 53.835 36.1697C52.8571 36.1696 51.982 36.0156 51.21 35.7068C50.4378 35.3894 49.8289 34.9345 49.3828 34.3425C48.9367 33.742 48.7129 33.0129 48.7129 32.155C48.7129 31.1428 49.0005 30.3274 49.5752 29.7097C50.1586 29.092 50.9009 28.6238 51.8018 28.3064C52.7111 27.989 53.6507 27.7877 54.6201 27.7019C56.0014 27.5732 56.9326 27.4613 57.4131 27.3669C57.8936 27.2726 58.1338 27.1052 58.1338 26.865V26.8523C58.1337 26.5349 57.9407 26.2648 57.5547 26.0417C57.1772 25.8101 56.671 25.6941 56.0361 25.6941C55.35 25.6941 54.8395 25.8226 54.5049 26.0798C54.1703 26.3286 54.0029 26.6941 54.0029 27.1746H48.8936C48.8936 26.0249 49.2149 25.0588 49.8584 24.2781C50.5018 23.4974 51.3644 22.91 52.4453 22.5154C53.5349 22.1121 54.7453 21.9109 56.0752 21.9109ZM48.0469 5.33276C49.1708 5.33277 50.2262 5.52676 51.2129 5.91284C52.1994 6.29032 53.0015 6.83052 53.6191 7.53394C54.2369 8.23748 54.5459 9.07007 54.5459 10.031V10.1589H49.4629V10.031C49.4629 9.79077 49.3849 9.60188 49.2305 9.4646C49.0847 9.31882 48.9007 9.21096 48.6777 9.14233C48.4547 9.0737 48.2309 9.03979 48.0078 9.03979C47.8363 9.03983 47.6306 9.0614 47.3906 9.10425C47.159 9.13857 46.9568 9.20735 46.7852 9.3103C46.6139 9.41325 46.5283 9.56335 46.5283 9.7605C46.5284 9.93198 46.6353 10.0779 46.8496 10.198C47.0727 10.3181 47.3735 10.4208 47.751 10.5066C48.137 10.5838 48.5662 10.6567 49.0381 10.7253C49.527 10.794 50.0931 10.9059 50.7363 11.0603C51.3798 11.2147 52.0061 11.4468 52.6152 11.7556C53.2244 12.0559 53.7264 12.4676 54.1211 12.991C54.5243 13.5057 54.7265 14.166 54.7266 14.9724C54.7266 15.839 54.5243 16.5689 54.1211 17.1609C53.7265 17.7527 53.1944 18.2284 52.5254 18.5886C51.8648 18.949 51.1399 19.2108 50.3506 19.3738C49.5612 19.5368 48.7718 19.6189 47.9824 19.6189C47.3911 19.6189 46.8047 19.5638 46.2227 19.4578V35.9509H41.29V15.5535H41.3389C41.3074 15.3424 41.29 15.1231 41.29 14.8953V14.7664H46.4248V14.8953C46.4248 15.2556 46.5798 15.5092 46.8887 15.655C47.1975 15.8008 47.6136 15.8738 48.1367 15.8738C48.3254 15.8738 48.5443 15.8522 48.793 15.8093C49.0418 15.7578 49.2563 15.6757 49.4365 15.5642C49.6253 15.4441 49.7197 15.2901 49.7197 15.1013C49.7197 14.8182 49.5225 14.6211 49.1279 14.5095C48.7419 14.3894 48.0641 14.2518 47.0947 14.0974C46.5113 14.003 45.8933 13.8655 45.2412 13.6853C44.5894 13.4966 43.976 13.2438 43.4014 12.9265C42.8266 12.6005 42.3584 12.1887 41.998 11.6912C41.6377 11.1935 41.458 10.5796 41.458 9.85034C41.458 8.85529 41.758 8.02339 42.3584 7.35425C42.9675 6.68514 43.7696 6.183 44.7646 5.84839C45.7685 5.5052 46.8629 5.33276 48.0469 5.33276ZM93.0078 21.9109C94.1745 21.9109 95.1008 22.1512 95.7871 22.6316C96.4734 23.1035 96.9673 23.7596 97.2676 24.6003C97.5764 25.4411 97.7305 26.4022 97.7305 27.4832V35.8611H92.5439V29.0144C92.5439 28.5426 92.5008 28.0918 92.415 27.6628C92.3378 27.2342 92.1538 26.8826 91.8623 26.6082C91.5792 26.3336 91.1242 26.1961 90.498 26.196C89.9576 26.196 89.5201 26.308 89.1855 26.531C88.8509 26.7541 88.6056 27.0754 88.4512 27.4958C88.2968 27.9162 88.2197 28.4225 88.2197 29.0144V35.8611H83.0332V22.1941H88.2197V24.3572C88.6966 23.6396 89.3044 23.072 90.0469 22.657C90.922 22.1594 91.9096 21.9109 93.0078 21.9109ZM107.379 21.5759C108.588 21.576 109.652 21.7474 110.57 22.0906C111.488 22.4338 112.252 22.8886 112.861 23.4548C113.479 24.0125 113.942 24.6265 114.251 25.2957C114.568 25.9647 114.728 26.6294 114.728 27.2898V27.406H109.592C109.592 27.3546 109.588 27.3073 109.579 27.2644C109.579 27.2215 109.571 27.1784 109.554 27.1355C109.485 26.9124 109.377 26.6804 109.231 26.4402C109.086 26.2002 108.863 25.9986 108.562 25.8357C108.271 25.6641 107.859 25.5789 107.327 25.5789C106.804 25.5789 106.349 25.699 105.963 25.9392C105.585 26.1794 105.294 26.5266 105.088 26.9812C104.882 27.4359 104.779 27.9852 104.779 28.6287C104.779 29.2549 104.882 29.8125 105.088 30.3015C105.294 30.7905 105.585 31.1725 105.963 31.447C106.349 31.7215 106.804 31.8591 107.327 31.8591C107.842 31.8591 108.254 31.7811 108.562 31.6267C108.88 31.4723 109.116 31.2627 109.271 30.9968C109.433 30.7223 109.536 30.4132 109.579 30.0701H114.728C114.728 30.7221 114.568 31.3916 114.251 32.0779C113.942 32.7556 113.479 33.382 112.861 33.9568C112.252 34.523 111.488 34.982 110.57 35.3337C109.652 35.6855 108.588 35.861 107.379 35.8611C105.74 35.8611 104.333 35.548 103.157 34.9216C101.982 34.2953 101.081 33.437 100.455 32.3474C99.8288 31.2579 99.5157 30.0185 99.5156 28.6287C99.5156 27.2302 99.8288 26.0033 100.455 24.948C101.081 23.8927 101.982 23.0683 103.157 22.4763C104.333 21.8758 105.74 21.5759 107.379 21.5759ZM71.1738 28.8289C71.1738 29.3179 71.2128 29.7686 71.29 30.1804C71.3758 30.5837 71.5473 30.9101 71.8047 31.1589C72.062 31.3991 72.4483 31.5193 72.9629 31.5193C73.4777 31.5193 73.9027 31.3817 74.2373 31.1072C74.5718 30.8241 74.8204 30.4594 74.9834 30.0134C75.155 29.5588 75.2412 29.0782 75.2412 28.572V21.8542H80.4277V35.5212H75.2412V33.5486C75.0975 33.7697 74.9389 33.9768 74.7646 34.1697C74.2928 34.693 73.7137 35.0965 73.0273 35.3796C72.3496 35.6542 71.5775 35.7917 70.7109 35.7917C69.75 35.7917 68.9605 35.6418 68.3428 35.3416C67.7337 35.0413 67.2572 34.6295 66.9141 34.1062C66.5709 33.5828 66.3306 32.9905 66.1934 32.3298C66.0561 31.6607 65.9873 30.9614 65.9873 30.2322V21.8542H71.1738V28.8289ZM141.737 21.5066C143.35 21.5066 144.74 21.8106 145.907 22.4197C147.083 23.0202 147.988 23.8786 148.623 24.9939C149.258 26.1007 149.575 27.4179 149.575 28.9451C149.575 29.2024 149.571 29.4212 149.562 29.6013C149.554 29.7814 149.541 29.9273 149.523 30.0388H139.203C139.24 30.1829 139.283 30.3203 139.331 30.4509C139.528 30.9828 139.842 31.3905 140.271 31.6736C140.699 31.9481 141.261 32.0856 141.956 32.0857C142.368 32.0857 142.72 32.0549 143.012 31.9949C143.303 31.9348 143.535 31.8578 143.707 31.7634C143.887 31.6692 144.02 31.5662 144.105 31.4548C144.2 31.3433 144.256 31.2355 144.273 31.1326H149.396C149.335 31.733 149.117 32.3123 148.739 32.8699C148.37 33.4276 147.859 33.9296 147.207 34.3757C146.555 34.8132 145.77 35.1613 144.853 35.4187C143.935 35.6675 142.896 35.7917 141.737 35.7917C140.133 35.7917 138.744 35.4909 137.568 34.8904C136.393 34.2812 135.487 33.4404 134.853 32.3679C134.218 31.287 133.9 30.0475 133.9 28.6492C133.9 27.2165 134.226 25.9638 134.878 24.8914C135.53 23.8189 136.444 22.9863 137.619 22.3943C138.803 21.8023 140.176 21.5066 141.737 21.5066ZM157.32 21.5066C158.444 21.5066 159.5 21.6996 160.486 22.0857C161.473 22.4631 162.275 23.0034 162.893 23.7068C163.51 24.4103 163.819 25.2429 163.819 26.2039V26.3328H158.736V26.2039C158.736 25.9637 158.659 25.7747 158.505 25.6375C158.359 25.4916 158.174 25.3848 157.951 25.3162C157.728 25.2476 157.505 25.2127 157.282 25.2126C157.111 25.2126 156.904 25.2342 156.664 25.2771C156.433 25.3114 156.231 25.3803 156.06 25.4832C155.888 25.5861 155.802 25.7361 155.802 25.9333C155.802 26.1049 155.91 26.2507 156.124 26.3708C156.347 26.4909 156.647 26.5946 157.024 26.6804C157.411 26.7576 157.84 26.8305 158.312 26.8992C158.801 26.9678 159.367 27.0787 160.011 27.2332C160.654 27.3876 161.281 27.6197 161.89 27.9285C162.499 28.2287 163 28.6407 163.395 29.1638C163.798 29.6786 164 30.3397 164 31.1462C164 32.0126 163.798 32.7418 163.395 33.3337C163 33.9256 162.468 34.4022 161.799 34.7625C161.138 35.1227 160.413 35.3846 159.624 35.5476C158.835 35.7106 158.045 35.7917 157.256 35.7917C156.449 35.7917 155.652 35.6932 154.862 35.4958C154.073 35.3071 153.352 35.0196 152.7 34.6335C152.057 34.2389 151.537 33.7451 151.143 33.1531C150.757 32.5612 150.563 31.8658 150.563 31.0681V30.9402H155.699V31.0681C155.699 31.4284 155.853 31.682 156.162 31.8279C156.471 31.9737 156.887 32.0466 157.41 32.0466C157.599 32.0466 157.819 32.0251 158.067 31.9822C158.316 31.9307 158.53 31.8494 158.71 31.738C158.899 31.6179 158.993 31.4629 158.993 31.2742C158.993 30.9912 158.796 30.7939 158.401 30.6824C158.015 30.5623 157.338 30.4247 156.368 30.2703C155.785 30.1759 155.167 30.0393 154.515 29.8591C153.863 29.6704 153.25 29.4168 152.675 29.0994C152.1 28.7733 151.632 28.3616 151.271 27.864C150.911 27.3664 150.731 26.7524 150.731 26.0232C150.732 25.0283 151.031 24.1962 151.632 23.5271C152.241 22.8579 153.044 22.3559 154.039 22.0212C155.043 21.6781 156.136 21.5066 157.32 21.5066ZM122.252 23.9207C122.692 23.2513 123.252 22.7171 123.938 22.322C124.788 21.8245 125.783 21.576 126.924 21.5759C128.614 21.5759 129.841 22.0649 130.604 23.0427C131.377 24.0208 131.763 25.3895 131.763 27.1482V35.5271H126.576V28.6804C126.576 27.8139 126.448 27.1271 126.19 26.6208C125.933 26.1146 125.38 25.8611 124.53 25.8611C123.981 25.8611 123.54 25.9731 123.205 26.196C122.871 26.4191 122.625 26.7406 122.471 27.1609C122.325 27.5813 122.252 28.0884 122.252 28.6804V35.5271H117.065V15.4109H122.252V23.9207ZM57.6582 30.4177C56.9633 30.5464 56.2979 30.645 55.6631 30.7136C55.0711 30.7737 54.6286 30.8722 54.3369 31.0095C54.0541 31.1382 53.9131 31.3488 53.9131 31.6404C53.9132 31.9319 54.0415 32.1467 54.2988 32.2839C54.5562 32.4211 54.9167 32.489 55.3799 32.489C55.826 32.489 56.2634 32.3904 56.6924 32.1931C57.1298 31.9958 57.4945 31.6701 57.7861 31.2156C57.9445 30.9641 58.0575 30.6637 58.1299 30.3162C57.976 30.3511 57.819 30.386 57.6582 30.4177ZM141.802 25.1609C141.193 25.1609 140.682 25.2903 140.271 25.5476C139.859 25.805 139.55 26.187 139.344 26.6931C139.31 26.7756 139.279 26.8614 139.251 26.95H144.345C144.311 26.7317 144.232 26.5086 144.105 26.281C143.942 25.9636 143.672 25.6976 143.295 25.4832C142.926 25.2687 142.428 25.1609 141.802 25.1609ZM61.7871 10.2585L65.2236 7.04761H71.4912L65.9482 12.0535L71.2588 20.7156H65.8408L62.6602 15.0164L61.7871 15.8308V20.7156H56.8711V0.600342H61.7871V10.2585ZM80.3994 20.7156H75.2646V7.15308H80.3994V20.7156ZM88.1426 20.7156H83.0332V0.625732H88.1426V20.7156ZM96.1143 20.7156H91.0049V0.625732H96.1143V20.7156Z" fill="white"/>
<rect x="65.5205" y="0.600098" width="14.6107" height="4.84818" fill="#4640DE"/>
</svg>
