<svg width="164" height="36" viewBox="0 0 164 36" fill="none" xmlns="http://www.w3.org/2000/svg">
<rect y="0.214844" width="35.5703" height="35.5703" rx="8.29974" fill="#4640DE"/>
<path d="M28.1924 31.2905H23.4287L17.4834 25.1626L11.6055 31.2905H6.88574L17.4766 20.1431L17.4834 20.1499L17.4932 20.1431L28.1924 31.2905ZM19.2646 12.0815L23.6816 5.21045L26.6729 7.13428L22.2529 14.0054L29.6875 10.6138L31.165 13.8481L23.7305 17.2397L31.8193 18.4048L31.3125 21.9233L17.5234 19.5981L3.65723 21.9233L3.15039 18.4019L11.2354 17.2397L3.80859 13.8462L5.28516 10.6118L12.7168 14.0054L8.2998 7.13135L11.291 5.21045L15.708 12.0815V3.91357H19.2646V12.0815Z" fill="white"/>
<path d="M56.0752 21.5258C57.3363 21.5258 58.5162 21.7137 59.6143 22.0912C60.721 22.4687 61.6174 23.0487 62.3037 23.8295C62.9899 24.6016 63.333 25.5925 63.333 26.8021V32.1176C63.333 32.4949 63.3422 32.8597 63.3594 33.2113C63.3765 33.5629 63.4279 33.8887 63.5137 34.1888C63.608 34.5063 63.7323 34.7814 63.8867 35.0131C64.041 35.2359 64.1654 35.3902 64.2598 35.476H59.1895C59.1122 35.3987 59.0003 35.2571 58.8545 35.0511C58.7087 34.8453 58.5885 34.609 58.4941 34.3431C58.4673 34.2627 58.4428 34.1831 58.4189 34.1049C58.3138 34.2095 58.2024 34.3113 58.082 34.4076C57.5329 34.8537 56.8851 35.1976 56.1387 35.4379C55.401 35.6694 54.6327 35.7845 53.835 35.7845C52.8571 35.7845 51.982 35.6305 51.21 35.3217C50.4378 35.0042 49.8289 34.5494 49.3828 33.9574C48.9367 33.3569 48.7129 32.6278 48.7129 31.7699C48.7129 30.7576 49.0005 29.9423 49.5752 29.3246C50.1586 28.7069 50.9009 28.2387 51.8018 27.9213C52.7111 27.6039 53.6507 27.4026 54.6201 27.3168C56.0014 27.1881 56.9326 27.0762 57.4131 26.9818C57.8936 26.8874 58.1338 26.7201 58.1338 26.4799V26.4672C58.1337 26.1498 57.9407 25.8796 57.5547 25.6566C57.1772 25.425 56.671 25.309 56.0361 25.309C55.35 25.309 54.8395 25.4375 54.5049 25.6947C54.1703 25.9435 54.0029 26.309 54.0029 26.7894H48.8936C48.8936 25.6397 49.2149 24.6737 49.8584 23.8929C50.5018 23.1123 51.3644 22.5249 52.4453 22.1302C53.5349 21.727 54.7453 21.5258 56.0752 21.5258ZM48.0469 4.94763C49.1708 4.94764 50.2262 5.14162 51.2129 5.52771C52.1994 5.90519 53.0015 6.44539 53.6191 7.1488C54.2369 7.85235 54.5459 8.68494 54.5459 9.64587V9.7738H49.4629V9.64587C49.4629 9.40564 49.3849 9.21674 49.2305 9.07947C49.0847 8.93369 48.9007 8.82583 48.6777 8.7572C48.4547 8.68856 48.2309 8.65466 48.0078 8.65466C47.8363 8.6547 47.6306 8.67626 47.3906 8.71912C47.159 8.75344 46.9568 8.82221 46.7852 8.92517C46.6139 9.02812 46.5283 9.17822 46.5283 9.37537C46.5284 9.54685 46.6353 9.6928 46.8496 9.81287C47.0727 9.93298 47.3735 10.0357 47.751 10.1215C48.137 10.1987 48.5662 10.2716 49.0381 10.3402C49.527 10.4088 50.0931 10.5208 50.7363 10.6752C51.3798 10.8296 52.0061 11.0616 52.6152 11.3705C53.2244 11.6708 53.7264 12.0825 54.1211 12.6058C54.5243 13.1206 54.7265 13.7809 54.7266 14.5873C54.7266 15.4538 54.5243 16.1838 54.1211 16.7758C53.7265 17.3675 53.1944 17.8432 52.5254 18.2035C51.8648 18.5638 51.1399 18.8256 50.3506 18.9886C49.5612 19.1517 48.7718 19.2338 47.9824 19.2338C47.3911 19.2338 46.8047 19.1787 46.2227 19.0726V35.5658H41.29V15.1683H41.3389C41.3074 14.9573 41.29 14.738 41.29 14.5101V14.3812H46.4248V14.5101C46.4248 14.8705 46.5798 15.124 46.8887 15.2699C47.1975 15.4157 47.6136 15.4886 48.1367 15.4886C48.3254 15.4886 48.5443 15.4671 48.793 15.4242C49.0418 15.3727 49.2563 15.2906 49.4365 15.1791C49.6253 15.059 49.7197 14.9049 49.7197 14.7162C49.7197 14.4331 49.5225 14.2359 49.1279 14.1244C48.7419 14.0043 48.0641 13.8667 47.0947 13.7123C46.5113 13.6179 45.8933 13.4803 45.2412 13.3002C44.5894 13.1115 43.976 12.8587 43.4014 12.5414C42.8266 12.2154 42.3584 11.8036 41.998 11.306C41.6377 10.8084 41.458 10.1945 41.458 9.46521C41.458 8.47016 41.758 7.63826 42.3584 6.96912C42.9675 6.3 43.7696 5.79787 44.7646 5.46326C45.7685 5.12007 46.8629 4.94763 48.0469 4.94763ZM93.0078 21.5258C94.1745 21.5258 95.1008 21.7661 95.7871 22.2465C96.4734 22.7183 96.9673 23.3744 97.2676 24.2152C97.5764 25.056 97.7305 26.017 97.7305 27.098V35.476H92.5439V28.6293C92.5439 28.1574 92.5008 27.7066 92.415 27.2777C92.3378 26.8491 92.1538 26.4974 91.8623 26.223C91.5792 25.9485 91.1242 25.8109 90.498 25.8109C89.9576 25.8109 89.5201 25.9229 89.1855 26.1459C88.8509 26.3689 88.6056 26.6903 88.4512 27.1107C88.2968 27.5311 88.2197 28.0374 88.2197 28.6293V35.476H83.0332V21.809H88.2197V23.972C88.6966 23.2544 89.3044 22.6868 90.0469 22.2719C90.922 21.7742 91.9096 21.5258 93.0078 21.5258ZM107.379 21.1908C108.588 21.1908 109.652 21.3623 110.57 21.7054C111.488 22.0486 112.252 22.5035 112.861 23.0697C113.479 23.6273 113.942 24.2414 114.251 24.9105C114.568 25.5795 114.728 26.2442 114.728 26.9047V27.0209H109.592C109.592 26.9694 109.588 26.9222 109.579 26.8793C109.579 26.8364 109.571 26.7933 109.554 26.7504C109.485 26.5273 109.377 26.2953 109.231 26.0551C109.086 25.815 108.863 25.6135 108.562 25.4506C108.271 25.279 107.859 25.1937 107.327 25.1937C106.804 25.1937 106.349 25.3138 105.963 25.5541C105.585 25.7943 105.294 26.1414 105.088 26.5961C104.882 27.0508 104.779 27.6 104.779 28.2435C104.779 28.8698 104.882 29.4274 105.088 29.9164C105.294 30.4054 105.585 30.7873 105.963 31.0619C106.349 31.3364 106.804 31.474 107.327 31.474C107.842 31.474 108.254 31.396 108.562 31.2416C108.88 31.0872 109.116 30.8775 109.271 30.6117C109.433 30.3372 109.536 30.0281 109.579 29.6849H114.728C114.728 30.3369 114.568 31.0064 114.251 31.6927C113.942 32.3704 113.479 32.9969 112.861 33.5717C112.252 34.1379 111.488 34.5968 110.57 34.9486C109.652 35.3003 108.588 35.4759 107.379 35.476C105.74 35.476 104.333 35.1628 103.157 34.5365C101.982 33.9102 101.081 33.0519 100.455 31.9623C99.8288 30.8727 99.5157 29.6333 99.5156 28.2435C99.5156 26.845 99.8288 25.6182 100.455 24.5629C101.081 23.5076 101.982 22.6832 103.157 22.0912C104.333 21.4907 105.74 21.1908 107.379 21.1908ZM71.1738 28.4437C71.1738 28.9327 71.2128 29.3835 71.29 29.7953C71.3758 30.1985 71.5473 30.525 71.8047 30.7738C72.062 31.014 72.4483 31.1341 72.9629 31.1342C73.4777 31.1342 73.9027 30.9966 74.2373 30.722C74.5718 30.439 74.8204 30.0743 74.9834 29.6283C75.155 29.1736 75.2412 28.693 75.2412 28.1869V21.4691H80.4277V35.1361H75.2412V33.1635C75.0975 33.3845 74.9389 33.5917 74.7646 33.7845C74.2928 34.3079 73.7137 34.7114 73.0273 34.9945C72.3496 35.2691 71.5775 35.4066 70.7109 35.4066C69.75 35.4066 68.9605 35.2567 68.3428 34.9564C67.7337 34.6562 67.2572 34.2444 66.9141 33.7211C66.5709 33.1977 66.3306 32.6053 66.1934 31.9447C66.0561 31.2755 65.9873 30.5763 65.9873 29.847V21.4691H71.1738V28.4437ZM141.737 21.1215C143.35 21.1215 144.74 21.4255 145.907 22.0345C147.083 22.6351 147.988 23.4934 148.623 24.6088C149.258 25.7156 149.575 27.0327 149.575 28.5599C149.575 28.8173 149.571 29.036 149.562 29.2162C149.554 29.3963 149.541 29.5422 149.523 29.6537H139.203C139.24 29.7978 139.283 29.9352 139.331 30.0658C139.528 30.5977 139.842 31.0053 140.271 31.2885C140.699 31.5629 141.261 31.7005 141.956 31.7006C142.368 31.7006 142.72 31.6698 143.012 31.6097C143.303 31.5497 143.535 31.4727 143.707 31.3783C143.887 31.284 144.02 31.1811 144.105 31.0697C144.2 30.9582 144.256 30.8504 144.273 30.7474H149.396C149.335 31.3478 149.117 31.9272 148.739 32.4847C148.37 33.0424 147.859 33.5445 147.207 33.9906C146.555 34.4281 145.77 34.7762 144.853 35.0336C143.935 35.2824 142.896 35.4066 141.737 35.4066C140.133 35.4066 138.744 35.1057 137.568 34.5052C136.393 33.8961 135.487 33.0553 134.853 31.9828C134.218 30.9018 133.9 29.6624 133.9 28.264C133.9 26.8313 134.226 25.5786 134.878 24.5062C135.53 23.4338 136.444 22.6012 137.619 22.0092C138.803 21.4172 140.176 21.1215 141.737 21.1215ZM157.32 21.1215C158.444 21.1215 159.5 21.3145 160.486 21.7006C161.473 22.078 162.275 22.6183 162.893 23.3217C163.51 24.0252 163.819 24.8578 163.819 25.8187V25.9476H158.736V25.8187C158.736 25.5786 158.659 25.3896 158.505 25.2523C158.359 25.1065 158.174 24.9997 157.951 24.931C157.728 24.8624 157.505 24.8276 157.282 24.8275C157.111 24.8275 156.904 24.8491 156.664 24.892C156.433 24.9263 156.231 24.9951 156.06 25.098C155.888 25.2009 155.802 25.351 155.802 25.5482C155.802 25.7198 155.91 25.8656 156.124 25.9857C156.347 26.1058 156.647 26.2095 157.024 26.2953C157.411 26.3725 157.84 26.4454 158.312 26.514C158.801 26.5827 159.367 26.6936 160.011 26.848C160.654 27.0025 161.281 27.2345 161.89 27.5433C162.499 27.8436 163 28.2555 163.395 28.7787C163.798 29.2935 164 29.9546 164 30.7611C164 31.6275 163.798 32.3567 163.395 32.9486C163 33.5405 162.468 34.017 161.799 34.3773C161.138 34.7376 160.413 34.9995 159.624 35.1625C158.835 35.3255 158.045 35.4066 157.256 35.4066C156.449 35.4066 155.652 35.308 154.862 35.1107C154.073 34.922 153.352 34.6345 152.7 34.2484C152.057 33.8537 151.537 33.3599 151.143 32.7679C150.757 32.176 150.563 31.4807 150.563 30.683V30.5551H155.699V30.683C155.699 31.0433 155.853 31.2969 156.162 31.4427C156.471 31.5886 156.887 31.6615 157.41 31.6615C157.599 31.6615 157.819 31.6399 158.067 31.597C158.316 31.5456 158.53 31.4642 158.71 31.3529C158.899 31.2328 158.993 31.0778 158.993 30.889C158.993 30.6061 158.796 30.4087 158.401 30.2972C158.015 30.1771 157.338 30.0395 156.368 29.8851C155.785 29.7908 155.167 29.6542 154.515 29.474C153.863 29.2853 153.25 29.0316 152.675 28.7142C152.1 28.3882 151.632 27.9765 151.271 27.4789C150.911 26.9813 150.731 26.3673 150.731 25.6381C150.732 24.6431 151.031 23.8111 151.632 23.142C152.241 22.4727 153.044 21.9707 154.039 21.6361C155.043 21.293 156.136 21.1215 157.32 21.1215ZM122.252 23.5355C122.692 22.8661 123.252 22.3319 123.938 21.9369C124.788 21.4394 125.783 21.1908 126.924 21.1908C128.614 21.1908 129.841 21.6797 130.604 22.6576C131.377 23.6356 131.763 25.0043 131.763 26.7631V35.142H126.576V28.2953C126.576 27.4287 126.448 26.7419 126.19 26.2357C125.933 25.7295 125.38 25.476 124.53 25.476C123.981 25.476 123.54 25.588 123.205 25.8109C122.871 26.0339 122.625 26.3555 122.471 26.7758C122.325 27.1962 122.252 27.7033 122.252 28.2953V35.142H117.065V15.0258H122.252V23.5355ZM57.6582 30.0326C56.9633 30.1613 56.2979 30.2599 55.6631 30.3285C55.0711 30.3885 54.6286 30.4871 54.3369 30.6244C54.0541 30.7531 53.9131 30.9637 53.9131 31.2552C53.9132 31.5468 54.0415 31.7616 54.2988 31.8988C54.5562 32.036 54.9167 32.1039 55.3799 32.1039C55.826 32.1039 56.2634 32.0053 56.6924 31.808C57.1298 31.6107 57.4945 31.285 57.7861 30.8304C57.9445 30.579 58.0575 30.2786 58.1299 29.931C57.976 29.966 57.819 30.0008 57.6582 30.0326ZM141.802 24.7758C141.193 24.7758 140.682 24.9051 140.271 25.1625C139.859 25.4199 139.55 25.8018 139.344 26.308C139.31 26.3904 139.279 26.4763 139.251 26.5648H144.345C144.311 26.3465 144.232 26.1235 144.105 25.8959C143.942 25.5785 143.672 25.3125 143.295 25.098C142.926 24.8835 142.428 24.7758 141.802 24.7758ZM61.7871 9.87341L65.2236 6.66248H71.4912L65.9482 11.6683L71.2588 20.3304H65.8408L62.6602 14.6312L61.7871 15.4457V20.3304H56.8711V0.21521H61.7871V9.87341ZM80.3994 20.3304H75.2646V6.76794H80.3994V20.3304ZM88.1426 20.3304H83.0332V0.240601H88.1426V20.3304ZM96.1143 20.3304H91.0049V0.240601H96.1143V20.3304Z" fill="black"/>
<rect x="65.5205" y="0.214844" width="14.6107" height="4.84818" fill="#4640DE"/>
</svg>
