<svg width="24" height="23" viewBox="0 0 24 23" fill="none" xmlns="http://www.w3.org/2000/svg">
<path d="M10.9246 2.51333C11.3648 1.62153 12.6365 1.62153 13.0767 2.51333L15.3267 7.07161C15.5014 7.42543 15.8388 7.67078 16.2292 7.72785L21.2628 8.46358C22.2467 8.60739 22.6388 9.8168 21.9265 10.5106L18.2861 14.0563C18.0031 14.332 17.8739 14.7294 17.9407 15.1188L18.7996 20.1265C18.9677 21.1069 17.9387 21.8544 17.0583 21.3915L12.5592 19.0254C12.2095 18.8416 11.7918 18.8416 11.4421 19.0254L6.94301 21.3915C6.06266 21.8544 5.0336 21.1069 5.20174 20.1265L6.06062 15.1188C6.12741 14.7294 5.99822 14.332 5.71517 14.0563L2.0748 10.5106C1.36249 9.8168 1.75463 8.60739 2.73852 8.46358L7.77209 7.72785C8.16252 7.67078 8.49994 7.42543 8.67459 7.07161L10.9246 2.51333Z" fill="#FFAA00"/>
</svg>
