<svg width="73" height="72" viewBox="0 0 73 72" fill="none" xmlns="http://www.w3.org/2000/svg">
<rect x="0.818359" width="72" height="72" rx="36" fill="white"/>
<g clip-path="url(#clip0_1_2288)">
<path opacity="0.2" d="M30.8184 35.9981C30.8184 34.0202 31.4049 32.0868 32.5037 30.4423C33.6025 28.7979 35.1643 27.5161 36.9916 26.7593C38.8188 26.0024 40.8295 25.8043 42.7693 26.1902C44.7091 26.5761 46.4909 27.5285 47.8895 28.927C49.288 30.3255 50.2404 32.1073 50.6262 34.0471C51.0121 35.987 50.8141 37.9976 50.0572 39.8249C49.3003 41.6521 48.0186 43.2139 46.3741 44.3127C44.7296 45.4116 42.7962 45.9981 40.8184 45.9981H29.8184C28.8257 45.9971 27.8445 45.785 26.9401 45.3758C26.0356 44.9667 25.2285 44.3698 24.5724 43.6249C23.9162 42.88 23.426 42.004 23.1343 41.0551C22.8426 40.1063 22.756 39.1062 22.8803 38.1213C23.0047 37.1364 23.3371 36.1892 23.8554 35.3426C24.3738 34.496 25.0664 33.7694 25.8871 33.2109C26.7078 32.6524 27.6379 32.2749 28.6157 32.1033C29.5934 31.9318 30.5965 31.9702 31.5583 32.216" fill="#4640DE"/>
<path d="M32.8179 45.998H29.8179C28.8252 45.9971 27.8441 45.785 26.9396 45.3758C26.0351 44.9667 25.228 44.3698 24.5719 43.6249C23.9157 42.88 23.4255 42.004 23.1338 41.0551C22.8421 40.1063 22.7555 39.1062 22.8798 38.1213C23.0042 37.1364 23.3366 36.1892 23.855 35.3426C24.3733 34.496 25.0659 33.7694 25.8866 33.2109C26.7073 32.6524 27.6374 32.2749 28.6152 32.1033C29.5929 31.9318 30.596 31.9702 31.5578 32.216" stroke="#4640DE" stroke-width="2" stroke-linecap="round" stroke-linejoin="round"/>
<path d="M30.8174 35.998C30.8175 34.4136 31.1942 32.8518 31.9163 31.4415C32.6384 30.0312 33.6853 28.8126 34.9708 27.8862C36.2562 26.9599 37.7434 26.3522 39.3097 26.1133C40.8761 25.8744 42.4768 26.0112 43.9799 26.5123C45.483 27.0134 46.8456 27.8644 47.9553 28.9954C49.065 30.1264 49.89 31.5048 50.3625 33.0172C50.8349 34.5296 50.9412 36.1326 50.6727 37.6941C50.4041 39.2557 49.7683 40.731 48.8177 41.9986" stroke="#4640DE" stroke-width="2" stroke-linecap="round" stroke-linejoin="round"/>
<path d="M35.5747 40.2408L39.8173 35.998L44.06 40.2408" stroke="#4640DE" stroke-width="2" stroke-linecap="round" stroke-linejoin="round"/>
<path d="M39.8174 45.998V35.998" stroke="#4640DE" stroke-width="2" stroke-linecap="round" stroke-linejoin="round"/>
</g>
<defs>
<clipPath id="clip0_1_2288">
<rect width="32" height="32" fill="white" transform="translate(20.8184 20)"/>
</clipPath>
</defs>
</svg>
